<svg width="1200" height="1200" viewBox="0 0 1200 1200" fill="none" xmlns="http://www.w3.org/2000/svg">
<path d="M1182 745.2C1101.91 1066.6 776.292 1262.21 454.8 1182C133.308 1101.79 -62.2139 776.334 18.0001 454.908C98.2141 133.482 423.672 -62.22 745.092 18C1066.51 98.22 1262.21 423.696 1182 745.2Z" fill="url(#paint0_linear)"/>
<path d="M864.6 514.518C876.528 434.676 815.736 391.752 732.6 363.12L759.6 254.97L693.744 238.566L667.44 343.872C650.148 339.564 632.376 335.472 614.712 331.464L641.112 225.462L575.322 209.058L548.4 317.166L415.608 284.274L398.088 354.6C398.088 354.6 446.94 365.796 445.908 366.492C472.572 373.152 477.408 390.792 476.592 404.784L402.708 701.064C399.444 709.164 391.176 721.308 372.54 716.664C373.2 717.624 324.684 704.664 324.684 704.664L291.996 780.138L424.596 813.618L397.344 923.028L463.104 939.432L490.104 831.198C508.104 836.07 525.504 840.57 542.556 844.806L515.664 952.536L581.508 968.94L608.76 859.74C721.038 880.98 805.47 872.412 840.96 770.94C869.592 689.19 839.556 642.03 780.48 611.262C823.5 601.302 855.9 573.018 864.546 514.56L864.6 514.518ZM714.12 725.472C693.72 807.222 556.11 763.044 511.458 751.944L547.614 607.014C592.242 618.15 735.348 640.206 714.144 725.46L714.12 725.472ZM734.544 513.36C715.98 587.76 601.398 549.96 564.21 540.684L596.946 409.2C634.146 418.488 753.852 435.78 734.496 513.354" fill="white"/>
<defs>
<linearGradient id="paint0_linear" x1="599.995" y1="0.0168457" x2="599.995" y2="1199.98" gradientUnits="userSpaceOnUse">
<stop stop-color="#FCAC49"/>
<stop offset="1" stop-color="#F89419"/>
</linearGradient>
</defs>
</svg>
