<svg width="126" height="31" viewBox="0 0 126 31" fill="none" xmlns="http://www.w3.org/2000/svg">
<path fill-rule="evenodd" clip-rule="evenodd" d="M25.8774 4.60058L26.0354 5.55559C26.1599 6.444 26.2176 7.34051 26.208 8.23755C26.2069 10.2199 25.9678 12.195 25.4956 14.1203C24.8571 16.736 23.745 19.2127 22.2143 21.4277C20.4455 23.9716 17.888 26.4737 14.16 28.4841L13.704 28.7299L13.2479 28.4841C9.51992 26.4737 6.96347 23.9716 5.19362 21.4277C3.66295 19.2127 2.55083 16.736 1.91229 14.1203C1.44025 12.1953 1.2011 10.2206 1.19996 8.2386C1.19032 7.34155 1.24801 6.44505 1.37255 5.55663L1.5305 4.60163C1.54398 4.52374 1.54192 4.44396 1.52443 4.36688C1.50694 4.28979 1.47436 4.21694 1.42859 4.1525C1.38281 4.08806 1.32473 4.03332 1.2577 3.99143C1.19067 3.94954 1.11602 3.92133 1.03803 3.90843C0.960052 3.89552 0.880288 3.89818 0.803337 3.91624C0.726386 3.9343 0.653771 3.96742 0.589676 4.01367C0.52558 4.05992 0.471272 4.11841 0.429881 4.18574C0.38849 4.25308 0.360835 4.32795 0.348509 4.40602L0.190561 5.36103C0.0547048 6.31404 -0.0085864 7.276 0.00123353 8.2386C0.00198676 10.3182 0.252736 12.3903 0.748084 14.4101C1.42237 17.1683 2.59619 19.7797 4.21142 22.115C6.07855 24.8022 8.78667 27.4444 12.6841 29.5416L13.4247 29.9402C13.5119 29.9873 13.6095 30.012 13.7087 30.012C13.8078 30.012 13.9054 29.9873 13.9927 29.9402L14.7322 29.5416C18.6254 27.4433 21.3346 24.8022 23.2049 22.115C24.8193 19.7799 25.9924 17.1688 26.6661 14.4111C27.1615 12.3913 27.4122 10.3193 27.413 8.23965C27.4227 7.27705 27.3595 6.31509 27.2236 5.36207L27.0657 4.40707C27.0534 4.32899 27.0257 4.25413 26.9843 4.18679C26.9429 4.11945 26.8886 4.06097 26.8245 4.01472C26.7604 3.96846 26.6878 3.93535 26.6109 3.91729C26.5339 3.89922 26.4541 3.89657 26.3762 3.90947C26.2982 3.92238 26.2235 3.95059 26.1565 3.99248C26.0895 4.03437 26.0314 4.08911 25.9856 4.15354C25.9398 4.21798 25.9073 4.29084 25.8898 4.36792C25.8723 4.44501 25.8702 4.52479 25.8837 4.60267L25.8774 4.60058Z" fill="white"/>
<path fill-rule="evenodd" clip-rule="evenodd" d="M4.80361 3.94974L13.7051 1.23012L22.8054 4.00832C22.9578 4.05387 23.122 4.03721 23.2621 3.96199C23.4022 3.88677 23.5068 3.75911 23.553 3.60695C23.5992 3.4548 23.5832 3.29054 23.5086 3.15012C23.434 3.0097 23.3068 2.90456 23.1548 2.85771L13.8798 0.0261637C13.766 -0.00872122 13.6443 -0.00872122 13.5305 0.0261637L4.45319 2.79704C4.37734 2.81972 4.30671 2.85716 4.24536 2.9072C4.18401 2.95725 4.13315 3.01892 4.0957 3.08868C4.05824 3.15843 4.03494 3.2349 4.02711 3.31368C4.01929 3.39247 4.0271 3.47202 4.05011 3.54778C4.07311 3.62354 4.11085 3.69401 4.16116 3.75514C4.21146 3.81628 4.27335 3.86687 4.34327 3.90403C4.41318 3.94118 4.48974 3.96416 4.56856 3.97165C4.64738 3.97913 4.7269 3.97098 4.80256 3.94765L4.80361 3.94974Z" fill="white"/>
<path fill-rule="evenodd" clip-rule="evenodd" d="M0.408209 4.77667L13.1695 29.6842C13.2193 29.7816 13.2947 29.8635 13.3877 29.9209C13.4807 29.9784 13.5877 30.0093 13.697 30.0103C13.8063 30.0113 13.9138 29.9823 14.0078 29.9264C14.1018 29.8706 14.1787 29.7901 14.2302 29.6937L22.0125 15.1384L22.024 15.1154L27.0051 4.75993C27.0726 4.61703 27.081 4.45325 27.0284 4.30419C26.9758 4.15514 26.8665 4.03287 26.7243 3.96395C26.5821 3.89504 26.4184 3.88505 26.2688 3.93617C26.1193 3.98729 25.9959 4.09537 25.9256 4.23693L20.9529 14.5841L13.7208 28.1194L1.47409 4.22856C1.4388 4.15763 1.38978 4.0944 1.32987 4.04255C1.26996 3.99069 1.20036 3.95124 1.1251 3.92648C1.04984 3.90172 0.97041 3.89214 0.891418 3.8983C0.812427 3.90445 0.735442 3.92622 0.664925 3.96235C0.594407 3.99847 0.53176 4.04823 0.480611 4.10874C0.429463 4.16925 0.39083 4.23931 0.366953 4.31485C0.343075 4.3904 0.334426 4.46994 0.341508 4.54885C0.34859 4.62776 0.371262 4.70449 0.408209 4.77458V4.77667Z" fill="white"/>
<path fill-rule="evenodd" clip-rule="evenodd" d="M6.51681 15.8685H20.708C20.8668 15.8685 21.0192 15.8054 21.1315 15.6931C21.2438 15.5808 21.3069 15.4285 21.3069 15.2697C21.3069 15.1108 21.2438 14.9585 21.1315 14.8462C21.0192 14.7339 20.8668 14.6708 20.708 14.6708H6.51681C6.35799 14.6708 6.20567 14.7339 6.09337 14.8462C5.98106 14.9585 5.91797 15.1108 5.91797 15.2697C5.91797 15.4285 5.98106 15.5808 6.09337 15.6931C6.20567 15.8054 6.35799 15.8685 6.51681 15.8685ZM46.0999 10.7012H36.8678C36.7083 10.702 36.5555 10.7658 36.4427 10.8786C36.3299 10.9914 36.2661 11.1442 36.2653 11.3037V18.7137C36.2664 18.8731 36.3302 19.0257 36.443 19.1385C36.5557 19.2512 36.7084 19.3151 36.8678 19.3162H46.0999V20.5714H36.8678C36.6242 20.5725 36.3828 20.5253 36.1576 20.4326C35.9323 20.3399 35.7277 20.2035 35.5554 20.0313C35.3832 19.859 35.2468 19.6544 35.1541 19.4291C35.0614 19.2039 35.0142 18.9625 35.0153 18.7189V11.309C35.0142 11.0654 35.0614 10.824 35.1541 10.5987C35.2468 10.3735 35.3832 10.1688 35.5554 9.99658C35.7277 9.82434 35.9323 9.68793 36.1576 9.59523C36.3828 9.50252 36.6242 9.45536 36.8678 9.45647H46.0999V10.7012ZM63.4354 9.4502V10.7054H54.5443V14.3738H61.6907V15.6394H54.5433V19.3141H63.4344V20.5693H53.2881V9.4502H63.4354Z" fill="white"/>
<path d="M81.7437 11.3193V14.5766C81.7447 14.8201 81.6974 15.0614 81.6047 15.2866C81.5119 15.5118 81.3755 15.7164 81.2033 15.8886C81.0311 16.0608 80.8265 16.1973 80.6013 16.29C80.3761 16.3828 80.1348 16.43 79.8912 16.4291H78.1935L81.682 20.566H80.0303L76.5565 16.4291H72.4771C72.2753 16.4188 72.0742 16.3982 71.8746 16.3673V20.566H70.6194V9.46681H79.8818C80.1253 9.46584 80.3667 9.5131 80.5919 9.60585C80.8171 9.6986 81.0217 9.83502 81.1939 10.0072C81.3661 10.1794 81.5025 10.384 81.5952 10.6092C81.688 10.8344 81.7353 11.0758 81.7343 11.3193H81.7437ZM72.4813 15.1634H79.8912C79.9685 15.1644 80.0453 15.1499 80.1169 15.1207C80.1886 15.0916 80.2537 15.0484 80.3083 14.9937C80.363 14.939 80.4062 14.8739 80.4354 14.8023C80.4645 14.7306 80.479 14.6539 80.478 14.5766V11.3193C80.4792 11.2408 80.4649 11.1629 80.4358 11.09C80.4067 11.0171 80.3635 10.9507 80.3086 10.8946C80.2553 10.8372 80.1905 10.7917 80.1184 10.761C80.0463 10.7304 79.9685 10.7153 79.8902 10.7168H72.4802C72.3207 10.7176 72.1679 10.7814 72.0551 10.8942C71.9423 11.007 71.8786 11.1598 71.8777 11.3193V14.5766C71.8761 14.6549 71.8911 14.7327 71.9218 14.8048C71.9524 14.877 71.998 14.9418 72.0556 14.995C72.1117 15.0499 72.1783 15.0932 72.2514 15.1221C72.3245 15.151 72.4027 15.165 72.4813 15.1634Z" fill="white"/>
<path fill-rule="evenodd" clip-rule="evenodd" d="M88.3828 9.4502H99.4935V10.7054H94.5773V20.5703H93.3221V10.7054H88.3828V9.4502ZM106.228 20.5651V9.4502H107.483V20.5651H106.228ZM124.166 9.4502H125.771L121.125 15.0076L125.787 20.5651H124.166L120.029 15.6405H116.447V20.5651H115.184V9.4502H116.449V14.3738H120.031L124.166 9.4502Z" fill="white"/>
</svg>
