<?xml version="1.0" standalone="no"?>
<!DOCTYPE svg PUBLIC "-//W3C//DTD SVG 20010904//EN"
 "http://www.w3.org/TR/2001/REC-SVG-20010904/DTD/svg10.dtd">
<svg version="1.0" xmlns="http://www.w3.org/2000/svg"
 width="296.000000pt" height="300.000000pt" viewBox="0 0 296.000000 300.000000"
 preserveAspectRatio="xMidYMid meet">
<metadata>
Created by potrace 1.16, written by Peter Selinger 2001-2019
</metadata>
<g transform="translate(0.000000,300.000000) scale(0.100000,-0.100000)"
fill="#000000" stroke="none">
<path d="M512 2980 c-7 -12 -8 -21 -2 -25 13 -8 13 -25 -1 -25 -17 0 -34 -22
-47 -60 -11 -33 -12 -34 -8 -5 3 17 0 37 -6 45 -7 12 -9 10 -5 -8 3 -12 1 -20
-3 -17 -5 3 -11 1 -15 -5 -3 -5 -1 -10 6 -10 7 0 9 -10 7 -25 -5 -23 -3 -24
25 -19 30 5 31 4 13 -15 -11 -13 -14 -21 -6 -26 6 -4 9 -1 8 7 -2 7 3 12 10
11 6 -2 12 2 12 8 0 8 4 8 13 1 10 -8 13 -5 15 15 2 31 0 28 36 37 23 6 27 4
23 -8 -4 -9 -2 -16 4 -16 15 0 4 66 -14 85 -9 8 -13 23 -10 31 3 9 9 11 12 6
3 -5 21 -9 39 -9 24 0 32 5 32 18 0 10 -4 21 -10 24 -6 3 -7 -1 -4 -9 3 -9 1
-16 -5 -16 -6 0 -11 7 -11 15 0 8 -5 15 -11 15 -5 0 -7 -4 -4 -10 3 -5 1 -10
-4 -10 -6 0 -11 5 -11 11 0 8 -6 7 -17 -2 -11 -10 -14 -10 -9 -1 4 7 1 12 -8
12 -12 0 -14 -5 -6 -25 10 -25 -3 -45 -16 -24 -5 8 -3 9 6 4 8 -5 11 -4 6 3
-4 6 -14 8 -24 5 -15 -6 -15 -5 -3 10 8 10 12 19 10 22 -3 2 -10 -4 -17 -15z"/>
<path d="M1554 2291 c3 -5 0 -11 -8 -14 -7 -3 -13 -20 -14 -37 -1 -43 -12 -52
-12 -11 0 18 -4 30 -10 26 -5 -3 -6 -13 -3 -22 4 -11 3 -14 -5 -9 -11 6 -14
-3 -11 -31 0 -4 -8 -10 -18 -14 -14 -4 -10 -7 15 -11 17 -2 32 -1 32 4 0 4 -4
8 -10 8 -5 0 -10 4 -10 9 0 5 15 9 32 8 20 -1 33 3 34 11 1 6 3 15 4 20 1 4 2
10 1 14 0 4 6 5 14 2 8 -4 15 -1 15 5 0 6 4 11 9 11 5 0 8 -17 6 -37 -1 -21 4
-47 11 -58 8 -11 14 -26 14 -35 -1 -12 -3 -12 -14 3 -15 19 -31 24 -20 5 5 -8
2 -9 -9 -5 -10 4 -17 2 -17 -4 0 -6 8 -9 18 -7 9 3 26 -4 36 -14 13 -12 15
-18 6 -18 -10 0 -9 -4 3 -17 13 -16 14 -22 2 -50 -12 -27 -11 -31 0 -26 8 2
14 8 13 11 0 4 0 14 1 22 1 13 3 13 10 1 5 -8 7 -20 4 -28 -3 -8 0 -13 8 -11
9 2 15 -7 16 -27 0 -16 2 -33 3 -37 2 -5 3 -11 4 -15 1 -5 9 -19 19 -33 13
-19 17 -21 17 -7 0 9 7 18 15 18 29 3 33 4 42 13 4 5 3 6 -4 2 -26 -14 -37 64
-12 80 5 3 9 11 9 17 0 7 -4 6 -10 -3 -8 -12 -10 -10 -11 10 0 20 -2 21 -7 8
-7 -17 -8 -17 -19 1 -11 17 -9 21 7 26 24 8 43 -2 33 -18 -3 -7 4 -3 17 8 l23
20 -6 -35 c-5 -25 -4 -31 3 -20 5 8 10 25 10 38 0 12 5 22 11 22 5 0 7 4 4 10
-4 6 -16 3 -31 -7 -19 -12 -28 -13 -37 -4 -8 8 -6 11 9 11 16 0 17 2 4 10 -8
5 -10 10 -3 10 6 0 9 9 6 23 -4 18 -3 19 6 7 7 -9 11 -10 11 -3 0 6 -4 15 -10
18 -5 3 -8 19 -6 36 2 16 -1 32 -6 36 -7 3 -9 -10 -6 -35 3 -34 0 -42 -16 -46
-11 -3 -24 0 -28 7 -6 9 -8 9 -8 0 0 -7 -6 -10 -14 -7 -8 3 -17 1 -21 -5 -3
-6 -1 -11 5 -11 6 0 8 -4 5 -10 -3 -5 -1 -10 5 -10 7 0 10 6 7 13 -4 10 4 13
26 12 38 -2 43 -15 20 -44 -12 -15 -24 -20 -36 -16 -9 4 -14 11 -11 16 3 5 1
9 -4 9 -5 0 -12 -9 -15 -20 -3 -11 -1 -17 4 -14 5 3 8 -4 6 -15 -5 -33 -14
-34 -25 -2 -6 16 -8 32 -4 35 3 4 7 14 8 23 2 12 0 13 -9 4 -17 -17 -26 -13
-22 10 2 12 0 31 -6 42 -8 15 -8 22 2 28 10 6 8 9 -8 9 -13 0 -23 4 -23 9 0 5
10 7 22 3 16 -4 20 -2 16 10 -4 8 0 15 8 15 7 0 11 -4 8 -9 -3 -4 -2 -8 3 -8
10 0 34 51 28 60 -3 4 -18 6 -35 4 -21 -3 -29 0 -24 8 5 7 3 8 -7 2 -8 -4 -27
-9 -44 -9 -21 -1 -30 -6 -30 -17 0 -10 -6 -23 -13 -30 -11 -11 -13 -8 -10 17
2 17 11 35 22 41 17 10 17 12 2 17 -10 4 -15 3 -12 -2z"/>
<path d="M2667 1852 c-17 -2 -26 -8 -24 -15 5 -13 9 -13 42 -2 18 6 18 5 2 -5
-9 -6 -15 -15 -12 -21 4 -5 2 -9 -4 -9 -5 0 -13 4 -16 10 -3 5 -17 9 -30 8
-13 -1 -21 -6 -18 -12 3 -5 -5 -7 -20 -4 -15 3 -24 1 -21 -3 3 -5 14 -9 25 -9
10 0 19 -4 19 -10 0 -5 5 -10 10 -10 6 0 10 6 8 13 -4 17 3 20 25 12 9 -4 17
-15 17 -24 0 -17 10 -21 50 -21 35 0 49 3 44 11 -2 4 0 10 5 13 5 3 7 15 4 26
-4 13 0 20 9 20 16 0 17 -28 3 -62 -4 -11 -3 -18 4 -18 6 0 11 7 11 15 0 8 5
15 11 15 5 0 7 5 4 11 -12 19 -13 60 -1 56 6 -2 10 -12 9 -21 -1 -14 4 -16 23
-12 18 5 22 3 18 -8 -3 -8 0 -17 7 -22 7 -4 10 -3 6 3 -3 5 5 27 19 49 l25 39
-25 -30 c-14 -16 -26 -24 -26 -16 0 11 -3 11 -15 1 -12 -10 -15 -10 -15 4 0
17 -4 18 -57 21 -18 0 -35 4 -39 8 -10 10 -26 9 -20 -2 3 -4 -2 -17 -10 -27
-12 -14 -14 -15 -11 -3 8 24 -5 34 -36 31z"/>
<path d="M2210 1610 c5 -9 5 -22 -1 -31 -8 -13 -14 -5 -9 16 1 6 -2 7 -6 3 -4
-4 -12 -3 -19 2 -8 6 -17 5 -29 -3 -19 -14 -29 -124 -12 -130 6 -2 0 -6 -12
-9 -18 -5 -25 -1 -31 15 -5 12 -6 26 -3 32 3 5 9 -1 13 -15 8 -29 9 -27 13 20
l3 35 -28 -24 c-21 -19 -26 -28 -17 -38 8 -9 7 -18 -3 -30 -13 -15 -11 -16 11
-10 24 6 24 6 5 -9 l-20 -16 20 4 c16 2 19 -2 17 -19 -2 -13 2 -23 8 -23 6 0
8 5 4 12 -5 8 -2 9 9 5 10 -4 17 -1 17 5 0 21 12 0 14 -26 2 -14 -3 -31 -10
-37 -8 -6 -12 -15 -9 -19 3 -4 -2 -10 -10 -13 -9 -4 -12 -1 -9 7 4 10 -2 13
-19 12 -13 0 -24 -6 -24 -13 0 -6 7 -9 15 -5 10 3 13 1 8 -6 -4 -7 1 -10 14
-7 12 2 20 -1 20 -10 0 -8 -6 -12 -14 -9 -10 4 -14 -1 -13 -15 1 -12 4 -21 7
-21 12 0 7 -26 -7 -38 -10 -10 -13 -9 -13 5 0 12 -3 14 -11 6 -6 -6 -18 -9
-25 -6 -8 3 -14 -1 -14 -8 0 -8 -5 -6 -13 5 -11 15 -17 17 -33 7 -19 -11 -19
-11 0 -9 12 2 24 -6 31 -20 l12 -22 9 21 c9 19 12 20 25 7 8 -8 19 -13 26 -11
6 2 14 -1 18 -6 3 -6 1 -11 -4 -11 -6 0 -11 -10 -10 -22 0 -22 1 -22 10 2 8
20 12 22 19 10 5 -8 10 -10 10 -4 0 6 -7 17 -15 24 -20 17 -19 29 3 25 9 -1
16 -8 14 -16 -3 -10 0 -10 12 0 8 7 13 24 11 39 -1 15 1 34 6 43 5 10 4 16 -5
16 -7 0 -13 -10 -13 -21 -1 -45 -3 -57 -11 -52 -16 10 -5 79 15 94 13 11 14
13 2 9 -9 -3 -16 0 -16 7 0 8 9 11 22 8 15 -2 24 2 29 14 5 14 4 15 -9 4 -17
-14 -17 -13 -17 30 0 42 2 48 11 26 4 -11 18 -21 32 -22 l24 -4 -23 13 c-12 7
-19 16 -16 20 7 7 -10 11 -34 8 -7 -1 -11 4 -10 11 5 23 21 27 35 10 10 -15
12 -15 13 -2 0 9 9 16 20 16 19 0 24 -16 21 -66 0 -10 1 -11 5 -2 8 18 24 4
24 -22 0 -12 5 -27 11 -33 9 -9 6 -12 -12 -11 -13 1 -30 6 -37 11 -7 6 -15 7
-19 3 -3 -3 -1 -6 6 -6 9 0 8 -4 -3 -15 -17 -17 -30 -20 -21 -5 3 6 2 10 -3
10 -4 0 -9 -27 -9 -60 0 -41 -6 -67 -17 -79 -9 -10 -16 -21 -16 -26 0 -4 11 4
25 19 15 16 32 25 40 22 11 -4 14 2 13 19 -3 28 -18 34 -18 8 -1 -15 -2 -16
-9 -3 -14 23 -2 70 15 63 8 -3 14 -2 13 3 -3 20 2 35 10 30 4 -3 7 -24 6 -46
-1 -22 2 -40 7 -40 5 0 9 12 8 28 -3 41 -1 66 6 60 10 -11 13 -138 2 -132 -6
4 -5 -2 1 -15 13 -24 26 -29 17 -6 -4 10 2 19 17 25 17 7 18 9 5 9 -10 1 -19
9 -19 19 -4 45 -3 57 6 57 5 0 10 -15 9 -32 0 -40 9 -34 12 7 1 16 -2 32 -7
36 -6 4 -6 11 1 19 8 9 7 14 -3 18 -7 2 -14 19 -15 37 -2 20 1 29 8 25 6 -3 7
-11 4 -17 -4 -7 -2 -8 4 -4 9 5 7 14 -5 31 -21 29 -35 32 -27 8 5 -15 3 -15
-10 1 -19 23 -20 31 -5 57 6 11 17 18 24 15 7 -2 16 1 18 8 6 16 -24 16 -35 1
-5 -6 -8 -5 -8 3 0 6 -5 12 -11 12 -8 0 -9 -4 0 -13 6 -8 8 -17 4 -20 -3 -4
-13 3 -21 14 -13 19 -16 20 -24 5 -14 -25 -29 -20 -19 7 8 20 6 23 -18 24 -14
0 -18 -1 -8 -4 9 -2 17 -12 16 -21 0 -11 -2 -13 -6 -4 -4 10 -8 10 -19 1 -12
-10 -14 -4 -13 34 2 35 6 44 18 42 9 -1 21 2 28 7 7 6 14 5 18 -2 4 -7 -2 -14
-14 -17 -12 -3 -21 -9 -21 -13 0 -9 20 -8 37 3 14 9 63 -9 63 -23 0 -15 30
-12 36 4 3 8 12 12 19 10 7 -3 15 -1 18 3 3 5 -7 10 -23 11 -23 2 -28 -1 -24
-13 4 -8 1 -15 -5 -15 -7 0 -14 7 -17 15 -4 8 -16 15 -27 15 -18 0 -19 2 -6
13 8 6 12 11 10 10 -10 -6 -30 20 -24 31 14 21 11 35 -7 33 -14 -1 -16 -5 -10
-17z"/>
<path d="M2891 1600 c-8 -4 -19 -7 -25 -6 -6 2 -8 1 -3 -1 16 -10 5 -35 -33
-70 -35 -34 -57 -74 -30 -58 6 4 7 12 4 18 -5 9 -3 9 6 0 11 -10 11 -15 -1
-29 -13 -16 -12 -17 11 -11 24 6 24 6 5 -9 l-20 -16 20 4 c16 2 19 -2 17 -19
-2 -13 2 -23 8 -23 6 0 8 5 4 12 -5 8 -2 9 9 5 10 -4 17 -1 17 5 0 21 12 0 14
-26 2 -14 -3 -31 -10 -37 -8 -6 -12 -15 -9 -19 3 -4 -2 -10 -10 -13 -9 -4 -12
-1 -9 7 4 10 -2 13 -19 12 -13 0 -24 -6 -24 -13 0 -6 7 -9 15 -5 10 3 13 1 8
-6 -4 -7 1 -10 14 -7 12 2 20 -1 20 -10 0 -8 -6 -12 -14 -9 -10 4 -14 -1 -13
-15 1 -12 4 -21 7 -21 12 0 7 -26 -7 -38 -10 -10 -13 -10 -13 4 0 13 -3 14
-14 5 -19 -16 -16 10 3 33 11 13 11 16 -2 16 -9 0 -18 8 -20 18 -4 13 -5 11
-6 -5 0 -13 4 -23 10 -23 8 0 8 -4 2 -12 -5 -7 -9 -18 -9 -24 1 -16 30 -41 43
-37 6 2 14 -1 18 -6 3 -6 1 -11 -4 -11 -6 0 -11 -10 -10 -22 0 -22 1 -22 10 2
8 20 12 22 19 10 5 -8 10 -10 10 -4 0 6 -7 17 -15 24 -20 17 -19 29 3 25 9 -1
16 -8 14 -16 -3 -10 0 -10 12 0 8 7 13 24 11 39 -1 15 1 34 6 43 5 10 4 16 -5
16 -7 0 -13 -10 -13 -21 -1 -45 -3 -57 -11 -52 -16 10 -5 79 15 94 13 11 14
13 2 9 -9 -3 -16 0 -16 7 0 8 9 11 22 8 15 -2 24 2 29 14 5 14 4 15 -9 4 -17
-14 -17 -13 -17 30 0 42 2 48 11 26 10 -27 37 -29 38 -2 1 11 -1 15 -4 9 -3
-7 -9 -13 -14 -13 -6 0 -7 5 -4 10 6 10 -7 14 -33 11 -7 -1 -11 4 -10 11 5 23
21 27 35 10 11 -16 12 -16 13 1 0 10 4 16 9 13 5 -3 9 6 9 21 0 21 -2 23 -10
10 -14 -26 -29 -21 -19 6 8 20 6 23 -18 24 -14 0 -18 -1 -8 -4 9 -2 17 -12 16
-21 0 -11 -2 -13 -6 -4 -4 10 -8 10 -19 1 -12 -10 -14 -4 -13 34 2 35 6 44 18
42 9 -1 21 2 28 7 7 6 14 5 18 -2 4 -7 -2 -14 -14 -17 -22 -6 -30 -23 -8 -19
24 3 35 16 35 42 0 18 -3 22 -9 13 -8 -14 -13 -5 -9 16 1 6 -2 7 -6 3 -4 -4
-12 -4 -18 2 -7 5 -18 5 -25 0z"/>
<path d="M1930 1483 c0 -14 -2 -15 -9 -4 -6 9 -10 10 -16 2 -3 -6 -21 -18 -38
-26 -26 -12 -27 -14 -7 -10 14 3 20 2 13 -1 -7 -3 -9 -12 -6 -20 3 -8 0 -14
-7 -14 -6 0 -8 5 -5 10 3 6 1 10 -4 10 -11 0 -14 -11 -12 -45 1 -18 0 -18 -12
3 -7 12 -16 19 -20 16 -4 -4 -7 -2 -7 4 0 7 -4 12 -10 12 -18 0 -11 -18 10
-25 11 -3 20 -13 20 -21 0 -20 -35 2 -49 31 -9 19 -10 18 -10 -6 -1 -26 -21
-33 -48 -16 -6 4 -14 0 -17 -9 -3 -8 -10 -13 -15 -9 -6 3 -9 -4 -8 -15 1 -20
2 -20 15 -3 10 14 14 15 21 4 7 -11 11 -10 20 5 6 12 11 14 11 5 0 -10 3 -11
14 -2 11 10 17 8 26 -6 11 -17 11 -17 6 0 -4 12 -2 17 6 15 17 -6 23 -37 9
-51 -8 -8 -14 -8 -23 1 -16 16 -78 16 -78 -1 0 -7 9 -13 20 -13 11 0 20 4 20
8 0 4 4 8 9 8 5 0 7 -9 4 -20 -3 -11 -10 -20 -16 -20 -6 0 -3 -6 8 -13 12 -9
15 -19 10 -28 -5 -8 -4 -11 1 -6 5 5 10 18 10 30 3 44 4 48 14 42 6 -3 10 -11
10 -16 0 -6 -4 -8 -9 -5 -4 3 -6 -6 -3 -19 4 -24 24 -25 21 -2 -4 33 2 46 19
41 14 -5 15 -4 2 5 -9 6 -10 11 -3 11 6 0 9 9 6 20 -3 11 0 20 6 20 6 0 11 -4
11 -10 0 -5 5 -10 11 -10 8 0 8 5 -1 15 -13 16 -3 20 15 7 17 -12 11 -37 -8
-34 -12 2 -17 -4 -17 -18 0 -12 5 -18 10 -15 6 4 7 12 3 18 -4 7 0 6 10 -2 9
-7 14 -17 11 -22 -3 -5 -2 -23 1 -40 5 -22 11 -29 22 -25 11 4 13 2 9 -9 -3
-8 -1 -15 5 -15 5 0 8 15 6 33 -2 18 0 42 4 52 7 20 8 20 9 0 1 -19 2 -18 10
3 5 12 18 22 29 22 11 0 22 4 25 9 5 8 -16 7 -61 -3 -29 -6 -30 15 -3 32 13 8
20 8 20 1 0 -5 5 -7 10 -4 6 4 8 10 5 15 -3 5 -1 11 4 14 5 4 13 1 17 -5 4 -8
3 -9 -4 -5 -8 5 -10 2 -6 -8 5 -12 9 -13 19 -3 8 7 9 16 4 23 -4 5 -6 19 -3
30 3 12 -3 24 -17 32 -11 8 -18 9 -14 3 3 -6 2 -11 -3 -11 -5 0 -7 -11 -5 -24
3 -13 1 -26 -4 -29 -5 -3 -10 6 -11 20 -1 15 -5 29 -8 32 -3 3 -4 -12 -3 -33
3 -27 -1 -41 -10 -44 -10 -3 -12 0 -8 11 3 9 2 19 -3 22 -11 7 -13 -6 -10 -42
1 -13 -3 -23 -9 -23 -6 0 -8 6 -5 14 7 18 -14 58 -27 51 -5 -4 -9 -1 -9 5 0 8
9 10 23 7 12 -4 29 -2 37 3 14 9 13 11 -9 14 -20 3 -21 15 -2 21 12 3 21 11
21 16 0 6 4 8 8 5 4 -2 9 6 10 20 1 13 0 24 -3 24 -3 0 -5 -8 -5 -17z"/>
<path d="M1649 1355 c-4 -5 -5 -25 -4 -43 l3 -32 -25 26 c-25 27 -37 25 -71
-16 -10 -13 -11 -12 -5 4 4 13 3 17 -5 12 -7 -4 -9 -31 -7 -71 2 -43 0 -63 -7
-59 -6 4 -5 -2 1 -15 13 -24 26 -29 17 -6 -8 21 20 31 39 15 9 -7 18 -10 22
-7 9 10 33 -13 33 -32 -1 -14 -2 -14 -14 2 -15 19 -31 24 -20 5 5 -8 2 -9 -9
-5 -10 3 -17 3 -17 -2 0 -4 -11 -6 -25 -3 -14 2 -25 0 -25 -7 0 -6 10 -10 23
-8 13 1 21 -3 20 -10 -2 -7 2 -13 8 -13 6 0 9 6 6 14 -3 8 2 16 14 19 10 3 19
1 19 -3 0 -5 9 -8 20 -7 11 1 20 4 20 8 0 4 14 13 31 21 l31 15 -32 5 c-22 3
-30 1 -26 -8 3 -8 1 -16 -4 -19 -6 -4 -10 -1 -10 6 0 6 -8 18 -17 26 -16 13
-16 14 -1 9 12 -4 15 -1 11 11 -4 11 -3 14 6 9 19 -12 9 25 -12 46 -10 10 -15
24 -11 30 5 7 10 4 15 -10 9 -24 21 -30 18 -9 -4 30 2 58 11 52 6 -3 10 -1 10
4 0 6 -4 11 -9 11 -5 0 -11 10 -13 23 -2 12 -6 18 -9 12z"/>
<path d="M1380 1115 c-9 -10 -9 -15 -1 -15 6 0 11 5 11 10 0 6 5 10 11 10 5 0
7 -4 4 -10 -4 -6 1 -7 11 -3 12 4 15 2 12 -8 -3 -8 -15 -13 -26 -13 -12 1 -22
-2 -22 -5 0 -9 -62 -7 -77 2 -16 10 -36 -1 -28 -14 4 -5 -1 -9 -9 -9 -9 0 -16
-4 -16 -9 0 -5 6 -8 13 -7 6 0 13 -3 15 -9 1 -5 -2 -10 -7 -10 -5 0 -12 -3
-16 -7 -4 -3 -18 -4 -32 -2 -14 3 -31 -1 -39 -7 -12 -10 -13 -9 -8 4 4 12 1
14 -15 10 -19 -5 -19 -6 -3 -21 9 -9 23 -23 30 -31 12 -14 13 -14 12 -1 -5 35
-1 43 15 30 12 -10 15 -10 15 1 0 11 2 11 9 0 10 -15 41 -25 40 -13 -4 26 5
31 11 7 5 -21 1 -40 -12 -63 -18 -34 -26 -61 -7 -30 5 9 15 16 22 14 6 -1 9
-1 5 1 -4 2 -4 11 -1 20 3 8 6 27 7 42 1 20 6 25 20 23 14 -3 17 1 12 12 -19
48 -19 51 -5 39 7 -7 18 -13 24 -13 5 0 4 4 -4 9 -9 6 -10 11 -2 15 16 10 26
-21 12 -38 -8 -10 -8 -16 2 -24 10 -8 13 -6 14 11 1 12 7 23 13 25 5 2 10 8
10 13 0 6 -4 7 -10 4 -5 -3 -10 -2 -10 3 0 12 28 24 33 14 2 -4 3 -24 2 -44
-1 -31 1 -35 12 -26 8 6 12 17 9 24 -2 6 4 14 15 17 14 4 19 1 16 -8 -4 -8 1
-11 13 -8 19 5 48 32 43 40 -2 1 -3 9 -2 16 0 6 4 4 8 -6 6 -17 8 -16 19 8 7
16 8 24 2 20 -6 -4 -22 1 -37 10 -17 11 -23 13 -17 4 5 -8 10 -22 11 -32 3
-15 -1 -17 -19 -11 -21 6 -21 6 -5 -10 22 -22 22 -29 0 -18 -10 5 -24 7 -32 4
-10 -3 -12 0 -8 12 5 11 3 15 -4 10 -7 -4 -10 -1 -7 7 3 8 16 13 32 11 30 -3
34 9 9 29 -17 13 -17 13 -3 -5 14 -18 13 -18 -10 -11 -14 4 -27 10 -30 14 -10
13 -38 11 -50 -4z"/>
<path d="M1422 839 c-9 -14 -10 -19 -2 -14 9 5 10 1 6 -13 -6 -17 -2 -19 31
-18 21 0 38 -3 38 -9 0 -5 -3 -9 -6 -8 -5 2 -4 -34 1 -47 1 -3 2 -8 1 -12 -2
-14 8 -9 29 15 14 14 19 16 15 6 -4 -10 -1 -20 6 -25 9 -5 10 -2 6 9 -3 10 -2
17 3 17 6 0 10 -5 10 -11 0 -5 4 -8 9 -4 5 3 12 1 15 -4 4 -5 1 -13 -5 -17 -8
-5 -9 -3 -4 5 6 10 3 11 -16 1 -31 -16 -39 -25 -16 -17 15 6 17 1 15 -28 -1
-19 1 -37 5 -41 4 -4 7 8 7 28 0 37 7 51 21 42 5 -3 4 -14 -1 -25 -8 -14 -7
-19 2 -19 10 0 10 -2 0 -9 -17 -10 -22 -42 -9 -58 6 -9 5 -13 -4 -13 -10 0
-10 -3 -2 -11 16 -16 83 -20 83 -5 0 6 5 4 10 -4 5 -8 10 -13 11 -10 0 3 2 13
4 23 2 13 -1 17 -11 13 -10 -4 -14 3 -14 29 0 19 4 35 10 35 5 0 9 -10 7 -21
-1 -12 5 -24 13 -27 11 -3 12 -2 4 8 -15 16 -5 53 12 46 8 -3 14 0 14 5 0 6
-9 9 -20 6 -11 -3 -22 -1 -25 4 -3 4 -13 5 -21 2 -10 -4 -17 2 -21 16 -3 13
-12 20 -22 19 -12 -2 -16 5 -15 30 1 17 -2 32 -8 32 -5 0 -6 -4 -3 -10 3 -5 1
-10 -4 -10 -22 0 -10 30 12 31 16 1 18 2 5 6 -10 2 -18 8 -18 13 0 13 -36 18
-54 8 -10 -6 -16 -5 -16 1 0 5 -12 8 -27 7 -37 -5 -47 2 -31 22 11 13 11 14
-2 7 -13 -8 -13 -7 -1 8 11 14 11 17 0 17 -8 0 -20 -9 -27 -21z"/>
<path d="M2613 535 c27 -16 29 -19 29 -55 0 -38 -2 -41 -16 -28 -10 9 -11 17
-4 25 15 19 2 44 -18 36 -13 -5 -15 -3 -9 7 5 9 4 11 -3 6 -12 -7 -11 -40 1
-52 14 -14 7 -26 -8 -14 -13 11 -14 10 -9 -4 4 -11 14 -15 28 -11 11 2 16 2 9
-1 -7 -3 -9 -12 -6 -20 3 -8 0 -14 -7 -14 -6 0 -8 5 -5 10 3 6 1 10 -4 10 -11
0 -14 -11 -12 -45 1 -18 0 -18 -12 3 -7 12 -16 19 -20 16 -4 -4 -7 -2 -7 4 0
7 -4 12 -10 12 -18 0 -11 -18 10 -25 11 -3 20 -13 20 -21 0 -12 -3 -12 -20 -2
-30 19 -36 49 -14 65 16 12 21 11 31 -4 12 -15 13 -15 13 -1 0 9 -5 20 -10 23
-6 4 -7 12 -3 18 4 7 8 21 10 32 1 11 -1 15 -3 8 -3 -7 -11 -11 -17 -9 -7 1
-9 1 -4 -1 4 -3 7 -12 6 -21 0 -12 -2 -13 -6 -4 -4 10 -9 9 -24 -4 -13 -12
-19 -31 -19 -59 0 -37 -2 -41 -22 -40 -15 1 -22 8 -20 19 2 11 -4 16 -18 16
-14 0 -19 4 -14 12 5 7 3 8 -6 3 -10 -6 -12 -4 -7 9 4 11 3 15 -4 11 -6 -4 -8
-13 -5 -21 3 -9 -2 -14 -14 -14 -11 0 -20 6 -20 13 0 19 -20 -15 -20 -35 0
-10 4 -18 10 -18 5 0 7 6 4 13 -3 10 4 14 24 15 27 1 29 -2 26 -36 -2 -34 -1
-35 12 -17 12 16 16 17 23 6 7 -11 11 -10 20 5 6 12 11 14 11 5 0 -10 3 -11
14 -2 11 10 17 8 26 -6 11 -17 11 -17 6 0 -4 12 -2 17 6 15 17 -6 23 -37 9
-51 -8 -8 -14 -8 -23 1 -16 16 -78 16 -78 -1 0 -7 9 -13 20 -13 11 0 20 4 20
8 0 4 4 8 9 8 5 0 7 -9 4 -20 -3 -11 -10 -20 -16 -20 -6 0 -3 -6 8 -13 12 -9
15 -19 10 -28 -5 -8 -4 -11 1 -6 5 5 10 18 10 30 3 44 4 48 14 42 6 -3 10 -11
10 -16 0 -6 -4 -8 -9 -5 -4 3 -6 -6 -3 -19 4 -24 24 -25 21 -2 -4 33 2 46 19
41 14 -5 15 -4 2 5 -9 6 -10 11 -3 11 6 0 9 9 6 20 -3 11 0 20 6 20 6 0 11 -4
11 -10 0 -5 5 -10 11 -10 8 0 8 5 -1 15 -13 16 -3 20 15 7 17 -12 11 -37 -8
-34 -12 2 -17 -4 -17 -18 0 -12 5 -18 10 -15 6 4 7 12 3 18 -4 7 0 6 10 -2 9
-7 14 -17 11 -22 -3 -5 -2 -23 1 -40 5 -22 11 -29 22 -25 11 4 13 2 9 -9 -3
-8 -1 -15 5 -15 5 0 8 15 6 33 -2 18 0 42 4 52 7 20 8 20 9 0 1 -19 2 -18 10
3 5 12 18 22 29 22 11 0 22 4 25 9 5 8 -16 7 -61 -3 -29 -6 -30 15 -3 32 13 8
20 8 20 1 0 -5 5 -7 10 -4 6 4 8 10 5 15 -3 5 -1 11 4 14 5 4 13 1 17 -5 4 -8
3 -9 -4 -5 -8 5 -10 2 -6 -8 5 -12 9 -13 19 -3 8 7 9 16 4 23 -4 5 -6 19 -3
30 3 12 -3 24 -17 32 -11 8 -18 9 -14 3 3 -6 2 -11 -3 -11 -5 0 -7 -11 -5 -24
3 -13 1 -26 -4 -29 -5 -3 -10 6 -11 20 -1 15 -5 29 -8 32 -3 3 -4 -12 -3 -33
3 -27 -1 -41 -10 -44 -10 -3 -12 0 -8 11 3 9 2 19 -3 22 -11 7 -13 -6 -10 -42
1 -13 -3 -23 -9 -23 -6 0 -8 6 -5 14 7 18 -14 58 -27 51 -5 -4 -9 -1 -9 5 0 8
9 10 23 7 12 -4 29 -2 37 3 14 9 13 11 -9 14 -20 3 -21 15 -2 21 12 3 21 11
21 16 0 6 4 8 8 5 14 -8 11 36 -4 58 -7 11 -14 16 -14 11 0 -6 -6 -3 -13 5 -7
8 -21 16 -32 18 -15 2 -13 -1 8 -13z"/>
<path d="M2082 514 c-18 -12 -21 -19 -11 -30 9 -11 8 -18 -2 -31 -13 -15 -11
-16 11 -10 24 6 24 6 5 -9 l-20 -16 20 4 c16 2 19 -2 17 -19 -2 -13 2 -23 8
-23 6 0 8 5 4 12 -5 8 -2 9 9 5 10 -4 17 -1 17 5 0 21 12 0 14 -26 2 -14 -3
-31 -10 -37 -8 -6 -12 -15 -9 -19 3 -4 -2 -10 -10 -13 -9 -4 -12 -1 -9 7 4 10
-2 13 -19 12 -13 0 -24 -6 -24 -13 0 -6 7 -9 15 -5 10 3 13 1 8 -6 -4 -7 1
-10 14 -7 12 2 20 -1 20 -10 0 -8 -6 -12 -14 -9 -10 4 -14 -1 -13 -15 1 -12 4
-21 7 -21 12 0 7 -26 -7 -38 -10 -10 -13 -9 -13 5 0 12 -3 14 -11 6 -6 -6 -18
-9 -25 -6 -8 3 -14 -1 -14 -8 0 -8 -5 -6 -13 5 -11 15 -17 17 -33 7 -19 -11
-19 -11 0 -9 12 2 24 -6 31 -20 l12 -22 9 21 c9 19 12 20 25 7 8 -8 19 -13 26
-11 6 2 14 -1 18 -6 3 -6 1 -11 -4 -11 -6 0 -11 -10 -10 -22 0 -22 1 -22 10 2
8 20 12 22 19 10 5 -8 10 -10 10 -4 0 6 -7 17 -15 24 -20 17 -19 29 3 25 9 -1
16 -8 14 -16 -3 -10 0 -10 12 0 8 7 13 24 11 39 -1 15 1 34 6 43 5 10 4 16 -5
16 -7 0 -13 -10 -13 -21 -1 -45 -3 -57 -11 -52 -16 10 -5 79 15 94 13 11 14
13 2 9 -9 -3 -16 0 -16 7 0 8 9 11 22 8 15 -2 24 2 29 14 5 14 4 15 -9 4 -17
-14 -17 -13 -17 30 0 42 2 48 11 26 4 -11 18 -21 32 -22 l24 -4 -23 13 c-12 7
-19 16 -16 20 7 7 -10 11 -34 8 -7 -1 -11 4 -10 11 5 23 21 27 35 10 10 -15
12 -15 13 -2 0 9 9 16 20 16 19 0 24 -16 21 -66 0 -10 1 -11 5 -2 8 18 24 4
24 -22 0 -12 5 -27 11 -33 9 -9 6 -12 -12 -11 -13 1 -30 6 -37 11 -7 6 -15 7
-19 3 -3 -3 -1 -6 6 -6 9 0 8 -4 -3 -15 -17 -17 -30 -20 -21 -5 3 6 2 10 -3
10 -4 0 -9 -27 -9 -60 0 -41 -6 -67 -17 -79 -9 -10 -16 -21 -16 -26 0 -4 11 4
25 19 15 16 32 25 40 22 11 -4 14 2 13 19 -3 28 -18 34 -18 8 -1 -15 -2 -16
-9 -3 -14 23 -2 70 15 63 8 -3 14 -2 13 3 -3 20 2 35 10 30 4 -3 7 -24 6 -46
-1 -22 2 -40 7 -40 5 0 9 12 8 28 -3 41 -1 66 6 60 10 -11 13 -138 2 -132 -6
4 -5 -2 1 -15 13 -24 26 -29 17 -6 -8 21 20 31 39 15 9 -7 18 -10 22 -7 9 10
33 -13 33 -32 -1 -14 -2 -14 -14 2 -15 19 -31 24 -20 5 5 -8 2 -9 -9 -5 -10 3
-17 3 -17 -2 0 -4 -11 -6 -25 -3 -14 2 -25 0 -25 -7 0 -6 10 -10 23 -8 13 1
21 -3 19 -10 -1 -7 3 -13 9 -13 6 0 9 6 6 14 -3 8 2 16 14 19 10 3 19 1 19 -5
0 -6 6 -8 13 -5 7 3 13 -5 13 -19 1 -14 -2 -21 -8 -18 -7 4 -7 0 0 -12 5 -11
8 -29 6 -41 -2 -13 0 -23 5 -23 5 0 8 34 7 75 -1 61 -5 78 -21 91 -16 12 -17
15 -3 10 12 -4 15 -1 11 11 -4 11 -3 14 6 9 19 -12 9 25 -12 46 -10 10 -15 24
-11 30 5 7 10 4 15 -10 9 -24 21 -30 18 -9 -4 30 2 58 11 52 6 -3 10 -1 10 4
0 6 -4 11 -10 11 -5 0 -10 14 -10 30 0 29 -13 40 -25 21 -4 -8 -45 -12 -45 -5
0 2 5 15 10 29 9 24 8 26 -6 21 -11 -4 -22 1 -31 14 -8 11 -20 20 -26 19 -9 0
-8 -2 1 -6 6 -2 9 -10 6 -15 -4 -7 -2 -8 4 -4 8 5 12 0 12 -13 0 -14 5 -19 15
-15 11 5 13 2 9 -10 -3 -9 -9 -14 -13 -11 -4 2 -8 -2 -8 -9 0 -8 7 -12 15 -8
9 3 13 1 9 -4 -3 -6 5 -10 19 -9 14 0 28 6 32 12 5 7 8 -7 8 -31 l-1 -44 -23
25 c-18 20 -26 22 -37 13 -20 -17 -32 -5 -33 32 0 52 -1 58 -12 58 -5 0 -7 -8
-4 -17 5 -15 3 -15 -11 2 -10 12 -14 29 -10 43 4 15 2 21 -5 17 -5 -3 -10 -2
-10 4 0 6 -7 7 -17 4 -12 -5 -14 -3 -8 8 6 11 5 12 -6 2 -20 -19 -28 -16 -23
10 4 20 4 21 -5 2 -6 -11 -10 -14 -10 -6 -1 11 -4 11 -16 1 -13 -11 -15 -8
-15 15 0 30 -10 29 -14 -2 -2 -10 1 -21 6 -24 5 -3 0 -9 -12 -12 -16 -4 -23 0
-29 16 -5 12 -6 26 -3 32 3 5 9 -1 12 -15 3 -14 8 -20 11 -15 3 6 3 20 0 33
-6 21 -7 22 -29 6z"/>
<path d="M2822 514 c-18 -12 -21 -19 -11 -30 9 -11 8 -18 -2 -31 -13 -15 -11
-16 11 -10 24 6 24 6 5 -9 l-20 -16 20 4 c16 2 19 -2 17 -19 -2 -13 2 -23 8
-23 6 0 8 5 4 12 -5 8 -2 9 9 5 10 -4 17 -1 17 5 0 21 12 0 14 -26 2 -14 -3
-31 -10 -37 -8 -6 -12 -15 -9 -19 3 -4 -2 -10 -10 -13 -9 -4 -12 -1 -9 7 4 10
-2 13 -19 12 -13 0 -24 -6 -24 -13 0 -6 7 -9 15 -5 10 3 13 1 8 -6 -4 -7 1
-10 14 -7 12 2 20 -1 20 -10 0 -8 -6 -12 -14 -9 -10 4 -14 -1 -13 -15 1 -12 4
-21 7 -21 12 0 7 -26 -7 -38 -10 -10 -13 -9 -13 5 0 12 -3 14 -11 6 -6 -6 -18
-9 -25 -6 -8 3 -14 -1 -14 -8 0 -8 -5 -6 -13 5 -11 15 -17 17 -33 7 -19 -11
-19 -11 0 -9 12 2 24 -6 31 -20 l12 -22 9 21 c9 19 12 20 25 7 8 -8 19 -13 26
-11 6 2 14 -1 18 -6 3 -6 1 -11 -4 -11 -6 0 -11 -10 -10 -22 0 -22 1 -22 10 2
8 20 12 22 19 10 5 -8 10 -10 10 -4 0 6 -7 17 -15 24 -20 17 -19 29 3 25 9 -1
16 -8 14 -16 -3 -10 0 -10 12 0 8 7 13 24 11 39 -1 15 1 34 6 43 5 10 4 16 -5
16 -7 0 -13 -10 -13 -21 -1 -45 -3 -57 -11 -52 -16 10 -5 79 15 94 13 11 14
13 2 9 -9 -3 -16 0 -16 7 0 8 9 11 22 8 15 -2 24 2 29 14 5 14 4 15 -9 4 -17
-14 -17 -13 -17 30 0 42 2 48 11 26 10 -27 37 -29 38 -2 1 11 -1 15 -4 9 -3
-7 -9 -13 -14 -13 -6 0 -7 5 -4 10 6 10 -7 14 -33 11 -7 -1 -11 4 -10 11 5 23
21 27 35 10 11 -16 12 -16 13 1 0 10 4 16 9 13 5 -3 9 6 9 21 0 21 -2 23 -10
10 -14 -26 -29 -21 -19 6 8 20 6 23 -18 24 -14 0 -18 -1 -8 -4 9 -2 17 -12 16
-21 0 -11 -2 -13 -6 -4 -4 10 -8 10 -19 1 -12 -9 -14 -6 -14 21 0 38 -7 37
-14 -2 -2 -15 0 -28 7 -31 6 -2 1 -6 -11 -9 -18 -5 -25 -1 -31 15 -5 12 -6 26
-3 32 3 5 9 -1 12 -15 3 -14 8 -20 11 -15 3 6 3 20 0 33 -6 21 -7 22 -29 6z"/>
</g>
</svg>
