<svg width="40" height="40" viewBox="0 0 40 40" fill="none" xmlns="http://www.w3.org/2000/svg">
<circle cx="20" cy="20" r="20" fill="white"/>
<g clip-path="url(#clip0)">
<path d="M28.317 12.6551C26.7873 11.9532 25.147 11.4361 23.4319 11.1399C23.4007 11.1342 23.3695 11.1485 23.3534 11.1771C23.1424 11.5523 22.9087 12.0418 22.7451 12.4265C20.9004 12.1503 19.0652 12.1503 17.2583 12.4265C17.0946 12.0332 16.8525 11.5523 16.6406 11.1771C16.6245 11.1494 16.5933 11.1352 16.562 11.1399C14.8479 11.4351 13.2076 11.9523 11.6769 12.6551C11.6637 12.6608 11.6523 12.6703 11.6448 12.6827C8.53339 17.3311 7.68105 21.8652 8.09918 26.3431C8.10107 26.365 8.11337 26.3859 8.1304 26.3992C10.1832 27.9068 12.1717 28.822 14.1233 29.4286C14.1545 29.4381 14.1876 29.4267 14.2075 29.401C14.6691 28.7706 15.0806 28.1058 15.4335 27.4068C15.4543 27.3659 15.4344 27.3173 15.3919 27.3011C14.7391 27.0535 14.1176 26.7516 13.5197 26.4088C13.4724 26.3812 13.4687 26.3135 13.5122 26.2811C13.638 26.1869 13.7638 26.0888 13.884 25.9897C13.9057 25.9716 13.936 25.9678 13.9615 25.9792C17.8893 27.7725 22.1415 27.7725 26.023 25.9792C26.0485 25.9669 26.0788 25.9707 26.1015 25.9888C26.2216 26.0878 26.3475 26.1869 26.4742 26.2811C26.5177 26.3135 26.5149 26.3812 26.4676 26.4088C25.8697 26.7583 25.2482 27.0535 24.5945 27.3002C24.552 27.3163 24.533 27.3659 24.5538 27.4068C24.9143 28.1049 25.3258 28.7696 25.7789 29.4001C25.7978 29.4267 25.8319 29.4381 25.8631 29.4286C27.8241 28.822 29.8126 27.9068 31.8654 26.3992C31.8834 26.3859 31.8948 26.3659 31.8967 26.344C32.3971 21.1671 31.0585 16.6701 28.3482 12.6836C28.3416 12.6703 28.3303 12.6608 28.317 12.6551ZM16.02 23.6165C14.8375 23.6165 13.8631 22.5308 13.8631 21.1976C13.8631 19.8643 14.8186 18.7786 16.02 18.7786C17.2309 18.7786 18.1958 19.8738 18.1769 21.1976C18.1769 22.5308 17.2214 23.6165 16.02 23.6165ZM23.9947 23.6165C22.8123 23.6165 21.8379 22.5308 21.8379 21.1976C21.8379 19.8643 22.7933 18.7786 23.9947 18.7786C25.2056 18.7786 26.1705 19.8738 26.1516 21.1976C26.1516 22.5308 25.2056 23.6165 23.9947 23.6165Z" fill="#121212"/>
</g>
<defs>
<clipPath id="clip0">
<rect width="24" height="18.5915" fill="white" transform="translate(8 11)"/>
</clipPath>
</defs>
</svg>
