<svg width="1200" height="1200" viewBox="0 0 1200 1200" fill="none" xmlns="http://www.w3.org/2000/svg">
<path d="M600 1200C931.371 1200 1200 931.371 1200 600C1200 268.629 931.371 0 600 0C268.629 0 0 268.629 0 600C0 931.371 268.629 1200 600 1200Z" fill="#ECEFF0"/>
<path d="M618.677 150V482.625L899.814 608.25L618.677 150Z" fill="#303131"/>
<path d="M618.675 150L337.5 608.25L618.675 482.625V150Z" fill="#828384"/>
<path d="M618.677 823.809V1049.82L900.002 660.609L618.677 823.809Z" fill="#303131"/>
<path d="M618.675 1049.82V823.771L337.5 660.609L618.675 1049.82Z" fill="#828384"/>
<path d="M618.677 771.489L899.814 608.252L618.677 482.702V771.489Z" fill="#131313"/>
<path d="M337.5 608.252L618.675 771.489V482.702L337.5 608.252Z" fill="#303131"/>
</svg>
