<svg width="40" height="40" viewBox="0 0 40 40" fill="none" xmlns="http://www.w3.org/2000/svg">
<path fill-rule="evenodd" clip-rule="evenodd" d="M20.0254 0.0753815C15.2715 0.0704381 10.6712 1.7977 7.04896 4.94765C3.42673 8.09759 1.01929 12.4643 0.258131 17.2653C-0.503033 22.0662 0.431816 26.9876 2.89513 31.1474C5.35844 35.3073 9.18921 38.4337 13.7009 39.9664C14.6957 40.1548 15.0641 39.514 15.0641 38.9738C15.0641 38.4335 15.0641 37.2023 15.0641 35.4935C9.50099 36.75 8.32205 32.7546 8.32205 32.7546C7.95136 31.5163 7.16384 30.4524 6.09927 29.7518C4.29403 28.4953 6.24663 28.4953 6.24663 28.4953C6.87944 28.5868 7.48361 28.8244 8.0134 29.1901C8.54319 29.5558 8.98471 30.04 9.30449 30.6061C9.57622 31.1102 9.94254 31.5544 10.3825 31.9133C10.8224 32.2721 11.3273 32.5386 11.8681 32.6973C12.4089 32.8561 12.9751 32.904 13.5341 32.8384C14.0931 32.7728 14.6339 32.5948 15.1255 32.3148C15.2025 31.2812 15.6381 30.3099 16.3535 29.5759C11.908 29.0607 7.24135 27.3018 7.24135 19.4618C7.21083 17.4301 7.94512 15.4643 9.2922 13.9713C8.69103 12.205 8.76118 10.272 9.4887 8.55614C9.4887 8.55614 11.1711 8.0033 14.9904 10.6543C18.27 9.73307 21.7317 9.73307 25.0113 10.6543C28.8306 8.0033 30.5007 8.55614 30.5007 8.55614C31.2359 10.2695 31.3104 12.204 30.7095 13.9713C32.0566 15.4643 32.7909 17.4301 32.7604 19.4618C32.7604 27.3269 28.0815 29.0482 23.6236 29.513C24.1016 30.0046 24.4707 30.5956 24.7059 31.246C24.9411 31.8963 25.0369 32.5907 24.9868 33.2823C24.9868 36.0212 24.9868 38.2325 24.9868 38.8984C24.9868 39.5643 25.3429 40.0794 26.3622 39.891C30.8597 38.3438 34.6738 35.2124 37.1242 31.0554C39.5746 26.8983 40.5019 21.9858 39.7407 17.1942C38.9796 12.4025 36.5794 8.04337 32.9684 4.89412C29.3574 1.74487 24.7704 0.0103757 20.0254 0V0.0753815Z" fill="white"/>
</svg>
