<svg width="154" height="40" viewBox="0 0 154 40" fill="none" xmlns="http://www.w3.org/2000/svg">
<path fill-rule="evenodd" clip-rule="evenodd" d="M34.2985 20.0724L39.8568 25.7304L30.7507 35L28.408 32.6789L35.234 25.7304L32.0192 22.4579L24.1092 30.5099V34.7691H20.9541V30.655L12.7984 22.3529L9.62276 25.5855L16.5525 32.6397L14.2099 34.9608L5 25.5855L10.5582 19.9276L5 14.2696L14.1061 5L16.4487 7.32109L9.62276 14.2696L12.8375 17.542L20.9541 9.27973V5.2311H24.1092V9.55518L32.0584 17.647L35.234 14.4144L28.3042 7.36023L30.6468 5.03913L39.8567 14.4144L34.2985 20.0724ZM29.7791 20.0326L22.4604 27.4827L15.0776 19.9674L22.3964 12.5173L29.7791 20.0326ZM54.9831 12.316H51.8391V28.1458H54.9831V12.316ZM67.4571 18.4499C68.1387 17.1087 69.5018 16.4932 70.9309 16.4932C73.2174 16.4932 75.3501 17.9442 75.3501 21.1102V28.1677H72.25V21.7257C72.25 20.0108 71.4366 19.2413 70.1833 19.2413C68.9742 19.2413 68.0507 20.0329 68.0068 21.8137V28.1456H65.0386V21.8797C65.0386 20.0108 64.2032 19.2413 62.972 19.2413C61.6748 19.2413 60.7954 20.0548 60.7954 21.7478V28.1456H57.7174V16.7129H60.5756L60.9053 17.9662C61.455 17.0208 62.5104 16.4932 63.8954 16.4932C65.4344 16.4932 66.7535 17.1087 67.4571 18.4499ZM91.0058 16.4932C89.5768 16.4932 88.2137 17.1087 87.5321 18.4499C86.8285 17.1087 85.5094 16.4932 83.9704 16.4932C82.5852 16.4932 81.53 17.0208 80.9803 17.9662L80.6505 16.7129H77.7923V28.1456H80.8703V21.7478C80.8703 20.0548 81.7498 19.2413 83.0469 19.2413C84.2782 19.2413 85.1136 20.0108 85.1136 21.8797V28.1456H88.0818V21.8137C88.1257 20.0329 89.0491 19.2413 90.2584 19.2413C91.5116 19.2413 92.3251 20.0108 92.3251 21.7257V28.1677H95.425V21.1102C95.425 17.9442 93.2924 16.4932 91.0058 16.4932ZM105.365 22.9792V16.7132H108.289V28.1458H105.474L105.321 26.8927C104.727 27.7502 103.738 28.3657 102.374 28.3657C99.4503 28.3657 97.7574 26.4309 97.7574 23.5069V16.7132H100.682V23.1111C100.682 24.8919 101.605 25.7494 103.056 25.7054C104.573 25.6835 105.365 24.672 105.365 22.9792ZM117.322 16.4932C115.607 16.4932 114.463 17.1308 113.87 18.0762L113.694 16.7129H110.836V28.1456H113.914V22.0996C113.914 20.2527 114.793 19.1314 116.42 19.1314C117.915 19.1314 118.817 20.0988 118.817 21.9896V28.1456H121.917V21.352C121.917 18.4278 120.246 16.4932 117.322 16.4932ZM129.705 16.4932C133.112 16.4932 135.377 18.7577 135.377 22.2534V23.2647H127.11C127.155 24.9577 128.342 25.9031 129.815 25.9031C130.936 25.9031 131.837 25.3973 132.19 24.4081H135.289C134.784 26.7825 132.607 28.3875 129.727 28.3875C126.297 28.3875 124.011 26.013 124.011 22.4293C124.011 18.8676 126.297 16.4932 129.705 16.4932ZM132.3 21.2421C132.168 19.6591 131.047 18.8896 129.705 18.8896C128.386 18.8896 127.265 19.6591 127.133 21.2421H132.3ZM136.579 16.7132V19.3955H138.338V28.1458H141.438V19.3955H144.055V16.7132H141.438V15.548C141.438 14.7345 141.658 14.1189 142.912 14.1189H144.055V11.6125H142.23C139.349 11.6125 138.338 13.0196 138.338 15.2402V16.7132H136.579ZM149.209 14.9543H146.088L146.131 11.6125H149.254L149.209 14.9543ZM149.209 28.1458H146.131V16.7132H149.209V28.1458Z" fill="white"/>
</svg>
