<svg width="137" height="16" viewBox="0 0 137 16" fill="none" xmlns="http://www.w3.org/2000/svg">
<g clip-path="url(#clip0)">
<path d="M132.99 15.2781C131.374 15.2781 129.804 14.6964 128.529 13.6493L129.804 11.6249C130.327 12.0205 130.896 12.3462 131.511 12.5789C132.011 12.7883 132.558 12.9047 133.081 12.9047C133.4 12.928 133.719 12.8581 133.992 12.6953C134.174 12.5789 134.288 12.3462 134.288 12.1136C134.288 11.9507 134.219 11.8111 134.106 11.6947C133.969 11.5551 133.81 11.462 133.628 11.369C133.4 11.2759 133.172 11.1828 132.945 11.113L132.125 10.8338C131.761 10.7175 131.397 10.6011 131.033 10.4382C130.668 10.2986 130.327 10.0892 130.031 9.83326C129.735 9.5773 129.485 9.25154 129.303 8.87925C129.098 8.46042 129.007 7.99505 129.03 7.52968C129.007 6.55241 129.417 5.5984 130.145 4.97015C130.509 4.66767 130.919 4.43498 131.351 4.29537C131.829 4.15576 132.33 4.06268 132.831 4.08595C133.514 4.08595 134.197 4.2023 134.834 4.41171C135.494 4.6444 136.109 4.97015 136.678 5.36571L135.54 7.48314C135.062 7.18065 134.561 6.94797 134.015 6.73856C133.605 6.57568 133.15 6.4826 132.717 6.45933C132.421 6.43606 132.148 6.50587 131.898 6.66875C131.716 6.78509 131.624 6.99451 131.624 7.20393C131.624 7.34354 131.693 7.50641 131.807 7.59948C131.943 7.7391 132.103 7.83217 132.285 7.92524C132.512 8.04158 132.717 8.13466 132.945 8.22774L133.741 8.50695C134.106 8.62329 134.47 8.76291 134.857 8.94906C135.221 9.11194 135.562 9.32135 135.858 9.5773C136.154 9.80999 136.405 10.1125 136.587 10.4615C136.792 10.8571 136.883 11.2992 136.883 11.7413C136.928 12.2764 136.837 12.8349 136.632 13.3468C136.45 13.7656 136.154 14.1379 135.79 14.4171C135.403 14.7196 134.971 14.929 134.515 15.0687C134.037 15.2315 133.514 15.3013 132.99 15.2781ZM122.429 15.3246C121.7 15.3246 120.949 15.185 120.266 14.929C119.629 14.6731 119.037 14.2775 118.536 13.7656C118.035 13.2537 117.648 12.6487 117.398 11.9972C117.125 11.2759 116.988 10.508 116.988 9.71691C116.988 8.97232 117.102 8.22774 117.375 7.52968C117.603 6.87817 117.922 6.27319 118.377 5.76128C119.333 4.69093 120.653 4.08595 122.042 4.10922C122.815 4.08595 123.589 4.24883 124.295 4.59786C124.91 4.90035 125.456 5.34245 125.866 5.90089C126.298 6.45933 126.594 7.11085 126.776 7.8089C126.981 8.53022 127.072 9.27481 127.072 10.0194C127.072 10.1357 127.072 10.2754 127.072 10.3917C127.072 10.508 127.072 10.6709 127.072 10.8105H119.834C119.947 11.4388 120.266 11.9972 120.744 12.3928C121.222 12.7651 121.814 12.9512 122.406 12.928C122.861 12.928 123.316 12.8349 123.726 12.6487C124.158 12.4393 124.568 12.1368 124.932 11.7878L126.617 13.3235C126.139 13.9518 125.524 14.4637 124.819 14.8127C124.067 15.185 123.225 15.3711 122.406 15.3479L122.429 15.3246ZM123.999 8.39061C123.931 7.76236 123.703 7.18066 123.293 6.71529C122.907 6.27319 122.36 6.0405 121.791 6.06377C121.222 6.0405 120.676 6.27319 120.289 6.69202C119.879 7.15739 119.629 7.7391 119.538 8.36735L123.999 8.39061ZM109.317 4.31863H112.254V6.50587C112.504 5.80782 112.937 5.20284 113.483 4.73747C114.075 4.2721 114.826 4.06268 115.577 4.13249V7.34353H115.418C114.553 7.29699 113.711 7.64602 113.096 8.29754C112.481 9.11193 112.186 10.1357 112.254 11.1596V15.1617H109.317V4.31863ZM100.645 15.1385C99.6663 15.2083 98.7102 14.8127 98.0501 14.0681C97.39 13.2305 97.0714 12.1834 97.1396 11.113V4.10922H100.099V10.1357C100.053 10.7175 100.213 11.2992 100.577 11.7878C100.918 12.1601 101.396 12.3695 101.897 12.3462C102.398 12.3695 102.898 12.1601 103.24 11.7878C103.604 11.3224 103.786 10.7407 103.741 10.1357V4.10922H106.7V14.9523H103.718V13.3933C103.559 13.626 103.354 13.8354 103.172 14.0448C102.967 14.2543 102.739 14.4404 102.512 14.6033C101.92 14.9756 101.282 15.1617 100.645 15.1385ZM92.4279 15.3013C92.0181 15.3013 91.6084 15.2548 91.1987 15.1385C90.8573 15.0454 90.5386 14.8592 90.2882 14.6033C90.0151 14.3473 89.8102 14.0216 89.6736 13.6493C89.5143 13.1374 89.446 12.6022 89.446 12.0903V6.90143H88.1713V4.2721H89.4005V1.50316H92.3823V4.2721H94.8407V6.90143H92.3823V11.5551C92.3823 12.2532 92.6782 12.6022 93.2928 12.6022C93.7936 12.6022 94.3171 12.4626 94.7496 12.2066V14.6731C94.0212 15.0919 93.2245 15.3013 92.4279 15.3013ZM77.2682 4.31863H80.2045V5.87762C80.3638 5.64494 80.5687 5.43552 80.7508 5.22611C80.9557 5.01669 81.1833 4.83054 81.4109 4.66766C81.9572 4.29537 82.5945 4.13249 83.2547 4.13249C84.2334 4.06268 85.1894 4.45825 85.8723 5.20284C86.5324 6.0405 86.8511 7.08758 86.7828 8.15793V15.185H83.8237V9.15847C83.8692 8.57676 83.6871 7.99505 83.3457 7.50641C83.0043 7.13412 82.5263 6.9247 82.0255 6.94797C81.5247 6.9247 81.024 7.13412 80.6825 7.50641C80.3183 7.97178 80.1362 8.55349 80.1817 9.15847V15.185H77.2454L77.2682 4.31863ZM69.8477 15.3944C69.1193 15.3944 68.3681 15.2548 67.6853 14.9989C67.0479 14.7429 66.4561 14.3473 65.9553 13.8354C65.4773 13.3235 65.0904 12.7185 64.84 12.067C64.5668 11.3457 64.4303 10.5778 64.4303 9.78672C64.4303 9.01886 64.5668 8.27427 64.84 7.55295C65.0676 6.90144 65.409 6.29645 65.8643 5.76128C66.8203 4.69093 68.1405 4.08595 69.529 4.10922C70.3029 4.08595 71.0768 4.24883 71.7825 4.59786C72.3971 4.90035 72.9433 5.34245 73.3531 5.90089C73.7855 6.45933 74.0815 7.11085 74.2636 7.8089C74.4684 8.53022 74.5595 9.27481 74.5595 10.0194C74.5595 10.1357 74.5595 10.2754 74.5595 10.3917C74.5595 10.508 74.5595 10.6709 74.5595 10.8105H67.3438C67.4576 11.4388 67.7763 11.9972 68.2543 12.3928C68.7323 12.7651 69.3241 12.9512 69.916 12.928C70.3712 12.928 70.8265 12.8349 71.2362 12.6487C71.6687 12.4393 72.0784 12.1368 72.4426 11.7878L74.127 13.3468C73.649 13.975 73.0344 14.4869 72.3288 14.836C71.5776 15.2548 70.7126 15.4177 69.8477 15.3944ZM72.0784 8.39061C72.0101 7.76236 71.7825 7.18066 71.3728 6.71529C70.9858 6.27319 70.4395 6.0405 69.8704 6.06377C69.3014 6.0405 68.7551 6.27319 68.3681 6.69202C67.9584 7.15739 67.708 7.7391 67.617 8.36735L72.0784 8.39061ZM49.7031 0.828369H53.0036L56.5545 10.8105L60.1054 0.828369H63.3377L57.8064 15.0919H55.1888L49.7031 0.828369Z" fill="white"/>
<path d="M20.9998 14.836H13.1696V5.48206L17.0392 11.5784H17.1302L21.0453 5.41225V14.836H20.9998ZM36.9106 0.828369H45.7424V15.2315H36.8651C39.0503 14.6731 40.8485 13.0676 41.7362 10.9269C42.1004 10.0194 42.2825 9.04213 42.2825 8.06485C42.2825 7.08758 42.1004 6.11031 41.7362 5.20284C41.3948 4.2721 40.8713 3.45771 40.2112 2.75965C39.5511 2.08487 38.7772 1.57296 37.9122 1.20067C37.5935 1.03779 37.2521 0.921443 36.9106 0.828369ZM24.05 0.828369H32.9045C30.7193 1.38681 28.9211 2.99233 28.0334 5.13303C27.6692 6.0405 27.4871 7.01778 27.4871 7.99505C27.4871 8.97232 27.6692 9.9496 28.0334 10.8571C28.3748 11.7645 28.8983 12.6022 29.5584 13.3003C30.2185 13.975 31.0152 14.5102 31.8802 14.8825C32.1989 15.0221 32.5175 15.1385 32.859 15.2315H24.05V0.828369ZM13.8069 0.828369H21.0909L17.4034 6.9247L13.8069 0.828369ZM6.75063 0.828369H10.2105V15.2315H6.75063V0.828369ZM35.249 12.5091C35.8181 12.5091 36.4099 12.3928 36.9334 12.1601C37.4342 11.9507 37.8894 11.6249 38.2536 11.2061C38.6406 10.7873 38.9365 10.2986 39.1641 9.76345C39.369 9.20501 39.4828 8.6233 39.46 8.01832C39.46 7.41334 39.369 6.78509 39.1641 6.22665C38.7772 5.1563 37.9805 4.2721 36.9562 3.80673C36.4326 3.57405 35.8636 3.43444 35.2718 3.43444C34.6799 3.43444 34.1109 3.55078 33.5874 3.78346C33.0866 3.99288 32.6541 4.31864 32.2899 4.73747C31.9257 5.1563 31.6298 5.64493 31.4249 6.18011C31.2201 6.73855 31.1063 7.32026 31.129 7.92524C31.129 8.53022 31.2201 9.11193 31.4249 9.67037C31.8119 10.7407 32.6086 11.6249 33.6101 12.0903C34.1109 12.3462 34.6799 12.4859 35.249 12.5091ZM0.331665 0.828369H3.79153V15.2315H0.331665V0.828369Z" fill="#2490EA"/>
</g>
<defs>
<clipPath id="clip0">
<rect width="136.453" height="14.3801" fill="white" transform="translate(0.361328 0.875)"/>
</clipPath>
</defs>
</svg>
