<svg width="48" height="40" viewBox="0 0 48 40" fill="none" xmlns="http://www.w3.org/2000/svg">
<g clip-path="url(#clip0)">
<path fill-rule="evenodd" clip-rule="evenodd" d="M8.90936 11.8405C9.35692 11.6647 9.76336 11.3891 10.1011 11.0323C10.439 10.6756 10.7001 10.246 10.8669 9.77299C10.602 9.25924 10.5015 8.6686 10.5805 8.08942C10.6594 7.51024 10.9135 6.97365 11.3047 6.55988C11.6959 6.14611 12.2033 5.87744 12.751 5.79396C13.2986 5.71053 13.8571 5.8168 14.3428 6.09689C14.793 5.92806 15.2002 5.65168 15.5329 5.28928C15.8755 4.93685 16.1368 4.50574 16.2965 4.02936C16.0836 3.61691 15.9759 3.15297 15.9839 2.68313C15.9918 2.2133 16.1152 1.75374 16.342 1.34962C16.5687 0.94551 16.891 0.610742 17.2771 0.378223C17.6632 0.145705 18.0999 0.0234375 18.5443 0.0234375C18.9886 0.0234375 19.4253 0.145705 19.8114 0.378223C20.1975 0.610742 20.5198 0.94551 20.7465 1.34962C20.9733 1.75374 21.0967 2.2133 21.1047 2.68313C21.1126 3.15297 21.0049 3.61691 20.792 4.02936C20.9521 4.50557 21.2133 4.93661 21.5556 5.28928C21.889 5.65144 22.2966 5.92778 22.747 6.09689C22.976 6.10634 24.5021 6.19786 25.4936 7.55471C25.9525 8.19386 26.2079 8.97055 26.2229 9.77299C26.3899 10.2463 26.6515 10.676 26.9898 11.0328C27.328 11.3896 27.735 11.6651 28.183 11.8405C28.573 11.6154 29.0116 11.5014 29.4559 11.5098C29.9001 11.5183 30.3347 11.6488 30.7168 11.8886C31.0989 12.1284 31.4155 12.4692 31.6353 12.8776C31.8551 13.2859 31.9708 13.7478 31.9708 14.2176C31.9708 14.6876 31.8551 15.1494 31.6353 15.5578C31.4155 15.9661 31.0989 16.3069 30.7168 16.5467C30.3347 16.7865 29.9001 16.9171 29.4559 16.9255C29.0116 16.9339 28.573 16.82 28.183 16.5948C27.7358 16.7714 27.3298 17.0475 26.9923 17.4045C26.6548 17.7614 26.3937 18.1908 26.2267 18.6637C26.4916 19.1775 26.5921 19.7681 26.5131 20.3472C26.4343 20.9264 26.1802 21.463 25.7889 21.8768C25.3977 22.2905 24.8903 22.5593 24.3427 22.6427C23.795 22.7262 23.2366 22.6199 22.7507 22.3398C22.3034 22.5158 21.8971 22.7918 21.5595 23.1488C21.2219 23.5058 20.961 23.9355 20.7945 24.4087C21.0074 24.8211 21.1152 25.285 21.1072 25.7549C21.0992 26.2247 20.9758 26.6843 20.7491 27.0884C20.5223 27.4925 20.2 27.8273 19.8139 28.0598C19.4278 28.2923 18.9911 28.4146 18.5468 28.4146C18.1025 28.4146 17.6658 28.2923 17.2797 28.0598C16.8935 27.8273 16.5713 27.4925 16.3445 27.0884C16.1178 26.6843 15.9944 26.2247 15.9864 25.7549C15.9784 25.285 16.0862 24.8211 16.2991 24.4087C16.1321 23.9358 15.871 23.5064 15.5335 23.1494C15.196 22.7925 14.7899 22.5164 14.3428 22.3398C13.8572 22.6195 13.299 22.7256 12.7516 22.6421C12.2043 22.5586 11.6971 22.29 11.306 21.8765C10.9149 21.4631 10.6607 20.9268 10.5816 20.348C10.5025 19.7691 10.6026 19.1788 10.8669 18.665C10.6998 18.192 10.4385 17.7625 10.1007 17.4056C9.76301 17.0487 9.35674 16.7726 8.90936 16.5962C8.51936 16.821 8.08074 16.9347 7.63661 16.9261C7.19248 16.9175 6.75807 16.7869 6.37612 16.547C5.99416 16.3072 5.67776 15.9664 5.45803 15.5581C5.23825 15.1498 5.12274 14.6881 5.12274 14.2184C5.12274 13.7486 5.23825 13.2868 5.45803 12.8786C5.67776 12.4703 5.99416 12.1295 6.37612 11.8896C6.75807 11.6498 7.19248 11.5191 7.63661 11.5105C8.08074 11.5019 8.51936 11.6156 8.90936 11.8405ZM9.92759 12.9174C10.1325 13.3158 10.2398 13.7621 10.2398 14.2156C10.2398 14.6692 10.1325 15.1155 9.92759 15.5139C10.0946 15.9879 10.356 16.4184 10.6942 16.776C11.0324 17.1337 11.4395 17.4103 11.8877 17.5869C12.3734 17.3062 12.932 17.1995 13.4799 17.2827C14.0277 17.366 14.5353 17.6348 14.9267 18.0488C15.3179 18.4628 15.5719 18.9997 15.6504 19.5791C15.729 20.1586 15.6279 20.7493 15.3623 21.2629C15.5299 21.7355 15.7911 22.1646 16.1286 22.5215C16.466 22.8783 16.8718 23.1547 17.3186 23.3318C17.6954 23.1146 18.1177 23.0007 18.5468 23.0007C18.9759 23.0007 19.3983 23.1146 19.775 23.3318C20.2219 23.1547 20.6276 22.8783 20.9651 22.5215C21.3025 22.1646 21.5638 21.7355 21.7313 21.2629C21.4671 20.7499 21.3668 20.1602 21.4455 19.582C21.5242 19.0037 21.7775 18.4678 22.1678 18.0544C22.558 17.6409 23.0643 17.372 23.6109 17.2877C24.1575 17.2035 24.7152 17.3084 25.2008 17.5869C25.648 17.4102 26.054 17.1341 26.3915 16.7772C26.729 16.4202 26.9901 15.9908 27.1571 15.518C26.9523 15.1195 26.8449 14.6732 26.8449 14.2197C26.8449 13.7662 26.9523 13.3198 27.1571 12.9214C26.9906 12.4482 26.7297 12.0185 26.3921 11.6615C26.0546 11.3046 25.6483 11.0286 25.2008 10.8525C24.482 10.7412 23.8035 10.432 23.2331 9.95607C22.4296 9.25633 21.8955 8.2702 21.7313 7.18319C21.5647 6.70959 21.3039 6.27936 20.9663 5.92171C20.6288 5.56406 20.2225 5.28731 19.775 5.11024C19.3981 5.32688 18.9759 5.4404 18.5468 5.4404C18.1178 5.4404 17.6955 5.32688 17.3186 5.11024C16.8717 5.2866 16.4659 5.56228 16.1283 5.91875C15.7909 6.27518 15.5296 6.70409 15.3623 7.17642C15.6279 7.69003 15.729 8.28077 15.6504 8.86023C15.5719 9.43964 15.3179 9.97657 14.9267 10.3906C14.5353 10.8045 14.0277 11.0733 13.4799 11.1566C12.932 11.2399 12.3734 11.1332 11.8877 10.8525C11.4399 11.0277 11.0331 11.3028 10.6949 11.6591C10.3567 12.0154 10.095 12.4445 9.92759 12.9174Z" fill="white"/>
<path d="M32.1579 39.8993H31.1295L32.8375 34.4922H33.983L35.686 39.8993H34.6563L34.3012 38.6421H32.504L32.1579 39.8993ZM32.695 37.9475H34.1103L33.4001 35.3604H33.3822L32.695 37.9475Z" fill="white"/>
<path d="M41.7901 35.6171L41.0443 35.8647C40.9348 35.4273 40.6523 35.1917 40.2068 35.1917C39.615 35.1917 39.3324 35.5471 39.3324 36.1999V38.2594C39.3324 38.8368 39.6239 39.2259 40.2068 39.2259C40.6612 39.2259 40.917 39.036 41.0532 38.5151L41.8092 38.7386C41.6081 39.5812 41.0456 39.9702 40.1152 39.9702C39.0142 39.9702 38.3129 39.2972 38.3129 38.2674V36.208C38.3129 35.0921 39.0142 34.415 40.1241 34.415C40.9896 34.4191 41.6196 34.94 41.7901 35.6171Z" fill="white"/>
<path d="M47.9187 34.4922V35.2998H45.7547V36.7711H47.4209V37.4737H45.7512V39.1105H48V39.9046H44.7405V34.4922H47.9187Z" fill="white"/>
<path fill-rule="evenodd" clip-rule="evenodd" d="M22.7699 10.8251C22.3225 11.0012 21.9161 11.2772 21.5786 11.6342C21.241 11.9912 20.9801 12.4209 20.8136 12.8941C21.019 13.2923 21.1267 13.7387 21.1267 14.1923C21.1267 14.646 21.019 15.0924 20.8136 15.4906C20.9737 15.9668 21.235 16.3978 21.5773 16.7505C21.9481 17.1596 22.4157 17.4561 22.9315 17.6093C23.3732 17.7224 23.0588 18.3779 22.789 18.6605C22.5191 18.9432 21.898 19.2784 21.7949 18.8113C21.6504 18.2656 21.37 17.771 20.9829 17.3791C20.65 17.0164 20.2423 16.74 19.7916 16.5715C19.4016 16.7963 18.9629 16.9101 18.5188 16.9015C18.0747 16.8929 17.6403 16.7622 17.2584 16.5224C16.8764 16.2825 16.56 15.9417 16.3402 15.5334C16.1205 15.1252 16.0049 14.6635 16.0049 14.1937C16.0049 13.7239 16.1205 13.2621 16.3402 12.8539C16.56 12.4456 16.8764 12.1048 17.2584 11.865C17.6403 11.6251 18.0747 11.4945 18.5188 11.4859C18.9629 11.4772 19.4016 11.591 19.7916 11.8158C20.239 11.6398 20.6453 11.3639 20.9829 11.0069C21.3205 10.6498 21.5813 10.2201 21.7478 9.74698C21.4825 9.23328 21.3816 8.64249 21.4603 8.06308C21.5391 7.48367 21.7932 6.94684 22.1846 6.53302C22.5761 6.1192 23.0838 5.85062 23.6317 5.76752C24.1796 5.68447 24.7381 5.7914 25.2238 6.07224C25.674 5.90275 26.0815 5.62646 26.4151 5.26458C26.7581 4.91248 27.0194 4.4813 27.1788 4.00469C26.9661 3.59223 26.8586 3.12835 26.8667 2.65864C26.8749 2.18893 26.9984 1.72953 27.2252 1.32558C27.452 0.921631 27.7742 0.587018 28.1603 0.354611C28.5463 0.122205 28.9829 0 29.4271 0C29.8713 0 30.3079 0.122205 30.6939 0.354611C31.08 0.587018 31.4022 0.921631 31.629 1.32558C31.8558 1.72953 31.9793 2.18893 31.9875 2.65864C31.9956 3.12835 31.8881 3.59223 31.6754 4.00469C31.8348 4.4813 32.0961 4.91248 32.4391 5.26458C32.7725 5.62675 33.1801 5.90308 33.6304 6.07224C34.116 5.79192 34.6744 5.68545 35.222 5.76879C35.7696 5.85208 36.2769 6.12071 36.6681 6.53443C37.0593 6.94811 37.3133 7.4847 37.392 8.06378C37.4708 8.64291 37.3701 9.23342 37.1051 9.74698C37.2721 10.2198 37.5332 10.6493 37.8707 11.0062C38.2082 11.3631 38.6142 11.6392 39.0613 11.8158C39.4515 11.5904 39.8905 11.4762 40.335 11.4845C40.7796 11.4928 41.2145 11.6233 41.5969 11.8632C41.9793 12.1031 42.2961 12.4441 42.5162 12.8527C42.7362 13.2613 42.8519 13.7234 42.8519 14.1937C42.8519 14.6639 42.7362 15.126 42.5162 15.5347C42.2961 15.9433 41.9793 16.2843 41.5969 16.5241C41.2145 16.764 40.7796 16.8946 40.335 16.9028C39.8905 16.9112 39.4515 16.7969 39.0613 16.5715C38.6142 16.7481 38.2082 17.0242 37.8707 17.3812C37.5332 17.7381 37.2721 18.1675 37.1051 18.6404C37.3701 19.1539 37.4708 19.7444 37.392 20.3235C37.3133 20.9027 37.0593 21.4392 36.6681 21.8529C36.2769 22.2666 35.7696 22.5352 35.222 22.6186C34.6744 22.7019 34.116 22.5954 33.6304 22.3151C33.1833 22.4917 32.7773 22.7679 32.4398 23.1247C32.1023 23.4817 31.8412 23.9111 31.6742 24.384C31.8874 24.7966 31.9953 25.2609 31.9875 25.731C31.9797 26.2012 31.8563 26.6611 31.6294 27.0655C31.4026 27.47 31.0802 27.805 30.6938 28.0377C30.3074 28.2705 29.8705 28.3928 29.4258 28.3928C28.9812 28.3928 28.5442 28.2705 28.1579 28.0377C27.7715 27.805 27.449 27.47 27.2222 27.0655C26.9954 26.6611 26.872 26.2012 26.8641 25.731C26.8563 25.2609 26.9643 24.7966 27.1775 24.384C27.0178 23.9079 26.7565 23.4773 26.4138 23.1254C26.0433 22.7161 25.5756 22.4195 25.0596 22.2667C24.6179 22.1522 24.9323 21.498 25.2021 21.2154C25.472 20.9327 26.0931 20.5975 26.1962 21.0633C26.3406 21.6094 26.6211 22.1044 27.0082 22.4968C27.3417 22.8588 27.7493 23.1351 28.1995 23.3044C28.5761 23.0872 28.9981 22.9733 29.4271 22.9733C29.8561 22.9733 30.2781 23.0872 30.6547 23.3044C31.1021 23.1284 31.5084 22.8524 31.846 22.4954C32.1835 22.1384 32.4445 21.7087 32.6109 21.2355C32.3461 20.7218 32.2456 20.1312 32.3245 19.552C32.4034 18.9728 32.6575 18.4362 33.0487 18.0225C33.44 17.6087 33.9473 17.34 34.495 17.2565C35.0426 17.1731 35.6011 17.2793 36.0869 17.5595C36.534 17.3828 36.9401 17.1067 37.2775 16.7498C37.615 16.3929 37.8761 15.9634 38.0431 15.4906C37.8377 15.0924 37.7301 14.646 37.7301 14.1923C37.7301 13.7387 37.8377 13.2923 38.0431 12.8941C37.8761 12.4212 37.615 11.9918 37.2775 11.6348C36.9401 11.2779 36.534 11.0018 36.0869 10.8251C35.6011 11.1053 35.0426 11.2116 34.495 11.1281C33.9473 11.0447 33.44 10.7759 33.0487 10.3622C32.6575 9.94839 32.4034 9.4118 32.3245 8.83262C32.2456 8.25344 32.3461 7.66284 32.6109 7.1491C32.4445 6.67591 32.1835 6.2462 31.846 5.88921C31.5084 5.53222 31.1021 5.25626 30.6547 5.08019C30.2781 5.29744 29.8561 5.41128 29.4271 5.41128C28.9981 5.41128 28.5761 5.29744 28.1995 5.08019C27.7521 5.25626 27.3458 5.53222 27.0082 5.88921C26.6707 6.2462 26.4098 6.67591 26.2433 7.1491C26.5074 7.66256 26.6075 8.25264 26.5285 8.83126C26.4496 9.40982 26.1958 9.9459 25.8051 10.3594C25.4144 10.7729 24.9077 11.0417 24.3607 11.1256C23.8137 11.2096 23.2556 11.1042 22.7699 10.8251Z" fill="white"/>
<path d="M23.9701 22.6597C25.3844 22.6597 26.5309 21.4472 26.5309 19.9514C26.5309 18.4557 25.3844 17.2432 23.9701 17.2432C22.5558 17.2432 21.4093 18.4557 21.4093 19.9514C21.4093 21.4472 22.5558 22.6597 23.9701 22.6597Z" fill="white"/>
<path d="M1.01822 34.4922V39.8993H0V34.4922H1.01822Z" fill="white"/>
<path d="M5.15345 34.4922L7.21025 37.8977H7.22932V34.4922H8.12025V39.8993H7.41132L5.29852 36.3686H5.2807V39.8993H4.38977V34.4922H5.15345Z" fill="white"/>
<path d="M14.5096 35.5169L13.7994 35.8157C13.6441 35.3769 13.2903 35.1615 12.8334 35.1615C12.3052 35.1615 12.1054 35.4105 12.1054 35.8063C12.1054 36.8481 14.5236 36.7162 14.5236 38.4445C14.5236 39.4272 13.849 39.9737 12.7939 39.9737C11.9462 39.9737 11.2093 39.5026 11.012 38.7084L11.7757 38.4688C11.8426 38.6948 11.9775 38.8915 12.16 39.0289C12.3425 39.1662 12.5624 39.2366 12.7863 39.2293C13.3145 39.2293 13.5703 39.0059 13.5703 38.5563C13.5703 37.4 11.1024 37.5481 11.1024 35.8534C11.1024 35.0458 11.7311 34.4239 12.757 34.4239C13.6658 34.4185 14.2309 34.8479 14.5096 35.5169Z" fill="white"/>
<path d="M21.2412 34.4922V38.1952C21.2412 39.3124 20.5399 39.9733 19.3015 39.9733C18.0631 39.9733 17.3631 39.3285 17.3631 38.2369V34.4922H18.3813V38.2369C18.3813 38.9099 18.7631 39.1549 19.3003 39.1549C19.8921 39.1549 20.2294 38.8857 20.2294 38.2369V34.4922H21.2412Z" fill="white"/>
<path d="M26.0765 37.6742H25.4401V39.8993H24.4296V34.4922H26.2191C27.4028 34.4922 27.9309 35.071 27.9309 36.0293C27.9309 36.7979 27.6026 37.3027 26.9929 37.4844L28.2555 39.8993H27.1546L26.0765 37.6742ZM25.4401 36.9635H26.1771C26.76 36.9635 26.9331 36.6661 26.9331 36.0953C26.9331 35.4923 26.7422 35.2608 26.186 35.2608H25.4401V36.9635Z" fill="white"/>
</g>
<defs>
<clipPath id="clip0">
<rect width="48" height="40" fill="white"/>
</clipPath>
</defs>
</svg>
