<svg width="40" height="40" viewBox="0 0 40 40" fill="none" xmlns="http://www.w3.org/2000/svg">
<circle cx="20" cy="20" r="20" fill="white"/>
<path d="M10.8459 13.8869C10.8758 13.5922 10.7634 13.301 10.5434 13.1028L8.30252 10.4032V10H15.2605L20.6387 21.795L25.3669 10H32V10.4032L30.084 12.2403C29.9189 12.3662 29.8369 12.5731 29.8711 12.7779V26.2755C29.8369 26.4803 29.9189 26.6873 30.084 26.8132L31.9552 28.6502V29.0534H22.5434V28.6502L24.4818 26.7684C24.6723 26.5779 24.6723 26.5219 24.6723 26.2307V15.3206L19.2829 29.0086H18.5546L12.2801 15.3206V24.4945C12.2278 24.8802 12.3559 25.2685 12.6275 25.5474L15.1485 28.6054V29.0086H8V28.6054L10.521 25.5474C10.7906 25.268 10.9112 24.8772 10.8459 24.4945V13.8869Z" fill="#121212"/>
</svg>
