<svg width="149" height="30" viewBox="0 0 149 30" fill="none" xmlns="http://www.w3.org/2000/svg">
<path fill-rule="evenodd" clip-rule="evenodd" d="M20.6453 5.35459C19.7585 6.00704 19.5957 6.13587 19.1064 6.57492C18.3152 7.28427 17.5295 8.09676 16.93 8.82548C16.7668 9.02347 16.5909 9.23094 16.5391 9.28627C16.4874 9.3412 16.2423 9.65892 15.9949 9.99246C15.4487 10.7283 15.476 10.7105 15.097 10.5738C14.5983 10.3944 14.5821 10.3868 13.2127 9.71781C11.4323 8.84801 10.9209 8.73696 10.0091 9.0207C9.23333 9.26216 8.73062 9.72057 8.27218 10.605C8.02281 11.0859 7.93112 11.1835 7.5782 11.3412C6.39298 11.8716 4.89712 12.6173 4.45172 12.9006C4.05849 13.1508 3.95732 13.1571 3.75734 12.9441C3.26373 12.4189 1.78052 13.0417 1.78052 13.7748C1.78052 14.7971 2.67408 14.8058 3.61744 13.7925C4.03873 13.3401 4.07865 13.3152 4.84337 13.0251C8.17378 11.7629 9.00134 11.6657 9.75461 12.4485C9.97513 12.6777 10.0214 12.7848 10.2929 13.7005C10.3308 13.8273 10.3834 13.9905 10.4103 14.0628C10.4371 14.1352 10.5407 14.4169 10.6403 14.6884C11.2987 16.4841 12.3187 17.5646 13.7355 17.9669C15.4776 18.4616 16.0491 18.7141 16.3423 19.1192C16.7249 19.6472 16.5613 20.2779 15.8025 21.1971C15.7048 21.3152 15.7708 21.3642 15.919 21.2836C15.9858 21.2473 16.4704 21.0042 16.996 20.7434C19.1803 19.6598 20.0735 18.9995 20.0086 18.5154C19.9375 17.9846 19.353 16.6833 18.8653 15.9684C18.5906 15.5669 18.6179 15.4436 18.9926 15.3871C19.5949 15.2962 21.3026 14.8133 21.6488 14.6359C21.7159 14.6015 21.9938 14.4612 22.2653 14.3245C22.894 14.0079 23.3778 13.7016 23.8884 13.2966C24.1109 13.1203 24.3405 12.9761 24.399 12.9761C24.4571 12.9761 24.5049 12.9314 24.5049 12.8773C24.5049 12.8228 24.5346 12.7785 24.5705 12.7785C24.614 12.7785 24.6365 11.4479 24.6365 8.91835V5.0582L24.4709 5.0997C24.3231 5.13684 23.3881 5.73001 22.3119 6.46901C21.8333 6.79819 21.8112 6.78713 21.5855 6.11769C21.299 5.26765 21.197 5.00643 21.1532 5.00881C21.1306 5.01039 20.9022 5.16569 20.6453 5.35459Z" fill="#121212"/>
<path fill-rule="evenodd" clip-rule="evenodd" d="M11.2985 0.0667676C11.2759 0.103124 11.1131 0.132763 10.9361 0.132763C10.7594 0.132763 10.5962 0.162402 10.5741 0.198759C10.5515 0.23472 10.4017 0.264359 10.2405 0.264359C10.0247 0.264359 9.94805 0.290441 9.94805 0.363155C9.94805 0.437844 9.86782 0.461951 9.61884 0.461951C9.43783 0.461951 9.28963 0.491589 9.28963 0.527946C9.28963 0.564303 9.19952 0.593941 9.08966 0.593941C8.97307 0.593941 8.87427 0.63504 8.85214 0.692737C8.82882 0.753595 8.72883 0.791533 8.59091 0.791533C8.468 0.791533 8.36722 0.821172 8.36722 0.857133C8.36722 0.89349 8.26367 0.923129 8.13681 0.923129C8.00995 0.923129 7.90641 0.952767 7.90641 0.989124C7.90641 1.02509 7.80168 1.05472 7.67363 1.05472C7.5278 1.05472 7.42702 1.09148 7.40331 1.15352C7.3796 1.21477 7.27961 1.25232 7.14168 1.25232C7.01877 1.25232 6.91839 1.27879 6.91839 1.3108C6.91839 1.34321 6.81445 1.38905 6.68759 1.41276C6.56073 1.43647 6.45718 1.48429 6.45718 1.51906C6.45718 1.55345 6.38328 1.5819 6.29238 1.5819C6.20188 1.5819 6.12798 1.61154 6.12798 1.6475C6.12798 1.68386 6.02404 1.71349 5.89718 1.71349C5.77032 1.71349 5.66677 1.73997 5.66677 1.77198C5.66677 1.80439 5.56323 1.84983 5.43637 1.87394C5.3095 1.89765 5.20556 1.94547 5.20556 1.97985C5.20556 2.01462 5.13166 2.04268 5.04116 2.04268C4.95066 2.04268 4.87636 2.07232 4.87636 2.10868C4.87636 2.14503 4.80601 2.17467 4.71986 2.17467C4.6337 2.17467 4.5262 2.21893 4.48115 2.27347C4.4361 2.32761 4.33097 2.37226 4.24798 2.37226C4.16499 2.37226 4.08713 2.39953 4.07488 2.43352C4.06302 2.46711 3.96422 2.50426 3.85554 2.51572C3.74686 2.52718 3.61683 2.57539 3.56704 2.62281C3.51685 2.67023 3.43543 2.69355 3.38603 2.67418C3.33466 2.65482 3.29553 2.68169 3.29553 2.73662C3.29553 2.79432 3.23269 2.83305 3.13824 2.83305C3.05208 2.83305 2.89835 2.87612 2.79717 2.92868C2.696 2.98124 2.58811 3.00851 2.55768 2.98954C2.52685 2.97057 2.50986 2.99428 2.52013 3.04249C2.53318 3.10572 2.42568 3.13497 2.12651 3.14919C1.90006 3.15986 1.7147 3.19701 1.7147 3.23139C1.7147 3.26617 1.60365 3.29502 1.4677 3.2962C1.33175 3.29739 1.16458 3.34086 1.09581 3.39302C1.02704 3.44519 0.945631 3.47206 0.91441 3.45269C0.883584 3.43373 0.85829 3.45032 0.85829 3.48984C0.85829 3.52936 0.806518 3.58152 0.743285 3.60563C0.602196 3.65898 0.463084 3.79097 0.463084 3.87119C0.463084 3.90399 0.38918 3.97038 0.298677 4.0186C0.195133 4.07392 0.133876 4.16402 0.133876 4.26045C0.133876 4.34502 0.104236 4.41378 0.0678768 4.41378C-0.0226256 4.41378 -0.0226256 12.0309 0.0678768 12.087C0.107793 12.1115 0.133876 12.5909 0.133876 13.3038C0.133876 13.9733 0.160355 14.4898 0.195529 14.502C0.229121 14.5143 0.264295 14.8604 0.273779 15.2718C0.286031 15.8156 0.31409 16.0286 0.376928 16.0527C0.43779 16.076 0.463084 16.2353 0.463084 16.5925C0.463084 16.8711 0.491143 17.1276 0.525131 17.162C0.559514 17.1964 0.594292 17.3789 0.602987 17.5674C0.612472 17.7797 0.651597 17.9235 0.705345 17.9444C0.754746 17.9634 0.792686 18.078 0.792686 18.2104C0.792686 18.338 0.822327 18.4428 0.85829 18.4428C0.894649 18.4428 0.92429 18.4997 0.92429 18.5692C0.92429 18.7119 1.12861 19.1004 1.2041 19.1011C1.23137 19.1015 1.2535 19.1434 1.2535 19.1948C1.2535 19.3126 1.4673 19.6935 1.5337 19.6939C1.56057 19.6943 1.5831 19.7259 1.5831 19.7651C1.5831 19.8038 1.61985 19.8769 1.6653 19.9271C1.8633 20.148 1.91468 20.2211 1.87121 20.2211C1.84591 20.2211 1.94116 20.3325 2.08264 20.4689C2.22452 20.6052 2.38497 20.8052 2.43912 20.9135C2.54148 21.117 2.66755 21.275 2.72762 21.275C2.7786 21.275 3.19594 21.7141 3.33782 21.9164C3.405 22.0125 3.53819 22.1733 3.63343 22.2729C3.72868 22.3729 3.79033 22.4709 3.77057 22.4906C3.75081 22.5104 3.78203 22.5266 3.84013 22.5266C3.89783 22.5266 4.01323 22.6226 4.09622 22.7404C4.24442 22.951 4.91785 23.6461 4.97358 23.6461C5.03207 23.6461 5.3676 24.0105 5.35298 24.0579C5.34428 24.0848 5.38183 24.1073 5.43637 24.1073C5.49051 24.1073 5.53517 24.1536 5.53517 24.2101C5.53517 24.2662 5.56086 24.2966 5.59208 24.2773C5.62369 24.2579 5.71696 24.3302 5.79956 24.4381C5.88216 24.546 5.99005 24.6341 6.03906 24.6341C6.08767 24.6341 6.12798 24.6637 6.12798 24.7001C6.12798 24.7361 6.15959 24.7657 6.19832 24.7657C6.28962 24.7657 6.45718 24.9333 6.45718 25.0245C6.45718 25.0633 6.49078 25.0953 6.53188 25.0953C6.61052 25.0953 6.918 25.4225 6.918 25.5067C6.91839 25.5339 6.94605 25.5561 6.98044 25.5561C7.01443 25.5561 7.17765 25.6896 7.34284 25.8524C7.50843 26.0157 7.67482 26.1488 7.71276 26.1488C7.75109 26.1488 7.76532 26.1765 7.74437 26.2101C7.72382 26.2437 7.77243 26.2919 7.85266 26.3176C8.02339 26.3717 8.16962 26.5045 8.16962 26.6053C8.16962 26.644 8.20321 26.676 8.24431 26.676C8.28541 26.676 8.41662 26.7795 8.53637 26.9064C8.65572 27.0333 8.77823 27.1368 8.80827 27.1368C8.83831 27.1368 8.91853 27.2111 8.98651 27.3016C9.05488 27.3921 9.15052 27.4664 9.19992 27.4664C9.24932 27.4664 9.28963 27.496 9.28963 27.532C9.28963 27.5683 9.33389 27.598 9.38843 27.598C9.44258 27.598 9.48724 27.6288 9.48724 27.6667C9.48724 27.7707 9.79668 28.0592 9.90773 28.0592C9.96148 28.0592 10.0239 28.118 10.0468 28.1907C10.0698 28.2631 10.1607 28.3401 10.2488 28.3623C10.3369 28.3844 10.4093 28.4441 10.4093 28.4942C10.4093 28.5448 10.4555 28.5859 10.512 28.5859C10.5685 28.5859 10.5962 28.6156 10.5741 28.6519C10.5515 28.6879 10.5796 28.7175 10.6357 28.7175C10.6922 28.7175 10.7385 28.7472 10.7385 28.7835C10.7385 28.8199 10.7835 28.8495 10.8388 28.8495C10.8938 28.8495 10.9728 28.9234 11.0139 29.0139C11.0554 29.1048 11.1364 29.1787 11.1945 29.1787C11.2522 29.1787 11.3882 29.2818 11.4969 29.4079C11.6051 29.534 11.7308 29.6375 11.7759 29.6383C11.8213 29.6391 11.8585 29.6861 11.8585 29.7426C11.8585 29.7987 11.8838 29.8296 11.9146 29.8106C11.9454 29.7912 12.0268 29.8181 12.0956 29.8703C12.2806 30.0102 12.3497 29.9924 12.6113 29.7387C12.7418 29.6118 12.8797 29.5079 12.9172 29.5079C12.9552 29.5079 12.9694 29.4814 12.9492 29.449C12.9137 29.3913 13.0955 29.2795 13.1923 29.3C13.2192 29.3056 13.2381 29.2882 13.2338 29.2609C13.2128 29.1297 13.248 29.0432 13.3073 29.0799C13.3437 29.1024 13.3733 29.0918 13.3733 29.0562C13.3733 29.021 13.3362 28.9772 13.2911 28.959C13.2457 28.9404 13.2381 28.9234 13.2745 28.9207C13.318 28.9171 13.3342 27.0558 13.3223 23.4407L13.3045 17.9658L13.4871 18.0097C13.5875 18.0338 13.7883 18.0839 13.9333 18.1215C14.078 18.1586 14.3005 18.2017 14.4273 18.2171C14.6593 18.2456 14.555 18.2084 13.7357 17.9689C12.3058 17.5516 11.2989 16.4842 10.6404 14.6885C10.5409 14.417 10.4365 14.1353 10.4081 14.063C10.3796 13.9906 10.3061 13.7535 10.2445 13.5362C10.0401 12.8138 9.98282 12.6877 9.75044 12.4451C9.0039 11.6658 8.16922 11.7646 4.84356 13.0252C4.07883 13.3153 4.03891 13.3402 3.61762 13.7927C2.67427 14.8059 1.7807 14.7972 1.7807 13.7749C1.7807 13.0418 3.26391 12.419 3.75753 12.9442C3.9575 13.1572 4.05867 13.1509 4.45191 12.9007C4.8973 12.6174 6.39316 11.8717 7.57839 11.3413C7.93131 11.1837 8.02299 11.086 8.27237 10.6051C8.73081 9.72069 9.23351 9.26228 10.0093 9.02082C10.9226 8.73668 11.4486 8.85129 13.1769 9.71121C13.8768 10.0598 14.4771 10.336 14.5107 10.3249C14.5439 10.3139 14.487 10.2653 14.3838 10.2166C14.2811 10.1684 14.1523 10.1032 14.0977 10.0716C14.0436 10.0404 13.878 9.95622 13.7298 9.88509C13.2757 9.66615 13.3041 10.0171 13.3231 4.85915C13.3362 1.2456 13.3219 0.132368 13.2607 0.0754616C13.1591 -0.0197775 11.357 -0.0272859 11.2985 0.0667676ZM20.4542 5.44046L20.2566 5.61039L20.4704 5.46852C20.5882 5.39067 20.6846 5.3144 20.6846 5.29859C20.6846 5.2492 20.6566 5.26658 20.4542 5.44046ZM23.6159 5.53807C23.5072 5.60763 23.4519 5.66493 23.4934 5.66493C23.5345 5.66532 23.638 5.60684 23.7238 5.5357C23.9194 5.37249 23.8724 5.37368 23.6159 5.53807ZM19.927 5.83999C19.7286 6.01704 19.714 6.04154 19.8669 5.93919C20.0491 5.81747 20.2784 5.59577 20.2151 5.60209C20.2017 5.60328 20.0721 5.71037 19.927 5.83999ZM22.1339 6.52168C21.9426 6.67106 21.8291 6.68687 21.7821 6.57108C21.756 6.50627 21.7477 6.50706 21.7438 6.57306C21.7339 6.73469 21.9291 6.72876 22.1777 6.56002C22.3153 6.46636 22.3986 6.39048 22.3631 6.39127C22.3275 6.39206 22.2244 6.45055 22.1339 6.52168ZM18.8042 6.80147L18.5438 7.08126L18.824 6.82123C19.084 6.57899 19.1342 6.52168 19.084 6.52168C19.0734 6.52168 18.9477 6.64735 18.8042 6.80147ZM17.651 7.95422L17.4242 8.20121L17.6712 7.97398C17.8071 7.8491 17.9182 7.73806 17.9182 7.72699C17.9182 7.6768 17.8625 7.72423 17.651 7.95422ZM16.0532 9.82028C15.9512 9.96215 15.8809 10.0783 15.8971 10.0783C15.9425 10.0783 16.288 9.61162 16.2615 9.58554C16.2488 9.57289 16.1552 9.6784 16.0532 9.82028ZM15.6785 10.3415C15.6015 10.4502 15.5529 10.5391 15.571 10.5391C15.5888 10.5391 15.6671 10.4502 15.7445 10.3415C15.822 10.2328 15.8706 10.1439 15.8524 10.1439C15.8343 10.1439 15.756 10.2328 15.6785 10.3415ZM23.1894 13.8029C23.0638 13.8914 22.9895 13.9642 23.0246 13.9638C23.0598 13.9638 23.1776 13.8907 23.2863 13.8013C23.54 13.5935 23.4847 13.5943 23.1894 13.8029ZM22.3809 14.2653C22.1346 14.3989 22.1497 14.4546 22.3971 14.3265C22.5057 14.27 22.5947 14.2104 22.5947 14.193C22.5947 14.1507 22.5875 14.1531 22.3809 14.2653ZM21.5778 14.6577C21.4134 14.7822 21.4743 14.7814 21.7145 14.6561C21.8185 14.602 21.8588 14.5585 21.8042 14.5593C21.7501 14.5605 21.6481 14.6048 21.5778 14.6577ZM19.5318 15.2813C19.4488 15.3173 19.4366 15.3382 19.499 15.3382C19.5532 15.3382 19.6571 15.3125 19.7294 15.2813C19.8124 15.2457 19.8247 15.2248 19.7626 15.2248C19.7081 15.2248 19.6045 15.2505 19.5318 15.2813ZM18.6809 15.5224C18.6434 15.6196 18.9181 16.1377 19.007 16.1377C19.0252 16.1377 18.9592 16.016 18.8607 15.867C18.6869 15.6042 18.6853 15.5931 18.8062 15.5046C18.9086 15.4299 18.9121 15.4133 18.8272 15.4133C18.7695 15.4133 18.7039 15.4623 18.6809 15.5224ZM19.1366 16.4013C19.1931 16.5099 19.2536 16.5988 19.2718 16.5988C19.2899 16.5988 19.2587 16.5099 19.2026 16.4013C19.1465 16.2926 19.0856 16.2037 19.0674 16.2037C19.0493 16.2037 19.0805 16.2926 19.1366 16.4013ZM19.7255 19.1181L19.5318 19.3319L19.746 19.1387C19.8638 19.0324 19.9602 18.936 19.9602 18.9245C19.9602 18.8735 19.9057 18.9186 19.7255 19.1181ZM16.1982 20.5669C16.1556 20.6487 16.0034 20.8558 15.8607 21.0277C15.5829 21.3624 15.639 21.5343 15.9536 21.3138C16.0358 21.2565 16.073 21.2091 16.0358 21.2091C15.9987 21.2091 15.9335 21.2442 15.8904 21.2873C15.7884 21.3893 15.7102 21.3094 15.8026 21.1972C16.152 20.774 16.3828 20.4187 16.3089 20.4187C16.2911 20.4187 16.2409 20.4855 16.1982 20.5669Z" fill="white"/>
<path fill-rule="evenodd" clip-rule="evenodd" d="M14.3614 0.366612C14.3614 0.429841 14.393 0.451577 14.4436 0.422728C14.5096 0.385581 14.5096 0.394275 14.4436 0.465013C14.3381 0.579221 14.3219 10.0778 14.4274 10.0778C14.4634 10.0778 14.493 10.1221 14.493 10.1766C14.493 10.2383 14.5554 10.2754 14.6586 10.2754C14.7499 10.2754 14.8756 10.3011 14.9388 10.3323C15.1641 10.4446 15.481 10.5264 15.481 10.4718C15.481 10.4414 15.5197 10.3774 15.5668 10.3296C15.6138 10.2814 15.7494 10.1 15.8683 9.92609C15.9873 9.75221 16.1639 9.52853 16.2604 9.42895C16.3572 9.32936 16.524 9.13058 16.6315 8.98753C16.7386 8.84447 16.9164 8.63779 17.0267 8.52832C17.1365 8.41846 17.3041 8.22601 17.399 8.09995C17.6088 7.82134 18.8754 6.56506 19.1039 6.40896C19.1944 6.34691 19.3453 6.22046 19.4386 6.12838C19.5323 6.03591 19.7176 5.88613 19.85 5.79603C19.9824 5.70593 20.0911 5.6095 20.0915 5.58263C20.0915 5.55536 20.1362 5.53323 20.1907 5.53323C20.2448 5.53323 20.2895 5.51071 20.2895 5.48305C20.2895 5.45578 20.4835 5.30166 20.7211 5.14042L21.1526 4.84799L21.3115 5.04242C21.3988 5.14912 21.4716 5.30166 21.4727 5.38109C21.4739 5.46052 21.5048 5.54351 21.5411 5.56603C21.5771 5.58856 21.6067 5.6921 21.6067 5.79642C21.6067 5.90115 21.6344 6.00311 21.6676 6.02405C21.7012 6.0446 21.7474 6.14814 21.7707 6.25365C21.834 6.54293 21.9521 6.6105 22.1197 6.45401C22.1972 6.38209 22.2738 6.3236 22.2904 6.3236C22.307 6.3236 22.701 6.06792 23.1658 5.75533C24.1534 5.09142 24.4079 4.94046 24.5399 4.94046C24.6502 4.94046 24.6755 4.64289 24.5708 4.57808C24.5348 4.55555 24.5052 4.47889 24.5052 4.40736C24.5052 4.33583 24.4605 4.26035 24.4064 4.2398C24.3518 4.21885 24.3076 4.15839 24.3076 4.10544C24.3076 3.99637 24.1518 3.82051 24.0558 3.82051C24.0206 3.82051 23.9752 3.77625 23.9542 3.72171C23.9333 3.66757 23.8709 3.62292 23.8155 3.62292C23.7602 3.62292 23.7148 3.59921 23.7148 3.56996C23.7148 3.48935 23.2326 3.29373 23.0338 3.29373C22.9374 3.29373 22.8583 3.26409 22.8583 3.22774C22.8583 3.19138 22.6848 3.16214 22.4702 3.16214C22.1861 3.16214 22.0719 3.13566 22.0442 3.06334C22.0221 3.00564 21.9233 2.96454 21.8067 2.96454C21.6968 2.96454 21.6067 2.93491 21.6067 2.89855C21.6067 2.86219 21.536 2.83255 21.449 2.83255C21.3625 2.83255 21.2744 2.78829 21.2538 2.73376C21.2317 2.67606 21.1329 2.63496 21.0163 2.63496C20.9064 2.63496 20.8163 2.60532 20.8163 2.56936C20.8163 2.533 20.759 2.50337 20.6887 2.50337C20.6183 2.50337 20.5424 2.47373 20.5199 2.43737C20.4978 2.40141 20.3772 2.37177 20.2527 2.37177C20.0951 2.37177 20.0259 2.34134 20.0259 2.27297C20.0259 2.21133 19.9638 2.17418 19.8615 2.17418C19.771 2.17418 19.6967 2.14454 19.6967 2.10818C19.6967 2.07183 19.5927 2.04219 19.4663 2.04219C19.305 2.04219 19.2355 2.01255 19.2355 1.94339C19.2355 1.88253 19.1738 1.8446 19.075 1.8446C18.9865 1.8446 18.8956 1.81496 18.8735 1.779C18.8509 1.74264 18.7454 1.713 18.6387 1.713C18.5324 1.713 18.4451 1.68336 18.4451 1.647C18.4451 1.61104 18.3415 1.5814 18.2147 1.5814C18.0538 1.5814 17.9843 1.55137 17.9843 1.48261C17.9843 1.41345 17.9147 1.38381 17.7535 1.38381C17.6266 1.38381 17.523 1.35417 17.523 1.31782C17.523 1.28146 17.4527 1.25182 17.3665 1.25182C17.2804 1.25182 17.1757 1.21072 17.1338 1.16014C17.0622 1.07399 16.9251 1.0325 16.4196 0.94516C16.3019 0.925006 16.2058 0.88193 16.2058 0.849526C16.2058 0.81712 16.105 0.791039 15.9821 0.791039C15.8442 0.791039 15.7442 0.753101 15.7209 0.692243C15.6956 0.627038 15.5925 0.593447 15.4174 0.593447C15.2712 0.593447 15.1518 0.563808 15.1518 0.527452C15.1518 0.491095 15.0514 0.461456 14.9281 0.461456C14.7906 0.461456 14.6902 0.423914 14.6669 0.36266C14.6163 0.231065 14.3614 0.234226 14.3614 0.366612ZM24.2965 13.0915C24.2842 13.1188 24.1412 13.244 23.978 13.3697C23.8151 13.4954 23.6669 13.6171 23.6488 13.6404C23.6306 13.6637 23.4519 13.7831 23.252 13.9056C23.052 14.0281 22.8295 14.164 22.758 14.2079C22.3892 14.4335 21.2455 14.9516 21.1159 14.9516C21.059 14.9516 20.961 14.9773 20.8977 15.0085C20.663 15.1259 20.3148 15.2338 20.0753 15.2638C19.9397 15.2808 19.8283 15.3211 19.8283 15.3539C19.8283 15.3863 19.7172 15.4132 19.5813 15.4136C19.4457 15.4144 19.2236 15.4531 19.0885 15.5001C18.8272 15.5914 18.7023 15.676 18.8296 15.676C18.8715 15.676 18.9063 15.7108 18.9063 15.7535C18.9063 15.7957 18.9478 15.8771 18.9984 15.9344C19.1335 16.0866 19.4635 16.6892 19.6323 17.0923C19.7828 17.4519 19.9129 17.7491 19.9698 17.8653C20.0006 17.9281 20.0259 18.0542 20.0259 18.1451C20.0259 18.236 20.0555 18.3107 20.0919 18.3107C20.4543 18.3107 19.8156 19.3868 19.3691 19.5286C19.2959 19.552 19.2355 19.5986 19.2355 19.6326C19.2355 19.6662 19.1936 19.6938 19.1422 19.6938C19.0908 19.6938 19.0391 19.716 19.0272 19.7432C19.0027 19.7978 18.4696 20.155 18.4123 20.155C18.3929 20.155 18.2593 20.2289 18.1159 20.3194C17.9724 20.4103 17.8123 20.4842 17.7606 20.4842C17.7084 20.4842 17.6558 20.5063 17.644 20.5336C17.6147 20.5996 16.26 21.2781 16.162 21.2761C16.1197 21.2753 16.075 21.2967 16.0632 21.3239C16.0248 21.4097 15.6039 21.6061 15.5411 21.5674C15.4134 21.4883 15.4984 21.2931 15.8126 20.9454C15.9924 20.7462 16.1398 20.5458 16.1398 20.5008C16.1398 20.4553 16.1623 20.4182 16.1896 20.4182C16.243 20.4182 16.3912 20.0349 16.4473 19.7519C16.5038 19.467 15.9687 18.7719 15.6932 18.7719C15.6577 18.7719 15.5921 18.7272 15.547 18.6731C15.502 18.6185 15.3814 18.5743 15.2795 18.5743C15.1771 18.5743 15.0755 18.5446 15.053 18.5083C15.0305 18.4719 14.9103 18.4423 14.7854 18.4423C14.661 18.4423 14.559 18.4126 14.559 18.3767C14.559 18.3403 14.5135 18.3107 14.4578 18.3107C14.3677 18.3107 14.359 18.8462 14.3756 23.2505C14.3859 25.9673 14.3721 28.1903 14.3448 28.1903C14.3179 28.1903 14.2954 28.2369 14.2954 28.2938C14.2954 28.3859 14.3065 28.3863 14.3942 28.2985C14.4487 28.244 14.493 28.1677 14.493 28.129C14.493 28.0903 14.5309 28.0587 14.5776 28.0587C14.6238 28.0587 14.7044 27.9994 14.7566 27.9267C14.8088 27.8543 14.8823 27.7951 14.9198 27.7951C14.9578 27.7951 15.0684 27.7212 15.166 27.6303C15.2636 27.5398 15.3747 27.4659 15.4122 27.4659C15.4502 27.4659 15.481 27.4323 15.481 27.3912C15.481 27.3122 15.8086 27.0051 15.8928 27.0047C15.9201 27.0047 15.9422 26.9731 15.9422 26.934C15.9422 26.847 16.1082 26.6755 16.1928 26.6755C16.2272 26.6755 16.3683 26.5716 16.5066 26.4447C16.6453 26.3179 16.782 26.2143 16.8113 26.2143C16.8405 26.2143 16.8642 26.1697 16.8642 26.1155C16.8642 26.061 16.8962 26.0167 16.935 26.0167C17.0263 26.0167 17.1938 25.8492 17.1938 25.7579C17.1938 25.7192 17.2247 25.6876 17.2626 25.6876C17.3519 25.6876 17.6546 25.3845 17.6546 25.2951C17.6546 25.2572 17.6993 25.2264 17.7535 25.2264C17.808 25.2264 17.8523 25.1967 17.8523 25.1604C17.8523 25.1244 17.8977 25.0948 17.9534 25.0948C18.0088 25.0948 18.0712 25.0501 18.0921 24.996C18.1127 24.9415 18.155 24.8972 18.1858 24.8972C18.2641 24.8972 18.9403 24.2163 18.9217 24.1562C18.913 24.129 18.9379 24.1068 18.9766 24.1068C19.0153 24.1068 19.2817 23.8697 19.569 23.5797C19.856 23.29 20.1207 23.0529 20.1571 23.0529C20.1939 23.0529 20.2235 23.0268 20.2235 22.9952C20.2235 22.9636 20.5349 22.6182 20.9151 22.2281C21.2957 21.8377 21.6067 21.4638 21.6067 21.3967C21.6067 21.3295 21.6379 21.2746 21.6759 21.2746C21.7486 21.2746 22.3971 20.6513 22.3971 20.5814C22.3971 20.5589 22.4343 20.4992 22.4797 20.449C22.6501 20.2585 22.7267 20.1593 22.7267 20.1281C22.7267 20.1103 22.8006 20.0159 22.8911 19.9183C22.982 19.8203 23.0559 19.714 23.0559 19.6816C23.0559 19.6492 23.1164 19.5575 23.1907 19.4781C23.3437 19.3137 23.5171 18.9892 23.5171 18.8675C23.5171 18.8224 23.5614 18.7687 23.6159 18.7478C23.6701 18.7272 23.7148 18.6497 23.7148 18.5762C23.7148 18.5027 23.7444 18.4423 23.7804 18.4423C23.8167 18.4423 23.8464 18.3387 23.8464 18.2119C23.8464 18.085 23.876 17.9815 23.9124 17.9815C23.9483 17.9815 23.978 17.8459 23.978 17.6804C23.978 17.5006 24.0179 17.3393 24.0768 17.2804C24.1443 17.2129 24.1756 17.0469 24.1756 16.758C24.1756 16.5197 24.2044 16.3348 24.2416 16.3348C24.2811 16.3348 24.3076 16.0696 24.3076 15.6713C24.3076 15.1698 24.3317 14.984 24.4064 14.9093C24.5475 14.7679 24.5526 13.0417 24.4119 13.0417C24.3605 13.0417 24.3084 13.0638 24.2965 13.0915ZM14.0697 28.4254C13.9555 28.5396 13.9401 28.5854 14.0164 28.5854C14.0436 28.5854 14.1033 28.5262 14.1484 28.4538C14.2472 28.2958 14.212 28.2831 14.0697 28.4254ZM13.0872 29.2987C12.9671 29.4315 12.9406 29.5386 13.0438 29.475C13.1125 29.4323 13.2647 29.1782 13.2212 29.1782C13.2074 29.1782 13.1473 29.2323 13.0872 29.2987Z" fill="white"/>
<path fill-rule="evenodd" clip-rule="evenodd" d="M13.3509 0.176791C13.3268 0.200897 13.3071 2.33054 13.3071 4.90871C13.3071 10.1394 13.2628 9.6596 13.7683 9.90461C13.8951 9.96587 14.0433 10.0402 14.0975 10.0698C14.4701 10.2729 14.4927 10.2789 14.4927 10.1777C14.4927 10.1231 14.463 10.0785 14.4271 10.0785C14.3215 10.0785 14.3377 0.579878 14.4433 0.46567C14.5093 0.394932 14.5093 0.386238 14.4433 0.423385C14.3935 0.451838 14.3611 0.431289 14.3611 0.371221C14.3611 0.303645 14.3038 0.277167 14.1801 0.287442C14.0805 0.295741 13.9595 0.264522 13.9117 0.21789C13.8208 0.129369 13.4272 0.100521 13.3509 0.176791ZM20.7116 5.14701C20.4974 5.29639 20.3121 5.44458 20.3002 5.47619C20.288 5.50781 20.2362 5.53389 20.1848 5.53389C20.1335 5.53389 20.0912 5.55602 20.0912 5.58329C20.0908 5.61016 19.9821 5.70659 19.8497 5.79669C19.7173 5.88679 19.532 6.03656 19.4383 6.12904C19.345 6.22111 19.1941 6.34757 19.1035 6.40962C18.8751 6.56571 17.6085 7.822 17.3986 8.1006C17.3038 8.22667 17.1362 8.41912 17.0263 8.52898C16.9161 8.63845 16.7382 8.84513 16.6311 8.98818C16.5236 9.13124 16.3569 9.33002 16.26 9.4296C16.1636 9.52919 15.9869 9.75286 15.868 9.92674C15.749 10.1006 15.6135 10.282 15.5664 10.3302C15.5194 10.378 15.4807 10.4421 15.4807 10.4725C15.4807 10.527 15.1637 10.4452 14.9385 10.333C14.8752 10.3018 14.7567 10.2777 14.6749 10.2792C14.5662 10.282 14.597 10.3101 14.7891 10.3832C14.9341 10.4381 15.1041 10.5108 15.1669 10.5444C15.3981 10.6673 15.5151 10.6001 15.8024 10.1789C15.9609 9.94611 16.1395 9.70228 16.1996 9.63707C16.2592 9.57187 16.4655 9.32567 16.6584 9.09054C17.9381 7.5268 19.6165 5.95279 20.8243 5.18336L21.1942 4.94783L21.2962 5.19127C21.3519 5.32523 21.4432 5.55365 21.4985 5.69829C21.5886 5.93224 21.6001 5.94212 21.6032 5.78483C21.6048 5.68722 21.5768 5.58922 21.5408 5.56669C21.5044 5.54417 21.4748 5.4671 21.4748 5.39558C21.4748 5.26635 21.2262 4.87512 21.144 4.87512C21.1207 4.87512 20.9262 4.99723 20.7116 5.14701ZM24.2796 5.02727C24.21 5.07034 23.7417 5.37977 23.2382 5.71488C22.7351 6.05 22.3091 6.32426 22.2917 6.32426C22.2739 6.32426 22.1968 6.38274 22.1194 6.45467C21.9518 6.61116 21.8336 6.54358 21.7704 6.25431C21.7246 6.04644 21.6064 5.92473 21.6064 6.08596C21.6064 6.1401 21.6325 6.20056 21.6637 6.21993C21.6953 6.23969 21.7392 6.3452 21.7609 6.45467C21.8072 6.68466 21.9028 6.70205 22.1336 6.52185C22.2241 6.45072 22.3201 6.39223 22.3474 6.39144C22.3743 6.39065 22.6043 6.24166 22.858 6.06067C23.1117 5.87968 23.3465 5.73148 23.3797 5.73148C23.4129 5.73148 23.4496 5.70896 23.4619 5.68169C23.4919 5.61293 24.3025 5.09445 24.5048 5.01462C24.642 4.96009 24.6475 4.94942 24.5376 4.94902C24.4653 4.94902 24.3491 4.98419 24.2796 5.02727ZM24.1752 13.1155C24.0847 13.1894 23.9508 13.2996 23.8777 13.3601C23.4097 13.7478 22.9141 14.0588 22.2134 14.4034C22.0222 14.4974 21.8803 14.5895 21.8985 14.6077C21.9289 14.6381 22.4557 14.3935 22.7576 14.2086C22.8292 14.1647 23.0517 14.0287 23.2516 13.9062C23.4516 13.7837 23.6302 13.6644 23.6484 13.6411C23.6666 13.6178 23.8148 13.4964 23.9776 13.3716C24.1409 13.2467 24.2891 13.1257 24.3072 13.1032C24.325 13.0807 24.3843 13.0451 24.4388 13.0242C24.5266 12.991 24.5266 12.9863 24.4388 12.9839C24.3843 12.9823 24.2661 13.0412 24.1752 13.1155ZM21.636 14.6768C21.6017 14.7065 21.355 14.8017 21.0879 14.8883C20.8211 14.9748 20.6385 15.0578 20.6828 15.0724C20.7271 15.0874 20.827 15.0697 20.9049 15.0333C20.9828 14.9969 21.174 14.929 21.3298 14.8823C21.6123 14.7974 21.8992 14.629 21.768 14.6251C21.7297 14.6239 21.6704 14.6472 21.636 14.6768ZM20.2232 15.1534C20.1327 15.1843 19.8955 15.2526 19.6964 15.306C19.3474 15.3992 19.343 15.4028 19.581 15.4079C19.7169 15.4111 19.828 15.3838 19.828 15.3475C19.828 15.3111 19.9244 15.2807 20.0422 15.2791C20.1599 15.2779 20.3303 15.2344 20.4208 15.1827C20.5994 15.0807 20.488 15.0641 20.2232 15.1534ZM18.806 15.5048C18.685 15.5933 18.6874 15.6055 18.8747 15.8833C18.981 16.0414 19.2087 16.4374 19.3802 16.7634C19.5517 17.0894 19.6932 17.319 19.6944 17.2732C19.6956 17.2274 19.662 17.1234 19.6201 17.0424C19.5782 16.9614 19.5237 16.8507 19.4992 16.7966C19.3928 16.5634 19.083 16.0307 18.998 15.9351C18.9474 15.8778 18.9059 15.7988 18.9059 15.7592C18.9059 15.7201 18.8688 15.6739 18.8237 15.6569C18.772 15.6379 18.7905 15.6091 18.8731 15.5802C19.2355 15.4534 19.2786 15.4226 19.0996 15.4178C19.0071 15.4154 18.8747 15.4546 18.806 15.5048ZM19.73 17.4882C19.7545 17.5605 19.8236 17.768 19.8837 17.949C19.9691 18.2066 19.9975 18.2446 20.0149 18.1224C20.0268 18.0371 20.0046 17.9347 19.9655 17.8952C19.926 17.8561 19.894 17.7763 19.894 17.7182C19.894 17.6597 19.8469 17.5546 19.7896 17.4842C19.6869 17.3582 19.6861 17.3582 19.73 17.4882ZM13.3221 23.4408C13.3339 27.0575 13.3177 28.9161 13.2742 28.9173C13.2379 28.9184 13.2612 28.9505 13.326 28.988C13.424 29.0449 13.5062 28.9943 13.8105 28.69C14.0121 28.4881 14.2038 28.3399 14.2362 28.3597C14.2686 28.3798 14.2951 28.3502 14.2951 28.2937C14.2951 28.2372 14.3176 28.1909 14.3445 28.1909C14.3717 28.1909 14.3856 25.968 14.3753 23.2511C14.3587 18.8468 14.3674 18.3113 14.4575 18.3113C14.5132 18.3113 14.5587 18.341 14.5587 18.3773C14.5587 18.4133 14.6567 18.4429 14.776 18.4429C14.8954 18.4429 15.0254 18.4753 15.0649 18.5145C15.1041 18.554 15.2064 18.5745 15.2922 18.5603C15.4175 18.5398 15.3902 18.518 15.1515 18.4489C14.9883 18.4014 14.7958 18.3382 14.7235 18.3086C14.6508 18.2789 14.5026 18.2394 14.3939 18.2212C14.2852 18.2027 14.0777 18.1576 13.9331 18.1209C13.788 18.0841 13.5873 18.0339 13.4869 18.0098L13.3043 17.966L13.3221 23.4408ZM20.0627 18.469C20.1892 18.9729 19.3589 19.5973 16.9299 20.8255C15.649 21.4728 15.4613 21.5084 15.8605 21.0278C16.1668 20.6591 16.4699 20.1312 16.4663 19.9719C16.4636 19.8209 16.277 20.1414 16.2735 20.3039C16.2723 20.3671 16.2415 20.4189 16.2055 20.4189C16.1691 20.4189 16.1395 20.456 16.1395 20.5014C16.1395 20.5465 15.9921 20.7469 15.8123 20.946C15.4981 21.2938 15.4131 21.489 15.5408 21.568C15.6036 21.6068 16.0245 21.4104 16.0628 21.3246C16.0747 21.2973 16.1193 21.276 16.1616 21.2768C16.2596 21.2788 17.6144 20.6002 17.6437 20.5342C17.6555 20.507 17.7081 20.4848 17.7602 20.4848C17.812 20.4848 17.9721 20.4109 18.1155 20.3201C18.259 20.2296 18.3926 20.1557 18.4119 20.1557C18.4692 20.1557 19.0024 19.7984 19.0269 19.7439C19.0387 19.7166 19.0905 19.6945 19.1419 19.6945C19.1933 19.6945 19.2352 19.6668 19.2352 19.6332C19.2352 19.5992 19.2956 19.5526 19.3687 19.5293C19.8165 19.387 20.4536 18.3113 20.0904 18.3113C20.0524 18.3113 20.0406 18.3801 20.0627 18.469ZM15.5467 18.6737C15.5917 18.7279 15.6684 18.7725 15.7166 18.7725C15.8138 18.7725 16.2592 19.191 16.3826 19.3981C16.4438 19.5008 16.462 19.5068 16.4651 19.4254C16.4703 19.2776 16.0861 18.8689 15.7917 18.7097C15.4953 18.5492 15.4364 18.5405 15.5467 18.6737Z" fill="white"/>
<path fill-rule="evenodd" clip-rule="evenodd" d="M28.1275 9.90638C28.1275 13.4986 28.1153 14.0206 28.0287 14.0538C27.9426 14.087 27.9299 14.5624 27.9299 17.782V21.4726H30.0708H32.2116V21.0845C32.2116 20.8004 32.2381 20.6862 32.3104 20.6585C32.3958 20.6257 32.4092 20.274 32.4092 18.0499V15.4789H33.1008C33.5178 15.4789 33.7924 15.5049 33.7924 15.5448C33.7924 15.5879 35.0219 15.6108 37.3493 15.6108H40.9062V15.4085C40.9062 15.2971 40.9504 15.1615 41.005 15.1074C41.0907 15.0216 41.1038 14.4198 41.1038 10.5015V5.99447H35.9728C31.4734 5.99447 30.8379 5.98261 30.8043 5.89567C30.7727 5.81268 30.5592 5.79688 29.4471 5.79688H28.1275V9.90638ZM68.8998 9.34957C68.8998 11.4278 68.8765 12.5877 68.8338 12.6138C68.7912 12.6403 68.7682 14.2174 68.7682 17.1295V21.6042H70.1772C71.3691 21.6042 71.592 21.6196 71.6244 21.703C71.654 21.7808 71.7892 21.8018 72.2571 21.8018H72.8519V21.2422C72.8519 20.9126 72.8792 20.6822 72.9179 20.6822C72.9602 20.6822 72.9835 19.9468 72.9835 18.6075C72.9835 16.8071 72.9966 16.5328 73.0823 16.5328C73.1369 16.5328 73.1811 16.5771 73.1811 16.6316C73.1811 16.6857 73.2108 16.7304 73.2471 16.7304C73.2835 16.7304 73.3131 16.7897 73.3131 16.862C73.3131 16.9355 73.357 16.994 73.4119 16.994C73.4661 16.994 73.5107 17.0382 73.5107 17.0928C73.5107 17.1469 73.5404 17.1916 73.5763 17.1916C73.6127 17.1916 73.6431 17.2433 73.6443 17.3066C73.6471 17.4492 73.7953 17.6524 73.8964 17.6524C73.9379 17.6524 73.9715 17.697 73.9715 17.7512C73.9715 17.8057 74.0012 17.85 74.0375 17.85C74.0739 17.85 74.1035 17.9092 74.1035 17.9819C74.1035 18.0551 74.1474 18.1135 74.2023 18.1135C74.2565 18.1135 74.3011 18.1578 74.3011 18.2123C74.3011 18.2665 74.3308 18.3111 74.3667 18.3111C74.4031 18.3111 74.4327 18.3593 74.4327 18.4186C74.4327 18.4779 74.5363 18.6241 74.6631 18.7435C74.79 18.8632 74.894 19.0221 74.894 19.0971C74.894 19.1742 74.9366 19.2331 74.9928 19.2331C75.0469 19.2331 75.0916 19.2777 75.0916 19.3319C75.0916 19.3864 75.1212 19.4307 75.1572 19.4307C75.1935 19.4307 75.2232 19.4793 75.2232 19.5382C75.2232 19.5974 75.3267 19.7437 75.4536 19.863C75.5804 19.9828 75.6844 20.142 75.6844 20.2167C75.6844 20.2918 75.716 20.353 75.7547 20.353C75.863 20.353 76.0136 20.5277 76.0136 20.6534C76.0136 20.715 76.1171 20.8632 76.244 20.983C76.3708 21.1023 76.4748 21.2347 76.4748 21.277C76.4748 21.3193 76.5759 21.4552 76.6996 21.5789L76.9241 21.8038L79.1531 21.7864L81.3817 21.769L81.4026 21.5544C81.4168 21.4066 81.3911 21.3276 81.32 21.3003C81.2635 21.2786 81.2173 21.2047 81.2173 21.1363C81.2173 21.0675 81.1876 21.0114 81.1513 21.0114C81.1149 21.0114 81.0853 20.9672 81.0853 20.9126C81.0853 20.8585 81.041 20.8138 80.9865 20.8138C80.9323 20.8138 80.8877 20.7601 80.8877 20.6945C80.8877 20.6289 80.8284 20.5119 80.7561 20.4341C80.6837 20.3562 80.6245 20.2629 80.6245 20.227C80.6245 20.191 80.5501 20.0871 80.4596 19.9966C80.3691 19.9061 80.2948 19.7903 80.2948 19.7393C80.2948 19.6883 80.2209 19.5911 80.1304 19.5232C80.0399 19.4552 79.9656 19.3623 79.9656 19.3165C79.9656 19.2706 79.936 19.2331 79.8996 19.2331C79.8637 19.2331 79.834 19.1782 79.834 19.1106C79.834 19.0434 79.7597 18.9328 79.6692 18.8644C79.5787 18.7964 79.5044 18.6739 79.5044 18.5917C79.5044 18.5099 79.4728 18.4427 79.4341 18.4427C79.3274 18.4427 79.1752 18.2688 79.1752 18.1463C79.1752 18.0242 79.0231 17.85 78.9164 17.85C78.8776 17.85 78.846 17.7867 78.846 17.7097C78.846 17.6326 78.7421 17.4714 78.6152 17.352C78.4884 17.2323 78.3848 17.0857 78.3848 17.0264C78.3848 16.9047 78.2327 16.7304 78.1259 16.7304C78.0872 16.7304 78.0556 16.6691 78.0556 16.5941C78.0556 16.4482 77.9129 16.2692 77.7967 16.2692C77.758 16.2692 77.726 16.1953 77.726 16.1048C77.726 16.0143 77.6964 15.94 77.6604 15.94C77.624 15.94 77.5944 15.8954 77.5944 15.8412C77.5944 15.7867 77.5648 15.7424 77.5284 15.7424C77.4924 15.7424 77.4628 15.697 77.4628 15.6417C77.4628 15.5859 77.4181 15.5235 77.364 15.503C77.2514 15.4595 77.2284 15.2813 77.3355 15.2813C77.4122 15.2813 77.5944 15.1192 77.5944 15.0509C77.5944 14.9959 77.7699 14.8205 77.8248 14.8205C77.8932 14.8205 78.0556 14.6383 78.0556 14.5616C78.0556 14.5229 78.0872 14.4909 78.1259 14.4909C78.2026 14.4909 78.3848 14.3289 78.3848 14.2605C78.3848 14.2056 78.5603 14.0301 78.6152 14.0301C78.6836 14.0301 78.846 13.8479 78.846 13.7713C78.846 13.7325 78.8776 13.7005 78.9164 13.7005C78.993 13.7005 79.1752 13.5385 79.1752 13.4701C79.1752 13.4152 79.3507 13.2397 79.4056 13.2397C79.474 13.2397 79.6364 13.0576 79.6364 12.9809C79.6364 12.9422 79.668 12.9102 79.7068 12.9102C79.7834 12.9102 79.9656 12.7481 79.9656 12.6798C79.9656 12.6248 80.1411 12.4494 80.196 12.4494C80.2644 12.4494 80.4268 12.2672 80.4268 12.1905C80.4268 12.1518 80.4585 12.1198 80.4972 12.1198C80.5739 12.1198 80.7561 11.9578 80.7561 11.8894C80.7561 11.8345 80.9315 11.659 80.9865 11.659C81.0548 11.659 81.2173 11.4768 81.2173 11.4002C81.2173 11.3614 81.2489 11.3294 81.2876 11.3294C81.3789 11.3294 81.5465 11.1619 81.5465 11.071C81.5465 11.0319 81.5761 11.0002 81.6125 11.0002C81.6484 11.0002 81.6781 10.941 81.6781 10.8687C81.6781 10.739 81.6342 10.7367 79.0409 10.7367H76.404L76.1159 11.033C75.9575 11.1963 75.7954 11.3294 75.7559 11.3294C75.7164 11.3294 75.6844 11.3579 75.6844 11.3923C75.6844 11.4741 75.0382 12.1198 74.9564 12.1198C74.922 12.1198 74.894 12.1518 74.894 12.1905C74.894 12.2672 74.7315 12.4494 74.6631 12.4494C74.6082 12.4494 74.4327 12.6248 74.4327 12.6798C74.4327 12.7481 74.2506 12.9102 74.1739 12.9102C74.1352 12.9102 74.1035 12.9422 74.1035 12.9809C74.1035 13.0576 73.9411 13.2397 73.8727 13.2397C73.8178 13.2397 73.6423 13.4152 73.6423 13.4701C73.6423 13.5385 73.4601 13.7005 73.3835 13.7005C73.3447 13.7005 73.3131 13.7325 73.3131 13.7713C73.3131 13.8626 73.1455 14.0301 73.0543 14.0301C73.0049 14.0301 72.9835 13.0919 72.9835 10.9343C72.9835 8.22646 72.9962 7.83878 73.0823 7.83878C73.1653 7.83878 73.1811 7.69968 73.1811 6.98242V6.12646H71.0407H68.8998V9.34957ZM82.9957 10.5391V14.9521H87.7382H92.4807V17.2572V19.5627H88.6602C86.1573 19.5627 84.8397 19.5398 84.8397 19.4967C84.8397 19.4556 84.4552 19.4307 83.8173 19.4307H82.7949L82.8127 20.6L82.8309 21.769L89.2364 21.7856C93.4307 21.7966 95.6423 21.8251 95.6423 21.8682C95.6423 21.9069 95.8968 21.9338 96.2679 21.9338H96.8935V17.7512C96.8935 15.007 96.9165 13.5689 96.9595 13.5689C96.9963 13.5689 97.0255 13.3935 97.0255 13.1738V12.7786H92.217H87.4086V10.6379V8.49755H92.0523C95.1044 8.49755 96.6959 8.47503 96.6959 8.43156C96.6959 8.3952 96.7406 8.36556 96.7947 8.36556C96.8564 8.36556 96.8935 8.30352 96.8935 8.20117C96.8935 8.11067 96.9232 8.03638 96.9595 8.03638C96.9959 8.03638 97.0255 7.936 97.0255 7.8127C97.0255 7.67518 97.0631 7.5748 97.1243 7.55149C97.1785 7.53054 97.2231 7.45348 97.2231 7.37998C97.2231 7.30608 97.2528 7.24601 97.2887 7.24601C97.3251 7.24601 97.3547 7.14247 97.3547 7.01562C97.3547 6.88876 97.3844 6.78483 97.4207 6.78483C97.4567 6.78483 97.4863 6.68129 97.4863 6.55444V6.32405H93.0055C89.0831 6.32405 88.5195 6.3114 88.4863 6.22525C88.4535 6.1395 88.0848 6.12646 85.7222 6.12646H82.9957V10.5391ZM98.804 11.4215C98.804 15.9088 98.7921 16.5233 98.7044 16.5569C98.6174 16.5901 98.6068 16.9236 98.6218 19.1821L98.6392 21.769L99.5778 21.7872C100.129 21.7978 100.516 21.8318 100.516 21.8698C100.516 21.9089 100.978 21.9338 101.702 21.9338H102.888V17.5208V13.1078H104.534H106.18L106.197 17.5042L106.214 21.9006L108.338 21.918L110.463 21.9354V16.402V10.8687H106.741H103.019V8.59635V6.32405H100.912H98.804V11.4215ZM111.911 8.13438V9.94629H113.953H115.995V8.37268C115.995 7.00495 116.009 6.79392 116.099 6.75954C116.166 6.73346 116.195 6.65679 116.181 6.53824L116.16 6.35685L114.036 6.33946L111.911 6.32207V8.13438ZM130.881 8.72992C130.881 10.6908 130.868 11.0097 130.783 11.0421C130.696 11.0757 130.684 11.7511 130.684 16.5727V22.0654H132.825H134.965V19.0754C134.965 16.4787 134.978 16.0807 135.064 16.0479C135.151 16.0147 135.163 15.4184 135.163 11.233V6.45564H133.022H130.881V8.72992ZM144.121 7.97038C144.121 8.9366 144.097 9.48551 144.055 9.48551C144.015 9.48551 143.989 9.7819 143.989 10.2427V11.0002H140.202H136.414V14.6557C136.414 17.8776 136.402 18.3111 136.315 18.3111C136.227 18.3111 136.217 18.5455 136.232 20.1716L136.25 22.0326L142.161 22.0492L148.073 22.0662V19.7935C148.073 17.8172 148.086 17.5208 148.172 17.5208C148.259 17.5208 148.27 16.862 148.27 11.9882V6.45564H146.196H144.121V7.97038ZM36.6245 10.8027V13.2397H34.5168H32.4092V10.8027V8.36556H34.5168H36.6245V10.8027ZM42.355 13.7713C42.355 16.6735 42.3415 17.1485 42.2562 17.2339C42.1728 17.3172 42.1574 17.6504 42.1574 19.4026V21.4726H45.0226C46.8892 21.4726 47.8879 21.4955 47.8879 21.5386C47.8879 21.5813 48.8759 21.6042 50.7203 21.6042H53.5528V21.4398C53.5528 21.337 53.5899 21.275 53.6516 21.275C53.7065 21.275 53.7504 21.2165 53.7504 21.1434C53.7504 21.0707 53.78 21.0114 53.816 21.0114C53.8523 21.0114 53.882 20.9375 53.882 20.847C53.882 20.7565 53.9116 20.6822 53.948 20.6822C53.9839 20.6822 54.0136 20.6083 54.0136 20.5174C54.0136 20.4151 54.0511 20.353 54.1124 20.353C54.174 20.353 54.2112 20.2906 54.2112 20.1882C54.2112 20.0978 54.2408 20.0235 54.2772 20.0235C54.3135 20.0235 54.3432 19.8903 54.3432 19.7271V19.4307H50.3911H46.4391V18.4759V17.5208H50.2263H54.0136V14.0301V10.5391H50.7243C48.6024 10.5391 47.4203 10.5158 47.3939 10.4735C47.3682 10.4312 46.4493 10.4075 44.8543 10.4075H42.355V13.7713ZM55.792 14.8794C55.792 18.7063 55.7802 19.2236 55.6916 19.2576C55.6063 19.2904 55.594 19.4643 55.6094 20.4337L55.6276 21.5714L61.1439 21.5884L66.6602 21.605V21.3742C66.6602 21.213 66.6902 21.1434 66.759 21.1434C66.8207 21.1434 66.8578 21.081 66.8578 20.9786C66.8578 20.8881 66.8875 20.8138 66.9238 20.8138C66.9602 20.8138 66.9898 20.7431 66.9898 20.6561C66.9898 20.5696 67.0341 20.4815 67.0886 20.4609C67.1428 20.44 67.1874 20.3625 67.1874 20.289C67.1874 20.2155 67.2171 20.1554 67.253 20.1554C67.2894 20.1554 67.319 20.0515 67.319 19.9247C67.319 19.7978 67.3487 19.6943 67.385 19.6943C67.421 19.6943 67.4506 19.635 67.4506 19.5627C67.4506 19.4323 67.4068 19.4307 63.6634 19.4307H59.8761V16.1941C59.8761 13.1892 59.8844 12.9517 59.9911 12.8703C60.0836 12.8003 60.7795 12.7825 63.4824 12.7805C66.4381 12.779 66.8578 12.7663 66.8578 12.6798C66.8578 12.6252 66.8875 12.581 66.9238 12.581C66.9602 12.581 66.9898 12.477 66.9898 12.3506C66.9898 12.1894 67.0195 12.1198 67.0886 12.1198C67.1499 12.1198 67.1874 12.0578 67.1874 11.9554C67.1874 11.8649 67.2171 11.7906 67.253 11.7906C67.2894 11.7906 67.319 11.6867 67.319 11.5602C67.319 11.4334 67.3487 11.3294 67.385 11.3294C67.4214 11.3294 67.4506 11.154 67.4506 10.9343V10.5391H61.6213H55.792V14.8794ZM111.911 11.1907C111.911 11.4164 111.882 11.5243 111.813 11.5511C111.726 11.5843 111.714 12.2245 111.714 16.7612V21.9338H113.789H115.863V20.7482C115.863 20.0017 115.888 19.5627 115.929 19.5627C115.973 19.5627 115.995 18.0697 115.995 15.2157V10.8687H113.953H111.911V11.1907ZM117.291 10.9125C117.266 10.9366 117.247 13.4263 117.247 16.4451V21.9338H122.944H128.642V21.769C128.642 21.6785 128.671 21.6042 128.706 21.6042C128.742 21.6042 128.79 21.5303 128.812 21.4398C128.835 21.3493 128.88 21.275 128.912 21.275C128.945 21.275 128.971 21.1711 128.971 21.0446C128.971 20.9178 129.001 20.8138 129.037 20.8138C129.073 20.8138 129.103 20.7399 129.103 20.6494C129.103 20.5467 129.14 20.4846 129.202 20.4846C129.256 20.4846 129.3 20.4269 129.3 20.357C129.3 20.2866 129.33 20.2108 129.367 20.1882C129.403 20.1657 129.432 20.0898 129.432 20.0195C129.432 19.895 129.356 19.8919 126.271 19.8919C123.504 19.8919 123.109 19.8796 123.109 19.7931C123.109 19.7105 122.97 19.6943 122.253 19.6943H121.396V18.7723V17.85H124.064C125.799 17.85 126.732 17.8733 126.732 17.9159C126.732 17.9574 127.149 17.9819 127.852 17.9819H128.971V14.4909C128.971 11.4322 128.959 11.0002 128.872 11.0002C128.818 11.0002 128.774 10.9706 128.774 10.9343C128.774 10.86 117.365 10.8382 117.291 10.9125ZM49.7983 13.9641V15.1497H48.1187H46.4391V13.9641V12.7786H48.1187H49.7983V13.9641ZM124.888 13.7993C124.888 14.253 124.869 14.3593 124.789 14.3593C124.708 14.3593 124.69 14.4727 124.69 14.9849V15.6108H123.109H121.528V14.4253V13.2397H123.208H124.888V13.7993ZM143.989 16.5656V19.8919H142.244H140.498V16.7375C140.498 13.9942 140.511 13.578 140.597 13.5452C140.651 13.5243 140.696 13.4468 140.696 13.3733C140.696 13.2425 140.731 13.2397 142.342 13.2397H143.989V16.5656Z" fill="white"/>
</svg>
