<svg width="1200" height="1200" viewBox="0 0 1200 1200" fill="none" xmlns="http://www.w3.org/2000/svg">
<rect width="1200" height="1200" rx="600" fill="#332A18"/>
<path fill-rule="evenodd" clip-rule="evenodd" d="M919.73 459.998L781.281 811.564H601.521L421.76 811.564L283.311 460.417L444.649 572.628L470.329 344.299L601.521 541.365L601.521 541.043L732.712 343.741L758.392 572.343L919.73 459.998Z" fill="white"/>
<path fill-rule="evenodd" clip-rule="evenodd" d="M919.73 459.998L781.281 811.564H601.521L421.76 811.564L283.311 460.417L444.649 572.628L470.329 344.299L601.521 541.365L601.521 541.043L732.712 343.741L758.392 572.343L919.73 459.998Z" fill="url(#paint0_linear)"/>
<path d="M663.488 636.27L732.712 343.741L601.521 541.366L663.488 636.27Z" fill="#FFD07A"/>
<path d="M438.508 624.546L283.311 461.534L421.76 811.564H557.418L470.329 344.299L438.508 624.546Z" fill="#FFD07A"/>
<circle cx="457.41" cy="296.745" r="53.4045" fill="#FFD07A"/>
<mask id="mask0" mask-type="alpha" maskUnits="userSpaceOnUse" x="404" y="243" width="107" height="108">
<circle cx="457.41" cy="296.745" r="53.4045" fill="#5C0505"/>
</mask>
<g mask="url(#mask0)">
<circle cx="473.431" cy="291.404" r="53.4045" fill="white"/>
<circle cx="473.431" cy="291.404" r="53.4045" fill="url(#paint1_linear)"/>
</g>
<circle cx="253.405" cy="418.507" r="53.4045" fill="#FFD07A"/>
<mask id="mask1" mask-type="alpha" maskUnits="userSpaceOnUse" x="200" y="365" width="107" height="107">
<circle cx="253.405" cy="418.507" r="53.4045" fill="#795204"/>
</mask>
<g mask="url(#mask1)">
<circle cx="268.358" cy="406.759" r="53.4045" fill="white"/>
<circle cx="268.358" cy="406.759" r="53.4045" fill="url(#paint2_linear)"/>
</g>
<circle cx="729.773" cy="291.405" r="53.4045" fill="#FFD07A"/>
<mask id="mask2" mask-type="alpha" maskUnits="userSpaceOnUse" x="676" y="238" width="108" height="107">
<circle cx="729.773" cy="291.405" r="53.4045" fill="#5C0505"/>
</mask>
<g mask="url(#mask2)">
<circle cx="751.135" cy="291.405" r="53.4045" fill="white"/>
<circle cx="751.135" cy="291.405" r="53.4045" fill="url(#paint3_linear)"/>
</g>
<circle cx="946.595" cy="414.235" r="53.4045" fill="#FFD07A"/>
<mask id="mask3" mask-type="alpha" maskUnits="userSpaceOnUse" x="893" y="360" width="107" height="108">
<circle cx="946.595" cy="414.235" r="53.4045" fill="white"/>
<circle cx="946.595" cy="414.235" r="53.4045" fill="url(#paint4_linear)"/>
</mask>
<g mask="url(#mask3)">
<circle cx="967.957" cy="414.235" r="53.4045" fill="white"/>
<circle cx="967.957" cy="414.235" r="53.4045" fill="url(#paint5_linear)"/>
</g>
<path d="M290.788 897.012C290.788 849.82 329.044 811.564 376.235 811.564H505.474V961.564H290.788V897.012Z" fill="#FFD07A"/>
<path d="M505.474 811.564H825.901C873.093 811.564 911.349 849.82 911.349 897.012V961.564H505.474V811.564Z" fill="white"/>
<path d="M505.474 811.564H825.901C873.093 811.564 911.349 849.82 911.349 897.012V961.564H505.474V811.564Z" fill="url(#paint6_linear)"/>
<defs>
<linearGradient id="paint0_linear" x1="601.521" y1="343.741" x2="601.521" y2="811.564" gradientUnits="userSpaceOnUse">
<stop stop-color="white" stop-opacity="0"/>
<stop offset="1" stop-color="#FFD07A"/>
</linearGradient>
<linearGradient id="paint1_linear" x1="473.431" y1="238" x2="473.431" y2="344.809" gradientUnits="userSpaceOnUse">
<stop stop-color="white" stop-opacity="0"/>
<stop offset="1" stop-color="#FFD07A"/>
</linearGradient>
<linearGradient id="paint2_linear" x1="268.358" y1="353.354" x2="268.358" y2="460.163" gradientUnits="userSpaceOnUse">
<stop stop-color="white" stop-opacity="0"/>
<stop offset="1" stop-color="#FFD07A"/>
</linearGradient>
<linearGradient id="paint3_linear" x1="751.135" y1="238" x2="751.135" y2="344.809" gradientUnits="userSpaceOnUse">
<stop stop-color="white" stop-opacity="0"/>
<stop offset="1" stop-color="#FFD07A"/>
</linearGradient>
<linearGradient id="paint4_linear" x1="946.595" y1="360.831" x2="946.595" y2="467.64" gradientUnits="userSpaceOnUse">
<stop stop-color="white"/>
<stop offset="1" stop-color="white" stop-opacity="0"/>
</linearGradient>
<linearGradient id="paint5_linear" x1="967.957" y1="360.831" x2="967.957" y2="467.64" gradientUnits="userSpaceOnUse">
<stop stop-color="white" stop-opacity="0"/>
<stop offset="1" stop-color="#FFD07A"/>
</linearGradient>
<linearGradient id="paint6_linear" x1="708.411" y1="811.564" x2="708.411" y2="961.564" gradientUnits="userSpaceOnUse">
<stop stop-color="white" stop-opacity="0"/>
<stop offset="1" stop-color="#FFD07A"/>
</linearGradient>
</defs>
</svg>
