<svg width="222" height="62" viewBox="0 0 222 62" fill="none" xmlns="http://www.w3.org/2000/svg">
<g clip-path="url(#clip0)">
<path d="M23.1981 -0.25C26.039 3.49594 28.8799 7.26217 31.7208 10.9797C34.026 13.9627 34.0382 13.9302 31.9927 17.0674C29.6875 20.6347 27.3499 24.1899 25.134 27.8222C24.7194 28.5971 24.6094 29.4989 24.8255 30.3506C25.487 32.668 26.388 34.9205 27.1916 37.181C22.2038 40.0706 23.746 40.2086 18.6689 37.1404C19.4197 35.03 20.138 32.8709 20.9578 30.7443C21.1908 30.2347 21.2821 29.6718 21.2221 29.1147C21.1621 28.5576 20.953 28.027 20.6169 27.5787C17.6745 23.1144 14.8458 18.6015 11.8872 13.9627L22.776 -0.241883L23.1981 -0.25Z" fill="white"/>
<path d="M16.1526 35.7321V61.0121L2.75977 47.8019L16.1526 35.7321Z" fill="white"/>
<path d="M43.2346 47.9683L29.8376 60.8944V35.9066L43.2346 47.9683Z" fill="white"/>
<path d="M200.787 21.8602L214.809 36.4016L215.296 36.2109V23.094H217.886V42.7287C213.304 38.443 208.523 33.9869 203.653 29.417V42.5745H200.812L200.787 21.8602Z" fill="white"/>
<path d="M140.296 34.454L146.096 42.4937C143.843 43.135 142.472 42.5627 141.368 40.6837C140.106 38.5327 138.49 36.5887 137.029 34.5514L136.502 34.7543V42.5952H133.774V22.7454C136.351 23.0782 138.949 23.1958 141.429 23.8046C143.316 24.2713 144.318 25.915 144.521 27.8996C144.748 30.1195 144.225 32.0595 142.261 33.3785C141.709 33.7316 141.096 34.0116 140.296 34.454ZM136.416 25.639V29.5635C136.416 32.3273 137.139 32.8103 139.756 31.816C141.266 31.2356 141.875 30.1317 141.786 28.5083C141.709 26.9621 140.816 26.1829 139.481 25.8704C138.596 25.6634 137.642 25.7202 136.416 25.639Z" fill="white"/>
<path d="M76.5949 25.8461L75.0487 26.7714C73.6079 26.2113 72.3863 25.3469 71.2094 25.4037C70.2516 25.4483 68.9367 26.4264 68.5633 27.3193C68.3238 27.8875 69.31 29.3485 70.0974 29.8923C71.3961 30.8055 73.056 31.187 74.4237 32.0271C76.8831 33.5328 77.6704 35.6797 77.0738 38.4638C76.5706 40.7446 74.2695 42.7454 71.737 43.1107C70.4907 43.2683 69.2258 43.0467 68.1073 42.4748C66.9888 41.9029 66.0686 41.0072 65.4667 39.9045C65.1014 39.2024 64.8417 38.4435 64.4196 37.4451L67.2605 36.8404C67.4675 37.3842 67.5203 38.1431 67.9221 38.4638C68.9204 39.2267 70.1055 40.3225 71.1688 40.2698C72.2321 40.217 73.6039 39.1375 74.1802 38.131C74.3486 37.8302 74.4557 37.4991 74.4954 37.1567C74.5351 36.8143 74.5066 36.4674 74.4115 36.1361C74.3164 35.8048 74.1567 35.4956 73.9414 35.2264C73.7262 34.9572 73.4597 34.7333 73.1574 34.5677C71.5341 33.5977 69.7565 32.9443 68.1331 31.9824C65.2922 30.3266 64.6631 27.0758 66.6234 24.7503C69.4156 21.4264 74.0422 21.8728 76.5949 25.8461Z" fill="white"/>
<path d="M90.5397 34.6079V42.5828H87.9139V22.7979C90.4139 23.0414 92.9099 23.0454 95.2841 23.5811C97.7191 24.129 99.0097 26.8279 98.6769 29.7703C98.3847 32.3311 96.0795 34.3888 93.2102 34.5998C92.4188 34.6566 91.6396 34.6079 90.5397 34.6079ZM90.5397 25.6428V29.3319C90.5397 32.2824 91.2378 32.7816 93.9488 31.767C95.3896 31.2354 96.0592 30.1883 96.0186 28.6582C95.9781 27.1282 95.1501 26.1095 93.6607 25.8173C92.7435 25.6388 91.7857 25.7037 90.5316 25.6428H90.5397Z" fill="white"/>
<path d="M191.214 42.4975C188.916 43.3092 187.967 42.3555 187.224 40.4683C185.666 36.5438 183.868 32.7167 181.948 28.3214C181.201 29.7824 180.649 30.7848 180.166 31.8238C178.807 34.754 177.326 37.6436 176.185 40.655C175.446 42.599 174.302 43.0454 172.265 42.5219L181.912 21.8806L191.214 42.4975Z" fill="white"/>
<path d="M114.55 21.9009C117.796 29.0843 120.824 35.8051 123.839 42.4894C121.591 43.301 120.593 42.3392 119.842 40.5129C118.247 36.5965 116.502 32.741 114.602 28.366C113.888 29.6931 113.36 30.5778 112.926 31.5072C111.526 34.5145 110.053 37.4691 108.847 40.5372C108.101 42.4488 107.062 43.2483 104.895 42.5218L114.55 21.9009Z" fill="white"/>
<path d="M25.4464 28.4635C28.4821 23.7597 31.3555 19.2995 34.448 14.5024C36.8385 17.5584 39.0828 20.4196 41.3474 23.3336C36.5381 26.6331 31.2743 27.7817 25.4464 28.4635Z" fill="white"/>
<path d="M20.3774 28.4838C13.9204 27.8304 8.65257 26.1421 4.42773 23.3661L11.3271 14.5024L20.3774 28.4838Z" fill="white"/>
<path d="M158.462 42.5826V25.8578C156.197 25.2693 153.133 26.7872 152.342 23.1265H168.17C166.952 24.2141 166.214 25.2653 165.252 25.594C164.164 25.9593 162.861 25.6752 161.372 25.6752V42.5826H158.462Z" fill="white"/>
<path d="M31.3718 35.7727C34.2127 36.2273 37.0536 36.6453 39.8945 37.185C40.1542 37.2819 40.3889 37.4357 40.5813 37.6351C40.7738 37.8346 40.9191 38.0746 41.0065 38.3376C41.7862 41.0331 42.3561 43.7848 42.7111 46.5682L31.2379 36.138L31.3718 35.7727Z" fill="white"/>
<path d="M14.4156 36.2721L3.27919 46.4182L2.84088 46.2031C3.5714 43.3906 4.25322 40.6024 5.02432 37.794C5.10143 37.514 5.62091 37.2299 5.974 37.169C8.7378 36.682 11.5097 36.2477 14.2776 35.7972L14.4156 36.2721Z" fill="white"/>
<path d="M37.0333 9.20621L34.3628 13.2647L24.8499 1.08933L25.0812 0.82959L37.0333 9.20621Z" fill="white"/>
<path d="M20.7143 1.39358L11.4732 13.2442L8.81494 9.21014L20.3612 1.06079L20.7143 1.39358Z" fill="white"/>
<path d="M40.9091 21.5602C39.3385 19.5513 37.8572 17.4693 36.1648 15.5618C35.0163 14.2712 34.9473 13.2039 36.0593 11.9498C36.4935 11.4547 36.8344 10.8784 37.4635 9.99768C38.8028 14.0318 40.0284 17.7331 41.2541 21.4303L40.9091 21.5602Z" fill="white"/>
<path d="M4.61847 21.2639L8.31977 10.2493C8.51051 10.3223 8.68097 10.3345 8.7459 10.4238C11.1039 13.6421 11.112 13.6705 8.70938 16.7387C7.49185 18.3215 6.2175 19.884 4.97155 21.4546L4.61847 21.2639Z" fill="white"/>
<path d="M4.26947 25.3669L8.25486 32.8345L3.94885 33.5406V25.5212L4.26947 25.3669Z" fill="white"/>
<path d="M41.7695 33.5447L37.5649 32.8142L41.4164 25.6794L41.7695 25.7809V33.5447Z" fill="white"/>
<path d="M4.58197 24.4783C6.61119 25.3995 8.13311 26.0327 9.58197 26.8159C9.88635 26.9783 10.0933 27.725 10.0122 28.1349C9.75648 29.3768 9.33441 30.57 8.83116 32.307L4.58197 24.4783Z" fill="white"/>
<path d="M41.2216 24.4497C39.6915 27.2581 38.474 29.5228 36.9399 32.3758C36.3799 30.2655 35.97 28.7232 35.5357 27.0999L41.2216 24.4497Z" fill="white"/>
<path d="M14.6307 34.9896L6.46106 36.3857C9.2208 32.7818 8.61609 32.8224 14.6307 34.9896Z" fill="white"/>
<path d="M39.4968 36.406L31.2703 34.9937C35.9132 32.7615 36.6802 32.867 39.4968 36.406Z" fill="white"/>
<path d="M41.7654 34.2875L40.8766 36.544C40.0649 35.574 39.4115 34.7908 38.5714 33.7883L41.7654 34.2875Z" fill="white"/>
<path d="M4.84169 36.3979L4.08276 34.2875L7.04948 33.7883L7.25241 34.1576L4.84169 36.3979Z" fill="white"/>
</g>
<defs>
<clipPath id="clip0">
<rect width="221.96" height="62" fill="white"/>
</clipPath>
</defs>
</svg>
