<svg width="40" height="40" viewBox="0 0 40 40" fill="none" xmlns="http://www.w3.org/2000/svg">
<circle cx="20" cy="20" r="20" fill="white"/>
<g clip-path="url(#clip0)">
<path fill-rule="evenodd" clip-rule="evenodd" d="M26.384 30.7791C26.706 31.0071 27.121 31.0641 27.491 30.9241C27.861 30.7831 28.133 30.4671 28.215 30.0841C29.084 26.0001 31.192 15.6631 31.983 11.9481C32.043 11.6681 31.943 11.3771 31.723 11.1901C31.503 11.0031 31.198 10.9491 30.926 11.0501C26.733 12.6021 13.82 17.4471 8.54203 19.4001C8.20703 19.5241 7.98903 19.8461 8.00003 20.1991C8.01203 20.5531 8.25003 20.8601 8.59303 20.9631C10.96 21.6711 14.067 22.6561 14.067 22.6561C14.067 22.6561 15.519 27.0411 16.276 29.2711C16.371 29.5511 16.59 29.7711 16.879 29.8471C17.167 29.9221 17.475 29.8431 17.69 29.6401C18.906 28.4921 20.786 26.7171 20.786 26.7171C20.786 26.7171 24.358 29.3361 26.384 30.7791ZM15.374 22.1021L17.053 27.6401L17.426 24.1331C17.426 24.1331 23.913 18.2821 27.611 14.9471C27.719 14.8491 27.734 14.6851 27.644 14.5701C27.555 14.4551 27.391 14.4281 27.268 14.5061C22.982 17.2431 15.374 22.1021 15.374 22.1021Z" fill="#121212"/>
</g>
<defs>
<clipPath id="clip0">
<rect width="24" height="24" fill="white" transform="translate(8 8)"/>
</clipPath>
</defs>
</svg>
