<svg xmlns:xlink="http://www.w3.org/1999/xlink" width="33" height="32" viewBox="0 0 33 32" fill="none" xmlns="http://www.w3.org/2000/svg"><path d="M16.002 32C24.8385 32 32.002 24.8366 32.002 16C32.002 7.16344 24.8385 0 16.002 0C7.1654 0 0.00195312 7.16344 0.00195312 16C0.00195312 24.8366 7.1654 32 16.002 32Z" fill="#CCB175"></path><path d="M26.0284 18.6321L27.4479 17.9223C27.6845 17.804 27.7437 17.4787 27.5662 17.2717L25.7918 12.9242C25.5256 12.2735 25.3777 11.6229 25.3186 10.9131C24.8454 4.93898 19.8176 0.266156 13.6956 0.35488C7.54406 0.443605 2.51634 5.44176 2.39804 11.6229C2.30931 17.0943 6.03574 21.7079 11.093 22.9501L10.5015 23.2754L6.62724 31.9704H17.1855L19.7881 26.2625C20.0838 25.6118 20.764 25.2273 21.4738 25.2569L23.8694 25.4639C24.6679 25.5231 25.3186 24.902 25.289 24.1035L25.2594 23.3345C25.2594 22.8022 25.4073 22.2994 25.703 21.8558V21.7079C25.703 21.4122 25.4664 21.146 25.1707 21.0869C24.1356 20.9094 23.5441 20.4066 23.5441 20.4066C24.2539 20.4066 25.1115 20.3179 25.6735 20.2292C25.9988 20.1996 26.2354 19.8743 26.1762 19.549L26.0284 18.6321Z" fill="#FFFFFF"></path><path d="M14.0799 23.2754L18.6344 13.7523C22.006 13.22 24.1058 6.68394 23.8988 6.29946C23.3368 5.23477 22.8341 4.67285 22.3017 4.08135C20.1428 1.62664 17.1261 0.295768 13.725 0.354918C7.48472 0.414067 2.39784 5.56009 2.39784 11.83C2.39784 14.9353 3.63999 17.7745 5.65108 19.8152C2.42742 20.0518 -0.0864466 22.7431 0.00227799 26.0259C0.0910026 29.2496 2.69359 31.8817 5.91725 31.9704C8.40154 32.0296 10.5605 30.6396 11.566 28.5693C11.566 28.5398 11.5956 28.5102 11.5956 28.4806L14.0799 23.2754Z" fill="#0000AE"></path><path d="M17.3334 3.28284C16.6236 6.09245 15.1448 8.72461 13.1633 10.854L17.1264 8.87249C15.3519 12.8059 12.4831 15.8817 8.99327 17.0351L12.4535 16.9168C9.73264 19.6673 6.09493 20.4067 2.7234 19.2237C2.7234 19.2237 2.69383 19.2237 2.69383 19.1941C1.39253 18.7209 1.15593 16.769 2.2502 15.8522L17.3334 3.28284Z" fill="#FFFFFF"></path><path d="M23.6619 14.7283C24.054 14.7283 24.3717 14.1986 24.3717 13.5453C24.3717 12.8919 24.054 12.3623 23.6619 12.3623C23.2699 12.3623 22.9521 12.8919 22.9521 13.5453C22.9521 14.1986 23.2699 14.7283 23.6619 14.7283Z" fill="#0000AE"></path></svg>