<svg width="370" height="63" viewBox="0 0 370 63" fill="none" xmlns="http://www.w3.org/2000/svg">
<path d="M36.5168 28.0675C39.682 31.8651 42.3522 35.9694 44.2015 40.5751C44.3261 40.8945 44.4474 40.9648 44.7796 40.837C48.1205 39.5371 51.4646 38.2563 54.8119 36.9659C54.847 36.9659 54.863 36.8957 54.9141 36.8222C54.5072 36.6478 54.1105 36.4505 53.7259 36.2313C53.4579 36.0541 53.2363 35.8152 53.0798 35.5345C52.9233 35.2538 52.8366 34.9397 52.8269 34.6185C52.8172 34.2973 52.8848 33.9785 53.024 33.6888C53.1633 33.3992 53.37 33.1473 53.6269 32.9543C53.8441 32.7914 54.0102 32.8744 54.2114 32.9543C56.6229 33.8614 59.0279 34.778 61.449 35.6532C61.8961 35.8129 61.861 36.0141 61.7332 36.3527C60.9699 38.3617 60.2193 40.3739 59.4623 42.3893C59.1685 43.1718 58.4786 43.1878 57.8174 43.207C57.1563 43.2261 56.9103 42.7694 56.7538 42.2168C56.5207 41.396 56.7283 40.5879 56.8209 39.7766C56.5015 39.6073 56.2811 39.8245 56.0607 39.9172C52.7709 41.2746 49.4907 42.6576 46.1977 43.9991C45.6739 44.2131 45.5366 44.4111 45.6899 44.9828C46.9984 50.0486 47.9747 55.1944 48.6124 60.3874C48.6699 60.8218 48.9318 61.3456 48.4175 61.7065C47.7787 62.1473 47.14 62.6455 46.3095 62.4603C45.5845 62.2974 45.2076 61.7991 45.1277 61.0421C44.6895 56.6285 43.8991 52.2569 42.7642 47.9692C42.6269 47.4549 42.4097 46.9599 42.3138 46.4425C42.1893 45.7717 41.9082 45.7781 41.3557 46.0049C28.8097 51.0194 16.2574 56.0233 3.69864 61.0166C3.24534 61.2412 2.76081 61.3962 2.26135 61.4765C1.44369 61.5436 1.05722 61.2497 0.983758 60.4289C0.951582 59.6592 1.10265 58.893 1.42453 58.1931C6.01108 46.4818 10.5955 34.7706 15.1778 23.0593C15.6058 21.9734 16.005 20.8715 16.4554 19.8015C16.679 19.2809 16.6055 19.086 16.0306 18.9327C13.4331 18.2572 10.7834 17.801 8.10953 17.5689C5.94081 17.3645 3.76571 17.2495 1.58423 17.2303C0.456752 17.2303 -0.0798366 16.6554 0.00959478 15.5215C0.0444259 15.2308 0.103182 14.9434 0.185264 14.6624C0.351351 14.0044 0.731434 13.7489 1.46286 13.7904C6.8743 14.1061 12.2574 14.7966 17.5733 15.8569C18.0684 15.9527 18.2632 15.8857 18.4325 15.397C19.6078 12.0199 20.8035 8.65769 22.0193 5.3104C22.2237 4.74826 22.1407 4.58217 21.5466 4.74826C21.0356 4.89198 20.5213 5.02613 20.0007 5.13473C19.8536 5.17902 19.6986 5.1912 19.5464 5.17044C19.3941 5.14968 19.2481 5.09647 19.1182 5.01441C18.9883 4.93235 18.8775 4.82334 18.7934 4.69477C18.7092 4.5662 18.6537 4.42105 18.6305 4.26916C18.3654 3.15765 18.656 2.53802 19.7005 2.0717C21.5901 1.21364 23.5568 0.536682 25.5742 0.0499122C26.0373 -0.058683 26.2705 -0.0171613 26.5005 0.44916C27.3628 2.18349 28.2508 3.90824 29.193 5.60105C29.6018 6.33886 29.2409 6.80198 28.8225 7.29066C28.6429 7.52753 28.3801 7.68734 28.0871 7.73774C27.7942 7.78814 27.4931 7.72538 27.2447 7.56215C26.3919 7.11819 25.8489 6.35163 25.2931 5.60744C25.0568 5.67451 25.06 5.88212 25.0025 6.04501C23.7249 9.56052 22.4473 13.0739 21.1697 16.5851C21.0419 16.9301 20.8279 17.2239 21.422 17.4315C26.1252 19.1708 30.4033 21.893 33.9712 25.4165C34.067 25.5091 34.1788 25.5826 34.2906 25.6656L36.5168 28.0675ZM10.0067 55.0055C10.3549 55.1237 10.6264 54.9097 10.9138 54.7915C16.5821 52.5153 22.2493 50.2326 27.9154 47.9436C32.0676 46.2668 36.2197 44.5708 40.4038 42.9227C40.9883 42.6927 41.0426 42.4596 40.7935 41.9645C40.3208 41.0414 39.9184 40.0832 39.4361 39.1698C37.8755 36.1401 35.9443 33.3163 33.6869 30.7632L31.5757 28.4188C28.3846 25.1403 24.611 22.4846 20.4479 20.5872C19.8091 20.2997 19.5631 20.3668 19.3012 21.0439C15.3535 31.2093 11.3865 41.3576 7.40046 51.4889C7.33339 51.6582 7.28867 51.7732 7.45795 51.8882C6.47101 53.2712 6.2123 54.9544 5.57351 56.4811C5.45214 56.775 5.7364 56.8389 5.95998 56.7335C7.29825 56.117 8.72916 55.7242 10.0067 55.0055Z" fill="#538DD0"/>
<path d="M241.835 37.8315C242.541 35.321 243.241 32.8297 243.937 30.3352C244.576 28.0356 245.237 25.7391 245.853 23.4298C246.01 22.8294 246.214 22.5004 246.898 22.6154C247.309 22.6476 247.722 22.6476 248.134 22.6154C246.974 26.5408 245.84 30.3799 244.703 34.2191C244.141 36.1355 243.554 38.0263 243.02 39.9427C242.87 40.4921 242.643 40.6933 242.062 40.6741C240.663 40.6262 240.663 40.6741 240.277 39.355L236.306 26.0074C236.249 25.8062 236.182 25.6049 236.054 25.2089C235.518 27.0295 235.032 28.6264 234.543 30.2681C233.585 33.4973 232.627 36.7264 231.701 39.9683C231.538 40.5432 231.289 40.6933 230.723 40.6805C229.328 40.6422 229.331 40.6805 228.941 39.3518L224.246 23.4777C224.169 23.2254 224.102 22.9731 224.032 22.724C224.096 22.6856 224.137 22.6441 224.179 22.6409C226.028 22.5515 226.028 22.5515 226.53 24.3401C227.718 28.5817 228.908 32.8223 230.101 37.0617C230.129 37.3649 230.261 37.6491 230.474 37.8666C230.822 36.6976 231.161 35.5829 231.49 34.4682C232.576 30.776 233.671 27.0901 234.732 23.3915C234.895 22.823 235.118 22.5834 235.751 22.609C237.182 22.6601 237.178 22.609 237.578 23.9824C238.855 28.3624 240.147 32.7392 241.452 37.1128C241.529 37.346 241.493 37.659 241.835 37.8315Z" fill="#538DD0"/>
<path d="M203.999 31.6129C204.019 26.1512 208.033 22.13 213.463 22.1491C218.893 22.1683 222.879 26.2821 222.847 31.7311C222.815 37.18 218.74 41.182 213.313 41.1533C207.966 41.1182 203.983 37.0458 203.999 31.6129ZM220.848 31.7885C220.787 29.2334 220.033 27.1445 218.181 25.5922C214.987 22.9253 210.046 23.4618 207.58 26.7037C204.916 30.2171 205.664 35.7267 209.158 38.0839C211.639 39.7511 214.316 39.8853 216.948 38.5151C219.701 37.0842 220.761 34.5865 220.848 31.7885Z" fill="#538DD0"/>
<path d="M36.5168 28.0673L34.281 25.6687C36.7914 23.1837 39.3211 20.7148 41.806 18.2043C43.4285 16.569 44.984 14.8666 46.5522 13.2121C46.0029 13.1706 45.2747 13.2696 44.6071 13.0588C44.0865 12.8991 43.5499 12.7394 43.4062 12.139C43.2433 11.4586 43.5978 10.9061 43.9779 10.3823C44.128 10.1683 44.358 10.2258 44.5624 10.2258C46.8748 10.2258 49.1905 10.2417 51.5029 10.2258C52.0619 10.2258 52.1417 10.4398 52.1417 10.9284C52.1193 13.0013 52.0938 15.0806 52.1417 17.1471C52.1609 17.8945 51.8415 18.2011 51.2186 18.3928C50.9256 18.4934 50.6059 18.4842 50.3191 18.3666C50.0324 18.2491 49.7981 18.0314 49.66 17.754C49.2448 17.0992 49.1745 16.3263 49.0467 15.5757C48.6539 15.6204 48.5102 15.8951 48.3153 16.0995C44.5656 19.9025 40.819 23.7118 37.0757 27.5276C36.916 27.7128 36.7148 27.8853 36.5168 28.0673Z" fill="#FF9F00"/>
<path d="M111.703 32.223C113.441 35.0592 115.13 37.8093 116.884 40.6647C116.159 40.6647 115.558 40.6455 114.967 40.6647C114.533 40.6838 114.456 40.3453 114.303 40.0834C112.923 37.7837 111.521 35.4968 110.192 33.1684C109.822 32.5296 109.407 32.2581 108.688 32.3475C108.263 32.3957 107.835 32.3957 107.41 32.3475C106.81 32.2837 106.599 32.4529 106.612 33.1109C106.657 35.3946 106.612 37.6815 106.641 39.9684C106.641 40.5305 106.494 40.687 105.935 40.6711C104.763 40.6391 104.763 40.6711 104.763 39.4829C104.763 34.1681 104.782 28.8501 104.74 23.5354C104.74 22.7337 104.967 22.5772 105.714 22.6027C107.861 22.7145 110.026 22.4175 112.163 22.7816C116.085 23.4555 116.769 26.4547 116.063 28.9811C115.59 30.6739 114.351 31.6097 112.684 32.0186C112.396 32.0984 112.109 32.1399 111.703 32.223ZM109.199 24.385C108.302 24.385 107.691 24.385 107.081 24.385C106.746 24.385 106.612 24.4712 106.615 24.8289C106.615 26.608 106.615 28.3902 106.615 30.1693C106.615 30.3737 106.567 30.6228 106.906 30.61C108.675 30.5429 110.473 30.8432 112.208 30.2906C113.616 29.8307 114.309 28.8501 114.284 27.4352C114.261 26.0873 113.53 25.1611 112.141 24.7076C111.184 24.4398 110.191 24.3309 109.199 24.385Z" fill="#538DD0"/>
<path d="M181.804 32.2261L186.985 40.6646C186.235 40.6646 185.589 40.6646 184.947 40.6646C184.602 40.6646 184.548 40.3452 184.42 40.1344C182.983 37.7453 181.546 35.3435 180.14 32.9512C180.053 32.7473 179.9 32.5784 179.705 32.4713C179.511 32.3643 179.286 32.3252 179.067 32.3603C178.536 32.4132 178.001 32.4132 177.47 32.3603C176.8 32.2804 176.7 32.5743 176.71 33.1588C176.739 35.4201 176.71 37.6783 176.736 39.9364C176.736 40.5273 176.601 40.7126 175.995 40.6902C174.854 40.6423 174.854 40.6902 174.854 39.5468C174.854 34.1777 174.854 28.8054 174.854 23.4363C174.854 22.7592 175.046 22.5899 175.694 22.6187C177.898 22.7241 180.115 22.443 182.306 22.8007C185.5 23.3213 187.151 25.9947 186.174 29.0322C185.637 30.7026 184.433 31.6448 182.759 32.0409C182.482 32.1016 182.178 32.1399 181.804 32.2261ZM176.732 27.4735C176.732 28.3519 176.732 29.227 176.732 30.1053C176.732 30.3257 176.653 30.6196 177.052 30.6036C178.796 30.5365 180.565 30.8272 182.277 30.2842C183.203 29.9904 183.941 29.4697 184.257 28.4924C184.871 26.576 183.81 24.9375 181.702 24.5414C180.201 24.2604 178.681 24.4424 177.17 24.3785C176.809 24.3785 176.723 24.5127 176.729 24.8449C176.732 25.72 176.732 26.5984 176.732 27.4735Z" fill="#538DD0"/>
<path d="M202.086 40.5526C200.489 41.0317 199.605 40.4441 198.892 39.0419C197.819 36.9434 196.494 34.9728 195.302 32.9318C195.059 32.5166 194.801 32.293 194.303 32.3601C193.52 32.4399 192.466 32.0407 192.022 32.5326C191.632 32.9701 191.904 33.9986 191.901 34.7684C191.901 36.4963 191.866 38.2242 191.901 39.9522C191.92 40.591 191.719 40.7028 191.14 40.6836C190.019 40.6421 190.019 40.6836 190.016 39.5242V38.2466C190.016 33.3023 190.016 28.3453 190.016 23.4138C190.016 22.8069 190.138 22.5801 190.796 22.6121C193.031 22.7207 195.267 22.43 197.484 22.7973C200.678 23.3243 202.319 26.0105 201.316 29.0447C200.774 30.712 199.566 31.6478 197.893 32.0375C197.611 32.1046 197.33 32.1557 196.969 32.2291L202.086 40.5526ZM194.456 24.3847C193.587 24.3847 192.951 24.3847 192.313 24.3847C192.012 24.3847 191.888 24.4678 191.891 24.7872C191.891 26.5918 191.891 28.3996 191.891 30.2169C191.891 30.4565 191.92 30.6353 192.21 30.6226C193.903 30.5491 195.615 30.8334 197.283 30.3383C198.825 29.8784 199.563 28.9361 199.55 27.4637C199.537 25.9913 198.749 25.0746 197.215 24.6402C196.313 24.4213 195.383 24.3352 194.456 24.3847Z" fill="#538DD0"/>
<path d="M154.857 40.6676C156.614 36.6304 158.316 32.7178 160.022 28.8052C160.839 26.9335 161.702 25.081 162.459 23.1869C162.727 22.5098 163.181 22.6344 163.663 22.628C164.145 22.6216 164.522 22.5577 164.787 23.1965C167.191 28.8009 169.628 34.3925 172.098 39.9713C172.386 40.6101 172.213 40.757 171.59 40.6804C171.406 40.65 171.218 40.65 171.034 40.6804C170.396 40.8177 170.105 40.476 169.888 39.9138C169.444 38.7799 168.914 37.678 168.463 36.5442C168.421 36.3816 168.321 36.2401 168.181 36.1465C168.042 36.0529 167.873 36.0137 167.706 36.0363C164.994 36.0555 162.282 36.0555 159.571 36.0363C159.391 36.0142 159.208 36.0583 159.058 36.1606C158.908 36.2628 158.799 36.4161 158.754 36.5921C158.297 37.7195 157.764 38.8279 157.329 39.9617C157.118 40.5175 156.844 40.7698 156.234 40.6899C155.776 40.6548 155.316 40.6474 154.857 40.6676ZM159.709 34.2381H167.508L163.618 24.7935C162.264 28.0514 160.999 31.1176 159.709 34.2381Z" fill="#538DD0"/>
<path d="M287.394 40.6677L291.396 31.5265C292.594 28.7797 293.817 26.0425 294.974 23.2797C295.223 22.6856 295.561 22.5738 296.117 22.6185C296.673 22.6633 297.075 22.5515 297.363 23.2382C299.752 28.8212 302.201 34.3788 304.632 39.9459C304.715 40.1375 304.782 40.3355 304.907 40.6645C304.236 40.6645 303.629 40.6645 303.054 40.6645C302.681 40.6645 302.668 40.3451 302.569 40.1343C302.058 38.9653 301.544 37.8027 301.061 36.6209C301.017 36.433 300.906 36.2678 300.748 36.1566C300.59 36.0453 300.397 35.9958 300.205 36.0173C297.518 36.0471 294.833 36.0471 292.15 36.0173C291.957 35.9947 291.762 36.0436 291.603 36.1549C291.443 36.2661 291.33 36.4319 291.284 36.6209C290.837 37.7261 290.31 38.8024 289.898 39.9203C289.675 40.524 289.358 40.7539 288.732 40.6709C288.287 40.6414 287.84 40.6403 287.394 40.6677ZM296.158 24.7936C294.855 27.9301 293.632 30.8622 292.418 33.8039C292.287 34.1232 292.287 34.2861 292.709 34.2829C295.124 34.2829 297.538 34.2829 300.055 34.2829L296.158 24.7936Z" fill="#538DD0"/>
<path d="M339.306 40.6678L342.145 34.1713C343.742 30.5014 345.368 26.8251 346.936 23.152C347.189 22.558 347.575 22.6123 348.003 22.6282C348.431 22.6442 348.942 22.4685 349.233 23.1489C351.651 28.7766 354.113 34.3853 356.56 40.0035C356.64 40.1887 356.796 40.3676 356.688 40.6678C356.215 40.6678 355.729 40.6391 355.222 40.6678C354.803 40.6998 354.621 40.5273 354.471 40.1536C353.97 38.9239 353.417 37.7198 352.912 36.4933C352.873 36.3429 352.781 36.2119 352.652 36.1249C352.523 36.0379 352.367 36.0008 352.213 36.0206C349.472 36.0398 346.734 36.0398 343.998 36.0206C343.83 35.9996 343.661 36.0401 343.521 36.1347C343.381 36.2293 343.281 36.3715 343.238 36.5348C342.768 37.6878 342.232 38.8153 341.772 39.9747C341.571 40.4858 341.321 40.7477 340.74 40.671C340.263 40.6404 339.784 40.6393 339.306 40.6678ZM348.07 24.7746C346.716 28.0548 345.448 31.1242 344.167 34.232H351.957C350.661 31.1082 349.405 28.0548 348.054 24.7746H348.07Z" fill="#538DD0"/>
<path d="M99.7798 31.6449C99.7798 34.4364 99.7798 37.2312 99.7798 40.0227C99.7798 40.5529 99.6265 40.6902 99.1122 40.6807C97.94 40.6583 97.94 40.6807 97.94 39.5021C97.94 37.3206 97.9209 35.1391 97.94 32.9608C97.94 32.3987 97.8474 32.1815 97.215 32.1911C94.3947 32.2294 91.5744 32.223 88.7542 32.1911C88.1824 32.1911 88.0515 32.354 88.0579 32.9033C88.0898 35.2413 88.0579 37.5825 88.0866 39.9301C88.0866 40.5082 87.9748 40.7158 87.352 40.6902C86.2086 40.6423 86.2054 40.6902 86.2054 39.5532C86.2054 34.1809 86.2309 28.8086 86.1798 23.4364C86.1798 22.5293 86.6142 22.6475 87.1923 22.6187C87.8311 22.5868 88.1186 22.6826 88.0962 23.4523C88.0291 25.5795 88.0962 27.7067 88.0611 29.8403C88.0611 30.313 88.1601 30.4791 88.6711 30.4791C91.5457 30.4535 94.4203 30.4535 97.2949 30.4791C97.8506 30.4791 97.9337 30.2843 97.9337 29.7956C97.9113 27.6684 97.9816 25.538 97.8985 23.4076C97.8602 22.4494 98.4191 22.6922 98.9366 22.6283C99.5945 22.5484 99.7798 22.7624 99.7702 23.4396C99.7574 26.1672 99.7798 28.9045 99.7798 31.6449Z" fill="#538DD0"/>
<path d="M119.924 31.6609C119.924 28.8662 119.924 26.0746 119.924 23.2799C119.924 22.7593 120.062 22.6092 120.592 22.6124C123.891 22.6379 127.191 22.6603 130.493 22.6124C131.365 22.6124 131.157 23.101 131.193 23.5705C131.234 24.1167 131.177 24.4265 130.458 24.4106C127.823 24.3595 125.188 24.4106 122.553 24.3786C121.994 24.3786 121.767 24.4617 121.786 25.1005C121.841 26.6655 121.828 28.237 121.786 29.8052C121.786 30.3322 121.927 30.4727 122.448 30.4664C124.923 30.4408 127.398 30.4951 129.874 30.4312C130.736 30.4089 130.541 30.9071 130.573 31.3894C130.608 31.9228 130.573 32.255 129.851 32.239C127.405 32.1847 124.955 32.239 122.505 32.2071C121.975 32.2071 121.767 32.2965 121.78 32.8874C121.821 34.6952 121.812 36.5062 121.78 38.3171C121.78 38.8122 121.911 38.94 122.403 38.9368C125.169 38.9112 127.938 38.9368 130.707 38.9048C131.448 38.9048 131.525 39.1859 131.493 39.7832C131.464 40.3006 131.57 40.719 130.749 40.7062C127.373 40.6519 123.99 40.6679 120.611 40.7062C120.036 40.7062 119.911 40.5274 119.915 39.9844C119.94 37.1929 119.924 34.4269 119.924 31.6609Z" fill="#538DD0"/>
<path d="M135.096 31.6097C135.096 28.8693 135.118 26.1288 135.08 23.3916C135.08 22.7528 135.275 22.6059 135.881 22.6123C139.13 22.641 142.375 22.6538 145.62 22.6123C146.351 22.6123 146.383 22.9317 146.348 23.4619C146.316 23.9378 146.511 24.4201 145.645 24.4201C142.985 24.3594 140.321 24.4201 137.661 24.3849C137.118 24.3849 136.932 24.4967 136.948 25.0748C136.989 26.642 136.989 28.2113 136.948 29.7827C136.932 30.364 137.118 30.479 137.664 30.4726C140.056 30.4439 142.455 30.4918 144.847 30.4407C145.594 30.4407 145.76 30.6483 145.76 31.3606C145.76 32.0728 145.604 32.2549 144.885 32.2389C142.464 32.1878 140.043 32.2389 137.622 32.207C137.114 32.207 136.939 32.3188 136.948 32.8458C136.984 34.6536 136.984 36.4635 136.948 38.2755C136.948 38.8185 137.121 38.9143 137.622 38.9143C140.391 38.892 143.157 38.9367 145.927 38.8824C146.661 38.8824 146.687 39.2018 146.652 39.732C146.62 40.2111 146.814 40.6902 145.946 40.6902C142.57 40.6327 139.187 40.6487 135.808 40.6902C135.169 40.6902 135.077 40.4762 135.083 39.914C135.109 37.1417 135.096 34.3757 135.096 31.6097Z" fill="#538DD0"/>
<path d="M254.643 41.1403C252.986 41.0541 251.168 40.5335 249.769 38.978C249.45 38.6203 249.399 38.3743 249.871 38.1508C249.942 38.1134 250.006 38.0661 250.063 38.0102C250.641 37.4704 251.047 37.298 251.737 38.0677C253.069 39.5465 255.624 39.8052 257.336 38.847C258.339 38.2785 259 37.464 259.032 36.2408C259.064 35.0175 258.434 34.1359 257.393 33.5323C256.608 33.0755 255.723 32.8615 254.873 32.5741C254.276 32.3601 253.666 32.1684 253.078 31.9353C250.708 30.9771 249.641 29.4248 249.772 27.1443C249.913 24.752 251.296 23.0368 253.701 22.446C256.106 21.8551 258.342 22.1266 260.252 23.8864C260.654 24.2538 260.763 24.5252 260.223 24.8446C260.176 24.8702 260.134 24.9037 260.099 24.9437C259.517 25.5824 259.083 25.6495 258.374 24.9437C257.055 23.6181 254.381 23.6405 252.906 24.8063C252.545 25.0886 252.255 25.4502 252.057 25.863C251.859 26.2758 251.758 26.7286 251.763 27.1865C251.769 27.6443 251.879 28.0947 252.087 28.5029C252.294 28.911 252.593 29.2658 252.96 29.5398C253.96 30.284 255.138 30.6225 256.307 30.9771C257.096 31.2113 257.86 31.5193 258.591 31.8969C261.983 33.6952 261.513 37.8314 259.389 39.6232C258.042 40.6838 256.356 41.2225 254.643 41.1403Z" fill="#538DD0"/>
<path d="M280.559 41.1469C274.653 41.115 270.709 37.18 270.594 31.8844C270.469 26.1576 274.727 21.9223 280.431 22.1619C282.507 22.2513 284.382 22.9253 285.861 24.4839C286.18 24.8289 286.27 25.0684 285.791 25.308C285.673 25.3689 285.565 25.4476 285.471 25.5411C284.96 26.0649 284.622 26.0266 284.018 25.4932C281.996 23.6982 279.626 23.4842 277.161 24.4392C274.286 25.5539 272.497 28.4764 272.568 31.8045C272.638 35.1326 274.484 37.8731 277.387 38.9335C279.828 39.8214 283.264 39.518 284.941 37.0171C285.136 36.7264 285.293 36.7169 285.58 36.9309C286.787 37.8891 287.084 37.5505 285.759 38.8856C284.383 40.2832 282.52 41.0936 280.559 41.1469Z" fill="#538DD0"/>
<path d="M307.398 31.5649C307.398 28.8277 307.398 26.0872 307.398 23.35C307.398 22.8294 307.475 22.5866 308.078 22.6122C310.202 22.7144 312.336 22.4525 314.45 22.7815C317.597 23.2669 319.158 25.5155 318.526 28.6201C318.207 30.1947 317.181 31.1752 315.718 31.7246C314.256 32.274 312.742 32.1973 311.228 32.2133C310.589 32.2133 309.778 31.929 309.391 32.3378C309.005 32.7467 309.286 33.5548 309.283 34.184C309.267 36.1004 309.254 38.0167 309.283 39.9331C309.283 40.5208 309.158 40.7125 308.545 40.6901C307.401 40.6422 307.401 40.6901 307.401 39.5499L307.398 31.5649ZM309.263 27.3808V28.5753C309.263 30.447 309.263 30.4438 311.154 30.447C312.432 30.447 313.709 30.4981 314.917 29.9775C315.434 29.7921 315.878 29.4471 316.186 28.9923C316.494 28.5375 316.649 27.9966 316.629 27.4479C316.629 25.9435 315.741 24.915 314.074 24.5733C312.601 24.2539 311.11 24.4391 309.624 24.3912C309.27 24.3912 309.254 24.5797 309.257 24.8416C309.283 25.6816 309.263 26.5312 309.263 27.3808Z" fill="#538DD0"/>
<path d="M333.697 22.625C335.799 22.625 337.901 22.6666 339.999 22.6059C340.794 22.5803 340.699 23.0115 340.683 23.4938C340.667 23.9761 340.842 24.452 340.021 24.4041C338.456 24.337 336.885 24.4041 335.317 24.3721C334.751 24.3562 334.617 24.5287 334.617 25.078C334.641 30.0266 334.641 34.9719 334.617 39.914C334.617 40.1632 334.818 40.5944 334.387 40.6359C333.873 40.6902 333.321 40.802 332.835 40.5528C332.723 40.4954 332.758 40.1153 332.758 39.8821C332.758 34.9889 332.758 30.099 332.758 25.2058C332.758 24.567 332.643 24.3402 331.95 24.3658C330.408 24.4264 328.865 24.3434 327.322 24.4041C326.572 24.4328 326.658 24.0016 326.683 23.5577C326.709 23.1137 326.431 22.5995 327.293 22.5995C329.443 22.6602 331.57 22.625 333.697 22.625Z" fill="#538DD0"/>
<path d="M75.5057 32.5263C75.5057 30.0286 75.5057 27.5309 75.5057 25.03C75.5057 24.5062 75.362 24.3624 74.8414 24.372C73.2444 24.404 71.6474 24.3433 70.0504 24.4008C69.1976 24.4295 69.4499 23.8834 69.4308 23.4617C69.4116 23.0401 69.2998 22.6026 70.0696 22.609C74.2984 22.6441 78.5272 22.6505 82.756 22.609C83.5705 22.609 83.414 23.0561 83.4204 23.5129C83.4268 23.9696 83.5545 24.4487 82.7465 24.4072C81.3124 24.3369 79.8719 24.388 78.4378 24.388C77.371 24.388 77.371 24.388 77.371 25.4165C77.371 30.2074 77.371 34.9984 77.371 39.7894C77.371 40.08 77.5563 40.5495 77.1953 40.6326C76.6754 40.7347 76.1406 40.7347 75.6207 40.6326C75.4003 40.5911 75.5121 40.2046 75.5121 39.9938C75.5025 37.4737 75.5057 35.0144 75.5057 32.5263Z" fill="#538DD0"/>
<path d="M359.294 31.6417C359.294 28.8789 359.335 26.1129 359.272 23.3533C359.252 22.4462 359.779 22.6506 360.278 22.6219C360.776 22.5932 361.188 22.5708 361.181 23.3597C361.14 28.2752 361.182 33.1908 361.146 38.1031C361.146 38.7739 361.316 38.9367 361.974 38.924C364.286 38.8824 366.598 38.924 368.911 38.8888C369.582 38.8888 369.671 39.1571 369.601 39.6841C369.543 40.1121 369.869 40.6966 368.962 40.6839C365.96 40.6359 362.954 40.6519 359.952 40.6839C359.418 40.6839 359.284 40.5337 359.287 40.0163C359.307 37.2216 359.294 34.43 359.294 31.6417Z" fill="#538DD0"/>
<path d="M322.087 31.5777C322.087 28.8405 322.106 26.1032 322.087 23.366C322.087 22.7815 322.218 22.5866 322.831 22.609C323.965 22.6569 323.968 22.609 323.968 23.7461C323.968 29.1375 323.949 34.5321 323.988 39.9268C323.988 40.7029 323.643 40.7093 323.09 40.671C322.595 40.6358 322.058 40.8594 322.078 39.9459C322.126 37.1576 322.087 34.3756 322.087 31.5777Z" fill="#538DD0"/>
<path d="M33.7093 30.7503C33.7093 31.092 33.4219 31.2453 33.2238 31.4466C25.4923 39.3016 17.7533 47.1545 10.0068 55.0053C8.72921 55.724 7.28553 56.1168 5.94725 56.7333C5.72367 56.8387 5.43941 56.7748 5.56078 56.481C6.19958 54.9542 6.45829 53.271 7.44523 51.888C7.70116 51.8107 7.92525 51.6528 8.08403 51.4377L24.0284 35.6977C26.3557 33.4045 28.6873 31.1133 31.0232 28.8243C31.1893 28.6582 31.3426 28.4506 31.5853 28.4059L33.7093 30.7503Z" fill="#FF9F00"/>
</svg>
