<svg width="16" height="17" viewBox="0 0 16 17" fill="none" xmlns="http://www.w3.org/2000/svg">
<path d="M13 12.5671H3V10.9005H13V12.5671ZM13 9.2338H3V7.56714H13V9.2338ZM13 5.90047H3V4.23381H13V5.90047ZM0.5 16.7338L1.75 15.4838L3 16.7338L4.25 15.4838L5.5 16.7338L6.75 15.4838L8 16.7338L9.25 15.4838L10.5 16.7338L11.75 15.4838L13 16.7338L14.25 15.4838L15.5 16.7338V0.0671387L14.25 1.31714L13 0.0671387L11.75 1.31714L10.5 0.0671387L9.25 1.31714L8 0.0671387L6.75 1.31714L5.5 0.0671387L4.25 1.31714L3 0.0671387L1.75 1.31714L0.5 0.0671387V16.7338Z" fill="white"/>
</svg>
