<svg width="40" height="40" viewBox="0 0 40 40" fill="none" xmlns="http://www.w3.org/2000/svg">
<circle cx="20" cy="20" r="20" fill="white"/>
<g clip-path="url(#clip0)">
<path d="M32 12.557C31.117 12.949 30.168 13.213 29.172 13.332C30.189 12.723 30.97 11.758 31.337 10.608C30.386 11.172 29.332 11.582 28.21 11.803C27.313 10.846 26.032 10.248 24.616 10.248C21.437 10.248 19.101 13.214 19.819 16.293C15.728 16.088 12.1 14.128 9.671 11.149C8.381 13.362 9.002 16.257 11.194 17.723C10.388 17.697 9.628 17.476 8.965 17.107C8.911 19.388 10.546 21.522 12.914 21.997C12.221 22.185 11.462 22.229 10.69 22.081C11.316 24.037 13.134 25.46 15.29 25.5C13.22 27.123 10.612 27.848 8 27.54C10.179 28.937 12.768 29.752 15.548 29.752C24.69 29.752 29.855 22.031 29.543 15.106C30.505 14.411 31.34 13.544 32 12.557Z" fill="black"/>
</g>
<defs>
<clipPath id="clip0">
<rect width="24" height="24" fill="white" transform="translate(8 8)"/>
</clipPath>
</defs>
</svg>
